<?xml version="1.0" encoding="utf-8"?>
<Project name="bachy" themeId="4" version="65538" templateID="SimpleProjectTemplate">
  <MediaItems>
    <MediaItem id="163" filePath="C:\Users\Kayla\Desktop\bach\wedding 29.jpg" arWidth="720" arHeight="540" duration="0" songTitle="" songArtist="" songAlbum="" />
    <MediaItem id="164" filePath="C:\Users\Kayla\Pictures\2013-03-07\IMG_0272.JPG" arWidth="160" arHeight="120" duration="0" songTitle="" songArtist="" songAlbum="" />
    <MediaItem id="1" filePath="C:\Users\Kayla\Desktop\bach\036.JPG" arWidth="2448" arHeight="3264" duration="0" songTitle="" songArtist="" songAlbum="" />
    <MediaItem id="165" filePath="C:\Users\Kayla\Pictures\2013-03-07\IMG_1117.JPG" arWidth="441" arHeight="441" duration="0" songTitle="" songArtist="" songAlbum="" />
    <MediaItem id="2" filePath="C:\Users\Kayla\Desktop\bach\049.JPG" arWidth="120" arHeight="160" duration="0" songTitle="" songArtist="" songAlbum="" />
    <MediaItem id="166" filePath="C:\Users\Kayla\Pictures\2013-03-07\IMG_2097.JPG" arWidth="612" arHeight="612" duration="0" songTitle="" songArtist="" songAlbum="" />
    <MediaItem id="3" filePath="C:\Users\Kayla\Desktop\bach\050.JPG" arWidth="96" arHeight="72" duration="0" songTitle="" songArtist="" songAlbum="" />
    <MediaItem id="167" filePath="C:\Users\Kayla\Pictures\2013-03-07\IMG_2152.JPG" arWidth="287" arHeight="287" duration="0" songTitle="" songArtist="" songAlbum="" />
    <MediaItem id="4" filePath="C:\Users\Kayla\Desktop\bach\18036_107130309300621_8190492_n.jpg" arWidth="604" arHeight="453" duration="0" songTitle="" songArtist="" songAlbum="" />
    <MediaItem id="168" filePath="C:\Users\Kayla\Downloads\Lil Jon Turn Down For What (HQ).mp3" arWidth="0" arHeight="0" duration="210.2334693" songTitle="" songArtist="" songAlbum="" />
    <MediaItem id="5" filePath="C:\Users\Kayla\Desktop\bach\19036_109338485746470_5421931_n.jpg" arWidth="453" arHeight="604" duration="0" songTitle="" songArtist="" songAlbum="" />
    <MediaItem id="169" filePath="C:\Users\Kayla\Downloads\Cobra Starship Feat. Leighton Meester - Good Girls Go Bad.mp3" arWidth="0" arHeight="0" duration="201.76979589999999" songTitle="" songArtist="" songAlbum="" />
    <MediaItem id="6" filePath="C:\Users\Kayla\Desktop\bach\19036_109338669079785_1894279_n.jpg" arWidth="453" arHeight="604" duration="0" songTitle="" songArtist="" songAlbum="" />
    <MediaItem id="170" filePath="C:\Users\Kayla\Downloads\Spice Girls - Wannabe - Lyrics.mp3" arWidth="0" arHeight="0" duration="191.00731250000001" songTitle="" songArtist="" songAlbum="" />
    <MediaItem id="7" filePath="C:\Users\Kayla\Desktop\bach\19036_109339099079742_1106757_n.jpg" arWidth="604" arHeight="453" duration="0" songTitle="" songArtist="" songAlbum="" />
    <MediaItem id="8" filePath="C:\Users\Kayla\Desktop\bach\20336_1221002601082_2020635_n.jpg" arWidth="603" arHeight="452" duration="0" songTitle="" songArtist="" songAlbum="" />
    <MediaItem id="172" filePath="C:\Users\Kayla\Downloads\Bruno Mars, Mark Ronson - Uptown Funk (Lyrics Video).mp3" arWidth="0" arHeight="0" duration="252.49959179999999" songTitle="" songArtist="" songAlbum="" />
    <MediaItem id="9" filePath="C:\Users\Kayla\Desktop\bach\20336_1221002641083_7621423_n.jpg" arWidth="603" arHeight="452" duration="0" songTitle="" songArtist="" songAlbum="" />
    <MediaItem id="173" filePath="C:\Users\Kayla\Downloads\A Little Party Never Killed Nobody (All We Got) (Lyric Vi... (1).mp3" arWidth="0" arHeight="0" duration="241.16244889999999" songTitle="" songArtist="" songAlbum="" />
    <MediaItem id="10" filePath="C:\Users\Kayla\Desktop\bach\20336_1221003001092_4828295_n.jpg" arWidth="603" arHeight="373" duration="0" songTitle="" songArtist="" songAlbum="" />
    <MediaItem id="11" filePath="C:\Users\Kayla\Desktop\bach\25589_111187932228192_722128_n.jpg" arWidth="540" arHeight="720" duration="0" songTitle="" songArtist="" songAlbum="" />
    <MediaItem id="12" filePath="C:\Users\Kayla\Desktop\bach\25589_111187938894858_5338055_n.jpg" arWidth="540" arHeight="720" duration="0" songTitle="" songArtist="" songAlbum="" />
    <MediaItem id="13" filePath="C:\Users\Kayla\Desktop\bach\25589_111187942228191_1356970_n.jpg" arWidth="540" arHeight="720" duration="0" songTitle="" songArtist="" songAlbum="" />
    <MediaItem id="14" filePath="C:\Users\Kayla\Desktop\bach\25589_111187975561521_2334405_n.jpg" arWidth="206" arHeight="274" duration="0" songTitle="" songArtist="" songAlbum="" />
    <MediaItem id="15" filePath="C:\Users\Kayla\Desktop\bach\25589_111187982228187_193863_n.jpg" arWidth="600" arHeight="603" duration="0" songTitle="" songArtist="" songAlbum="" />
    <MediaItem id="16" filePath="C:\Users\Kayla\Desktop\bach\25589_111187985561520_5729404_n.jpg" arWidth="540" arHeight="720" duration="0" songTitle="" songArtist="" songAlbum="" />
    <MediaItem id="17" filePath="C:\Users\Kayla\Desktop\bach\25589_111187995561519_7330453_n.jpg" arWidth="540" arHeight="720" duration="0" songTitle="" songArtist="" songAlbum="" />
    <MediaItem id="18" filePath="C:\Users\Kayla\Desktop\bach\25589_111188012228184_6915909_n.jpg" arWidth="604" arHeight="453" duration="0" songTitle="" songArtist="" songAlbum="" />
    <MediaItem id="19" filePath="C:\Users\Kayla\Desktop\bach\25589_111188032228182_6541735_n.jpg" arWidth="600" arHeight="449" duration="0" songTitle="" songArtist="" songAlbum="" />
    <MediaItem id="20" filePath="C:\Users\Kayla\Desktop\bach\25589_111188038894848_2594052_n.jpg" arWidth="600" arHeight="449" duration="0" songTitle="" songArtist="" songAlbum="" />
    <MediaItem id="21" filePath="C:\Users\Kayla\Desktop\bach\25589_111188048894847_4954710_n.jpg" arWidth="540" arHeight="720" duration="0" songTitle="" songArtist="" songAlbum="" />
    <MediaItem id="22" filePath="C:\Users\Kayla\Desktop\bach\26571_119909361356049_2755969_n.jpg" arWidth="720" arHeight="540" duration="0" songTitle="" songArtist="" songAlbum="" />
    <MediaItem id="23" filePath="C:\Users\Kayla\Desktop\bach\36163_171442096202775_1160354_n.jpg" arWidth="720" arHeight="540" duration="0" songTitle="" songArtist="" songAlbum="" />
    <MediaItem id="24" filePath="C:\Users\Kayla\Desktop\bach\40738_171824876164497_8168494_n.jpg" arWidth="206" arHeight="274" duration="0" songTitle="" songArtist="" songAlbum="" />
    <MediaItem id="25" filePath="C:\Users\Kayla\Desktop\bach\59796_163342800346038_1089894_n.jpg" arWidth="600" arHeight="453" duration="0" songTitle="" songArtist="" songAlbum="" />
    <MediaItem id="26" filePath="C:\Users\Kayla\Desktop\bach\61765_163342693679382_1356187_n.jpg" arWidth="600" arHeight="449" duration="0" songTitle="" songArtist="" songAlbum="" />
    <MediaItem id="27" filePath="C:\Users\Kayla\Desktop\bach\61765_163342713679380_2144570_n.jpg" arWidth="540" arHeight="720" duration="0" songTitle="" songArtist="" songAlbum="" />
    <MediaItem id="28" filePath="C:\Users\Kayla\Desktop\bach\67515_1599406181655_5966836_n.jpg" arWidth="720" arHeight="540" duration="0" songTitle="" songArtist="" songAlbum="" />
    <MediaItem id="29" filePath="C:\Users\Kayla\Desktop\bach\71802_171441979536120_266997_n.jpg" arWidth="720" arHeight="540" duration="0" songTitle="" songArtist="" songAlbum="" />
    <MediaItem id="30" filePath="C:\Users\Kayla\Desktop\bach\72275_171442346202750_7538146_n.jpg" arWidth="540" arHeight="720" duration="0" songTitle="" songArtist="" songAlbum="" />
    <MediaItem id="31" filePath="C:\Users\Kayla\Desktop\bach\73742_1458486258025_5744744_n.jpg" arWidth="540" arHeight="720" duration="0" songTitle="" songArtist="" songAlbum="" />
    <MediaItem id="32" filePath="C:\Users\Kayla\Desktop\bach\535676_597282000285447_1973629627_n.jpg" arWidth="480" arHeight="640" duration="0" songTitle="" songArtist="" songAlbum="" />
    <MediaItem id="33" filePath="C:\Users\Kayla\Desktop\bach\1503328_1007645102582466_2047824216516928782_n.jpg" arWidth="960" arHeight="960" duration="0" songTitle="" songArtist="" songAlbum="" />
    <MediaItem id="34" filePath="C:\Users\Kayla\Desktop\bach\1904092_808544245825887_390340243_n.jpg" arWidth="960" arHeight="720" duration="0" songTitle="" songArtist="" songAlbum="" />
    <MediaItem id="35" filePath="C:\Users\Kayla\Desktop\bach\1915277_106444059369246_3674662_n.jpg" arWidth="461" arHeight="604" duration="0" songTitle="" songArtist="" songAlbum="" />
    <MediaItem id="36" filePath="C:\Users\Kayla\Desktop\bach\1915277_106444062702579_621248_n.jpg" arWidth="453" arHeight="604" duration="0" songTitle="" songArtist="" songAlbum="" />
    <MediaItem id="37" filePath="C:\Users\Kayla\Desktop\bach\1915277_106444072702578_7831416_n.jpg" arWidth="381" arHeight="604" duration="0" songTitle="" songArtist="" songAlbum="" />
    <MediaItem id="38" filePath="C:\Users\Kayla\Desktop\bach\1915277_106995085980810_5758522_n.jpg" arWidth="604" arHeight="453" duration="0" songTitle="" songArtist="" songAlbum="" />
    <MediaItem id="39" filePath="C:\Users\Kayla\Desktop\bach\10306733_10202186981411876_4051319624546417593_n.jpg" arWidth="206" arHeight="206" duration="0" songTitle="" songArtist="" songAlbum="" />
    <MediaItem id="40" filePath="C:\Users\Kayla\Desktop\bach\10364277_10152458695328000_902456307_o.jpg" arWidth="717" arHeight="960" duration="0" songTitle="" songArtist="" songAlbum="" />
    <MediaItem id="41" filePath="C:\Users\Kayla\Desktop\bach\10364639_10152458695108000_1183348710_o.jpg" arWidth="717" arHeight="960" duration="0" songTitle="" songArtist="" songAlbum="" />
    <MediaItem id="42" filePath="C:\Users\Kayla\Desktop\bach\10391436_980525581961085_4703386653522954278_n.jpg" arWidth="543" arHeight="960" duration="0" songTitle="" songArtist="" songAlbum="" />
    <MediaItem id="43" filePath="C:\Users\Kayla\Desktop\bach\10399113_101836196496699_5580617_n.jpg" arWidth="604" arHeight="453" duration="0" songTitle="" songArtist="" songAlbum="" />
    <MediaItem id="44" filePath="C:\Users\Kayla\Desktop\bach\10399186_102688886411430_5653896_n.jpg" arWidth="274" arHeight="206" duration="0" songTitle="" songArtist="" songAlbum="" />
    <MediaItem id="45" filePath="C:\Users\Kayla\Desktop\bach\10462712_869512363062408_4505112662172206458_n.jpg" arWidth="720" arHeight="960" duration="0" songTitle="" songArtist="" songAlbum="" />
    <MediaItem id="46" filePath="C:\Users\Kayla\Desktop\bach\10487347_980525521961091_2317116436755556090_n.jpg" arWidth="543" arHeight="960" duration="0" songTitle="" songArtist="" songAlbum="" />
    <MediaItem id="47" filePath="C:\Users\Kayla\Desktop\bach\10511356_869513413062303_8084834203677966874_n.jpg" arWidth="960" arHeight="720" duration="0" songTitle="" songArtist="" songAlbum="" />
    <MediaItem id="48" filePath="C:\Users\Kayla\Desktop\bach\10519767_943438415669802_8762977440530051807_n.jpg" arWidth="543" arHeight="960" duration="0" songTitle="" songArtist="" songAlbum="" />
    <MediaItem id="49" filePath="C:\Users\Kayla\Desktop\bach\10670251_947100781970232_4602577234909709382_n.jpg" arWidth="960" arHeight="722" duration="0" songTitle="" songArtist="" songAlbum="" />
    <MediaItem id="50" filePath="C:\Users\Kayla\Desktop\bach\10850294_970406606306316_6254106739097085747_n.jpg" arWidth="835" arHeight="960" duration="0" songTitle="" songArtist="" songAlbum="" />
    <MediaItem id="51" filePath="C:\Users\Kayla\Desktop\bach\10881671_975301839150126_1540803435561366219_n.jpg" arWidth="396" arHeight="960" duration="0" songTitle="" songArtist="" songAlbum="" />
    <MediaItem id="52" filePath="C:\Users\Kayla\Desktop\bach\10917402_983198978360412_8299997087590200978_n.jpg" arWidth="465" arHeight="509" duration="0" songTitle="" songArtist="" songAlbum="" />
    <MediaItem id="53" filePath="C:\Users\Kayla\Desktop\bach\20140922_203849.jpg" arWidth="512" arHeight="288" duration="0" songTitle="" songArtist="" songAlbum="" />
    <MediaItem id="54" filePath="C:\Users\Kayla\Desktop\bach\1411506853902.jpg" arWidth="720" arHeight="1280" duration="0" songTitle="" songArtist="" songAlbum="" />
    <MediaItem id="55" filePath="C:\Users\Kayla\Desktop\bach\adfasdfasdfaerkjal.jpg" arWidth="320" arHeight="254" duration="0" songTitle="" songArtist="" songAlbum="" />
    <MediaItem id="56" filePath="C:\Users\Kayla\Desktop\bach\adsfasdfasdfasfdasdf.jpg" arWidth="2048" arHeight="1536" duration="0" songTitle="" songArtist="" songAlbum="" />
    <MediaItem id="57" filePath="C:\Users\Kayla\Desktop\bach\akjhfdkjaldshfsa.JPG" arWidth="960" arHeight="720" duration="0" songTitle="" songArtist="" songAlbum="" />
    <MediaItem id="58" filePath="C:\Users\Kayla\Desktop\bach\asdasdfas.jpg" arWidth="768" arHeight="1024" duration="0" songTitle="" songArtist="" songAlbum="" />
    <MediaItem id="59" filePath="C:\Users\Kayla\Desktop\bach\asdfasdaf.jpg" arWidth="768" arHeight="1024" duration="0" songTitle="" songArtist="" songAlbum="" />
    <MediaItem id="60" filePath="C:\Users\Kayla\Desktop\bach\asdfasdf.jpg" arWidth="540" arHeight="720" duration="0" songTitle="" songArtist="" songAlbum="" />
    <MediaItem id="61" filePath="C:\Users\Kayla\Desktop\bach\asdfasdfasd.jpg" arWidth="1536" arHeight="2048" duration="0" songTitle="" songArtist="" songAlbum="" />
    <MediaItem id="62" filePath="C:\Users\Kayla\Desktop\bach\asdfasdfasdfasd.jpg" arWidth="953" arHeight="960" duration="0" songTitle="" songArtist="" songAlbum="" />
    <MediaItem id="63" filePath="C:\Users\Kayla\Desktop\bach\asdfasdfasdfasdfasdfasdfasdf.jpg" arWidth="1024" arHeight="768" duration="0" songTitle="" songArtist="" songAlbum="" />
    <MediaItem id="64" filePath="C:\Users\Kayla\Desktop\bach\asdfasdfasdfasdfasdkj;lkj;.jpg" arWidth="960" arHeight="960" duration="0" songTitle="" songArtist="" songAlbum="" />
    <MediaItem id="65" filePath="C:\Users\Kayla\Desktop\bach\asdfsadfasdfasfd.jpg" arWidth="1536" arHeight="2048" duration="0" songTitle="" songArtist="" songAlbum="" />
    <MediaItem id="66" filePath="C:\Users\Kayla\Desktop\bach\BCimg_20141109_1.jpg" arWidth="720" arHeight="603" duration="0" songTitle="" songArtist="" songAlbum="" />
    <MediaItem id="67" filePath="C:\Users\Kayla\Desktop\bach\BeautyPlus_20141109124848_save.jpg" arWidth="960" arHeight="722" duration="0" songTitle="" songArtist="" songAlbum="" />
    <MediaItem id="68" filePath="C:\Users\Kayla\Desktop\bach\brit.jpg" arWidth="604" arHeight="453" duration="0" songTitle="" songArtist="" songAlbum="" />
    <MediaItem id="69" filePath="C:\Users\Kayla\Desktop\bach\cheyakjdf.JPG" arWidth="604" arHeight="453" duration="0" songTitle="" songArtist="" songAlbum="" />
    <MediaItem id="70" filePath="C:\Users\Kayla\Desktop\bach\dfasdfasdf.jpg" arWidth="448" arHeight="720" duration="0" songTitle="" songArtist="" songAlbum="" />
    <MediaItem id="71" filePath="C:\Users\Kayla\Desktop\bach\dfasdfasdfa.jpg" arWidth="768" arHeight="1024" duration="0" songTitle="" songArtist="" songAlbum="" />
    <MediaItem id="72" filePath="C:\Users\Kayla\Desktop\bach\dsafasdfasdfasdf.JPG" arWidth="604" arHeight="431" duration="0" songTitle="" songArtist="" songAlbum="" />
    <MediaItem id="73" filePath="C:\Users\Kayla\Desktop\bach\dsafasdfasdfasdfasdfa.jpg" arWidth="720" arHeight="960" duration="0" songTitle="" songArtist="" songAlbum="" />
    <MediaItem id="74" filePath="C:\Users\Kayla\Desktop\bach\dsafasdfsaf.jpg" arWidth="540" arHeight="720" duration="0" songTitle="" songArtist="" songAlbum="" />
    <MediaItem id="75" filePath="C:\Users\Kayla\Desktop\bach\dsfasdfasd.jpg" arWidth="540" arHeight="720" duration="0" songTitle="" songArtist="" songAlbum="" />
    <MediaItem id="76" filePath="C:\Users\Kayla\Desktop\bach\dsfasdfasdfasdfasdf.jpg" arWidth="720" arHeight="540" duration="0" songTitle="" songArtist="" songAlbum="" />
    <MediaItem id="77" filePath="C:\Users\Kayla\Desktop\bach\dsfasfdsadfas.jpg" arWidth="1536" arHeight="2048" duration="0" songTitle="" songArtist="" songAlbum="" />
    <MediaItem id="78" filePath="C:\Users\Kayla\Desktop\bach\FB_IMG_1423361894924.jpg" arWidth="540" arHeight="960" duration="0" songTitle="" songArtist="" songAlbum="" />
    <MediaItem id="79" filePath="C:\Users\Kayla\Desktop\bach\FB_IMG_1423361901684.jpg" arWidth="1024" arHeight="1024" duration="0" songTitle="" songArtist="" songAlbum="" />
    <MediaItem id="80" filePath="C:\Users\Kayla\Desktop\bach\FB_IMG_1423585657648.jpg" arWidth="960" arHeight="720" duration="0" songTitle="" songArtist="" songAlbum="" />
    <MediaItem id="81" filePath="C:\Users\Kayla\Desktop\bach\FB_IMG_1423585719488.jpg" arWidth="453" arHeight="604" duration="0" songTitle="" songArtist="" songAlbum="" />
    <MediaItem id="82" filePath="C:\Users\Kayla\Desktop\bach\FB_IMG_1423585767382.jpg" arWidth="540" arHeight="720" duration="0" songTitle="" songArtist="" songAlbum="" />
    <MediaItem id="83" filePath="C:\Users\Kayla\Desktop\bach\FB_IMG_1423585783320.jpg" arWidth="540" arHeight="720" duration="0" songTitle="" songArtist="" songAlbum="" />
    <MediaItem id="84" filePath="C:\Users\Kayla\Desktop\bach\FB_IMG_1423585790957.jpg" arWidth="720" arHeight="540" duration="0" songTitle="" songArtist="" songAlbum="" />
    <MediaItem id="85" filePath="C:\Users\Kayla\Desktop\bach\FB_IMG_1423585797643.jpg" arWidth="718" arHeight="720" duration="0" songTitle="" songArtist="" songAlbum="" />
    <MediaItem id="86" filePath="C:\Users\Kayla\Desktop\bach\FB_IMG_1423585802663.jpg" arWidth="720" arHeight="540" duration="0" songTitle="" songArtist="" songAlbum="" />
    <MediaItem id="87" filePath="C:\Users\Kayla\Desktop\bach\FB_IMG_1423585812449.jpg" arWidth="720" arHeight="540" duration="0" songTitle="" songArtist="" songAlbum="" />
    <MediaItem id="88" filePath="C:\Users\Kayla\Desktop\bach\FB_IMG_1423585829202.jpg" arWidth="480" arHeight="720" duration="0" songTitle="" songArtist="" songAlbum="" />
    <MediaItem id="89" filePath="C:\Users\Kayla\Desktop\bach\FB_IMG_1423585834343.jpg" arWidth="540" arHeight="720" duration="0" songTitle="" songArtist="" songAlbum="" />
    <MediaItem id="90" filePath="C:\Users\Kayla\Desktop\bach\FB_IMG_1423585890292.jpg" arWidth="720" arHeight="540" duration="0" songTitle="" songArtist="" songAlbum="" />
    <MediaItem id="91" filePath="C:\Users\Kayla\Desktop\bach\FB_IMG_1423585907595.jpg" arWidth="720" arHeight="540" duration="0" songTitle="" songArtist="" songAlbum="" />
    <MediaItem id="92" filePath="C:\Users\Kayla\Desktop\bach\FB_IMG_1423585926068.jpg" arWidth="720" arHeight="540" duration="0" songTitle="" songArtist="" songAlbum="" />
    <MediaItem id="93" filePath="C:\Users\Kayla\Desktop\bach\FB_IMG_1423585939852.jpg" arWidth="540" arHeight="720" duration="0" songTitle="" songArtist="" songAlbum="" />
    <MediaItem id="94" filePath="C:\Users\Kayla\Desktop\bach\FB_IMG_1423844610458.jpg" arWidth="960" arHeight="720" duration="0" songTitle="" songArtist="" songAlbum="" />
    <MediaItem id="95" filePath="C:\Users\Kayla\Desktop\bach\FB_IMG_1423844631193.jpg" arWidth="960" arHeight="720" duration="0" songTitle="" songArtist="" songAlbum="" />
    <MediaItem id="96" filePath="C:\Users\Kayla\Desktop\bach\FB_IMG_1423844660363.jpg" arWidth="720" arHeight="960" duration="0" songTitle="" songArtist="" songAlbum="" />
    <MediaItem id="97" filePath="C:\Users\Kayla\Desktop\bach\FB_IMG_1423844726160.jpg" arWidth="540" arHeight="720" duration="0" songTitle="" songArtist="" songAlbum="" />
    <MediaItem id="98" filePath="C:\Users\Kayla\Desktop\bach\FB_IMG_1423844769148.jpg" arWidth="453" arHeight="604" duration="0" songTitle="" songArtist="" songAlbum="" />
    <MediaItem id="99" filePath="C:\Users\Kayla\Desktop\bach\FB_IMG_1423844867766.jpg" arWidth="720" arHeight="540" duration="0" songTitle="" songArtist="" songAlbum="" />
    <MediaItem id="100" filePath="C:\Users\Kayla\Desktop\bach\FB_IMG_1423844907036.jpg" arWidth="540" arHeight="720" duration="0" songTitle="" songArtist="" songAlbum="" />
    <MediaItem id="101" filePath="C:\Users\Kayla\Desktop\bach\FB_IMG_1423845070387.jpg" arWidth="720" arHeight="540" duration="0" songTitle="" songArtist="" songAlbum="" />
    <MediaItem id="102" filePath="C:\Users\Kayla\Desktop\bach\FB_IMG_1423845194747.jpg" arWidth="604" arHeight="453" duration="0" songTitle="" songArtist="" songAlbum="" />
    <MediaItem id="103" filePath="C:\Users\Kayla\Desktop\bach\FB_IMG_1423845223359.jpg" arWidth="543" arHeight="960" duration="0" songTitle="" songArtist="" songAlbum="" />
    <MediaItem id="104" filePath="C:\Users\Kayla\Desktop\bach\fjkhsaldkjfhalkshfasd.JPG" arWidth="480" arHeight="640" duration="0" songTitle="" songArtist="" songAlbum="" />
    <MediaItem id="105" filePath="C:\Users\Kayla\Desktop\bach\full (1).jpg" arWidth="600" arHeight="450" duration="0" songTitle="" songArtist="" songAlbum="" />
    <MediaItem id="106" filePath="C:\Users\Kayla\Desktop\bach\full (2).jpg" arWidth="523" arHeight="638" duration="0" songTitle="" songArtist="" songAlbum="" />
    <MediaItem id="107" filePath="C:\Users\Kayla\Desktop\bach\full (3).jpg" arWidth="600" arHeight="450" duration="0" songTitle="" songArtist="" songAlbum="" />
    <MediaItem id="108" filePath="C:\Users\Kayla\Desktop\bach\full (4).jpg" arWidth="600" arHeight="450" duration="0" songTitle="" songArtist="" songAlbum="" />
    <MediaItem id="109" filePath="C:\Users\Kayla\Desktop\bach\full.jpg" arWidth="600" arHeight="800" duration="0" songTitle="" songArtist="" songAlbum="" />
    <MediaItem id="110" filePath="C:\Users\Kayla\Desktop\bach\hadlfjhaslkjfdhas.JPG" arWidth="960" arHeight="720" duration="0" songTitle="" songArtist="" songAlbum="" />
    <MediaItem id="111" filePath="C:\Users\Kayla\Desktop\bach\image1.JPG" arWidth="453" arHeight="604" duration="0" songTitle="" songArtist="" songAlbum="" />
    <MediaItem id="112" filePath="C:\Users\Kayla\Desktop\bach\image2.JPG" arWidth="604" arHeight="431" duration="0" songTitle="" songArtist="" songAlbum="" />
    <MediaItem id="113" filePath="C:\Users\Kayla\Desktop\bach\image3.JPG" arWidth="960" arHeight="720" duration="0" songTitle="" songArtist="" songAlbum="" />
    <MediaItem id="114" filePath="C:\Users\Kayla\Desktop\bach\image4.JPG" arWidth="720" arHeight="540" duration="0" songTitle="" songArtist="" songAlbum="" />
    <MediaItem id="115" filePath="C:\Users\Kayla\Desktop\bach\IMG_0954.JPG" arWidth="2056" arHeight="1536" duration="0" songTitle="" songArtist="" songAlbum="" />
    <MediaItem id="116" filePath="C:\Users\Kayla\Desktop\bach\IMG_0956.JPG" arWidth="765" arHeight="1024" duration="0" songTitle="" songArtist="" songAlbum="" />
    <MediaItem id="117" filePath="C:\Users\Kayla\Desktop\bach\IMG_84509781331623.jpeg" arWidth="960" arHeight="960" duration="0" songTitle="" songArtist="" songAlbum="" />
    <MediaItem id="118" filePath="C:\Users\Kayla\Desktop\bach\IMG_84706929246079.jpeg" arWidth="273" arHeight="299" duration="0" songTitle="" songArtist="" songAlbum="" />
    <MediaItem id="119" filePath="C:\Users\Kayla\Desktop\bach\IMG_84751695490540.jpeg" arWidth="480" arHeight="480" duration="0" songTitle="" songArtist="" songAlbum="" />
    <MediaItem id="120" filePath="C:\Users\Kayla\Desktop\bach\IMG_84809678709060.jpeg" arWidth="608" arHeight="610" duration="0" songTitle="" songArtist="" songAlbum="" />
    <MediaItem id="121" filePath="C:\Users\Kayla\Desktop\bach\IMG_85588636966316.jpeg" arWidth="960" arHeight="960" duration="0" songTitle="" songArtist="" songAlbum="" />
    <MediaItem id="122" filePath="C:\Users\Kayla\Desktop\bach\jahlkjfdhalkjdshfaksjf.JPG" arWidth="720" arHeight="540" duration="0" songTitle="" songArtist="" songAlbum="" />
    <MediaItem id="123" filePath="C:\Users\Kayla\Desktop\bach\jhfljasfdljsaldjfhlaskjfkafd.JPG" arWidth="540" arHeight="720" duration="0" songTitle="" songArtist="" songAlbum="" />
    <MediaItem id="124" filePath="C:\Users\Kayla\Desktop\bach\lkjasd;fjasjfalksjfdakjsdf.JPG" arWidth="720" arHeight="960" duration="0" songTitle="" songArtist="" songAlbum="" />
    <MediaItem id="125" filePath="C:\Users\Kayla\Desktop\bach\luke bryan concert 2013.jpg" arWidth="960" arHeight="505" duration="0" songTitle="" songArtist="" songAlbum="" />
    <MediaItem id="126" filePath="C:\Users\Kayla\Desktop\bach\p2.jpg" arWidth="2048" arHeight="1536" duration="0" songTitle="" songArtist="" songAlbum="" />
    <MediaItem id="127" filePath="C:\Users\Kayla\Desktop\bach\pic.jpg" arWidth="2048" arHeight="1536" duration="0" songTitle="" songArtist="" songAlbum="" />
    <MediaItem id="128" filePath="C:\Users\Kayla\Desktop\bach\sadfasdfa.JPG" arWidth="453" arHeight="604" duration="0" songTitle="" songArtist="" songAlbum="" />
    <MediaItem id="129" filePath="C:\Users\Kayla\Desktop\bach\sadfasdfasdfasdfasdfasdfasdfasd.jpg" arWidth="360" arHeight="265" duration="0" songTitle="" songArtist="" songAlbum="" />
    <MediaItem id="130" filePath="C:\Users\Kayla\Desktop\bach\sdf.jpg" arWidth="1024" arHeight="768" duration="0" songTitle="" songArtist="" songAlbum="" />
    <MediaItem id="131" filePath="C:\Users\Kayla\Desktop\bach\sdfasdf.JPG" arWidth="720" arHeight="960" duration="0" songTitle="" songArtist="" songAlbum="" />
    <MediaItem id="132" filePath="C:\Users\Kayla\Desktop\bach\sdfasdfas.jpg" arWidth="1536" arHeight="2048" duration="0" songTitle="" songArtist="" songAlbum="" />
    <MediaItem id="133" filePath="C:\Users\Kayla\Desktop\bach\sdfasdfasdf.jpg" arWidth="600" arHeight="450" duration="0" songTitle="" songArtist="" songAlbum="" />
    <MediaItem id="134" filePath="C:\Users\Kayla\Desktop\bach\sdfasdfasdfadsfasdf.jpg" arWidth="600" arHeight="450" duration="0" songTitle="" songArtist="" songAlbum="" />
    <MediaItem id="135" filePath="C:\Users\Kayla\Desktop\bach\sdfasdfasdfasdklja;sldfa.jpg" arWidth="720" arHeight="960" duration="0" songTitle="" songArtist="" songAlbum="" />
    <MediaItem id="136" filePath="C:\Users\Kayla\Desktop\bach\skdjf;lkajsdf.JPG" arWidth="612" arHeight="612" duration="0" songTitle="" songArtist="" songAlbum="" />
    <MediaItem id="137" filePath="C:\Users\Kayla\Desktop\bach\wedding 1.jpg" arWidth="960" arHeight="720" duration="0" songTitle="" songArtist="" songAlbum="" />
    <MediaItem id="138" filePath="C:\Users\Kayla\Desktop\bach\wedding 2.jpg" arWidth="540" arHeight="720" duration="0" songTitle="" songArtist="" songAlbum="" />
    <MediaItem id="139" filePath="C:\Users\Kayla\Desktop\bach\wedding 3.jpg" arWidth="720" arHeight="540" duration="0" songTitle="" songArtist="" songAlbum="" />
    <MediaItem id="140" filePath="C:\Users\Kayla\Desktop\bach\wedding 4.jpg" arWidth="720" arHeight="699" duration="0" songTitle="" songArtist="" songAlbum="" />
    <MediaItem id="141" filePath="C:\Users\Kayla\Desktop\bach\wedding 5.jpg" arWidth="720" arHeight="540" duration="0" songTitle="" songArtist="" songAlbum="" />
    <MediaItem id="142" filePath="C:\Users\Kayla\Desktop\bach\wedding 6.jpg" arWidth="604" arHeight="453" duration="0" songTitle="" songArtist="" songAlbum="" />
    <MediaItem id="143" filePath="C:\Users\Kayla\Desktop\bach\wedding 7.jpg" arWidth="344" arHeight="355" duration="0" songTitle="" songArtist="" songAlbum="" />
    <MediaItem id="144" filePath="C:\Users\Kayla\Desktop\bach\wedding 8.jpg" arWidth="540" arHeight="720" duration="0" songTitle="" songArtist="" songAlbum="" />
    <MediaItem id="145" filePath="C:\Users\Kayla\Desktop\bach\wedding 9.jpg" arWidth="720" arHeight="540" duration="0" songTitle="" songArtist="" songAlbum="" />
    <MediaItem id="146" filePath="C:\Users\Kayla\Desktop\bach\wedding 10.jpg" arWidth="540" arHeight="720" duration="0" songTitle="" songArtist="" songAlbum="" />
    <MediaItem id="147" filePath="C:\Users\Kayla\Desktop\bach\wedding 11.jpg" arWidth="453" arHeight="604" duration="0" songTitle="" songArtist="" songAlbum="" />
    <MediaItem id="148" filePath="C:\Users\Kayla\Desktop\bach\wedding 12.jpg" arWidth="604" arHeight="453" duration="0" songTitle="" songArtist="" songAlbum="" />
    <MediaItem id="149" filePath="C:\Users\Kayla\Desktop\bach\wedding 13.jpg" arWidth="604" arHeight="453" duration="0" songTitle="" songArtist="" songAlbum="" />
    <MediaItem id="150" filePath="C:\Users\Kayla\Desktop\bach\wedding 14.jpg" arWidth="604" arHeight="453" duration="0" songTitle="" songArtist="" songAlbum="" />
    <MediaItem id="151" filePath="C:\Users\Kayla\Desktop\bach\wedding 15.jpg" arWidth="381" arHeight="604" duration="0" songTitle="" songArtist="" songAlbum="" />
    <MediaItem id="152" filePath="C:\Users\Kayla\Desktop\bach\wedding 16.jpg" arWidth="604" arHeight="453" duration="0" songTitle="" songArtist="" songAlbum="" />
    <MediaItem id="153" filePath="C:\Users\Kayla\Desktop\bach\wedding 17.jpg" arWidth="960" arHeight="928" duration="0" songTitle="" songArtist="" songAlbum="" />
    <MediaItem id="154" filePath="C:\Users\Kayla\Desktop\bach\wedding 18.jpg" arWidth="540" arHeight="960" duration="0" songTitle="" songArtist="" songAlbum="" />
    <MediaItem id="155" filePath="C:\Users\Kayla\Desktop\bach\wedding 19.jpg" arWidth="960" arHeight="720" duration="0" songTitle="" songArtist="" songAlbum="" />
    <MediaItem id="156" filePath="C:\Users\Kayla\Desktop\bach\wedding 20.jpg" arWidth="640" arHeight="960" duration="0" songTitle="" songArtist="" songAlbum="" />
    <MediaItem id="157" filePath="C:\Users\Kayla\Desktop\bach\wedding 23.jpg" arWidth="640" arHeight="480" duration="0" songTitle="" songArtist="" songAlbum="" />
    <MediaItem id="158" filePath="C:\Users\Kayla\Desktop\bach\wedding 24.jpg" arWidth="480" arHeight="640" duration="0" songTitle="" songArtist="" songAlbum="" />
    <MediaItem id="159" filePath="C:\Users\Kayla\Desktop\bach\wedding 25.jpg" arWidth="960" arHeight="720" duration="0" songTitle="" songArtist="" songAlbum="" />
    <MediaItem id="160" filePath="C:\Users\Kayla\Desktop\bach\wedding 26.jpg" arWidth="612" arHeight="612" duration="0" songTitle="" songArtist="" songAlbum="" />
    <MediaItem id="161" filePath="C:\Users\Kayla\Desktop\bach\wedding 27.jpg" arWidth="403" arHeight="428" duration="0" songTitle="" songArtist="" songAlbum="" />
    <MediaItem id="162" filePath="C:\Users\Kayla\Desktop\bach\wedding 28.jpg" arWidth="540" arHeight="720" duration="0" songTitle="" songArtist="" songAlbum="" />
  </MediaItems>
  <Extents>
    <ImageClip extentID="163" gapBefore="0" mediaItemID="159" duration="7.896860823809523">
      <Effects>
        <PanAndZoomShapeEffect effectTemplateID="PanAndZoomEffectAutomaticTemplate">
          <BoundProperties>
            <BoundPropertyFloatSet Name="center">
              <BoundPropertyFloatElement Value="-1" />
              <BoundPropertyFloatElement Value="-0.5" />
              <BoundPropertyFloatElement Value="0" />
              <BoundPropertyFloatElement Value="-0.5" />
            </BoundPropertyFloatSet>
            <BoundPropertyInt Name="effectType" Value="2" />
            <BoundPropertyFloatSet Name="scale">
              <BoundPropertyFloatElement Value="0.85000002384185791" />
              <BoundPropertyFloatElement Value="0.85000002384185791" />
              <BoundPropertyFloatElement Value="0.85000002384185791" />
              <BoundPropertyFloatElement Value="0.85000002384185791" />
            </BoundPropertyFloatSet>
          </BoundProperties>
        </PanAndZoomShapeEffect>
      </Effects>
      <Transitions>
        <ShapeEffect effectTemplateID="BlurThroughBlackTransitionTemplate" duration="1.5">
          <BoundProperties />
        </ShapeEffect>
      </Transitions>
      <BoundProperties>
        <BoundPropertyInt Name="rotateStepNinety" Value="0" />
      </BoundProperties>
    </ImageClip>
    <ImageClip extentID="164" gapBefore="0" mediaItemID="160" duration="7.896860823809523">
      <Effects>
        <PanAndZoomShapeEffect effectTemplateID="PanAndZoomEffectAutomaticTemplate">
          <BoundProperties>
            <BoundPropertyFloatSet Name="center">
              <BoundPropertyFloatElement Value="-0.5" />
              <BoundPropertyFloatElement Value="-0.5" />
              <BoundPropertyFloatElement Value="-0.5" />
              <BoundPropertyFloatElement Value="-0.5" />
            </BoundPropertyFloatSet>
            <BoundPropertyInt Name="effectType" Value="6" />
            <BoundPropertyFloatSet Name="scale">
              <BoundPropertyFloatElement Value="0.85000002384185791" />
              <BoundPropertyFloatElement Value="0.85000002384185791" />
              <BoundPropertyFloatElement Value="1" />
              <BoundPropertyFloatElement Value="1" />
            </BoundPropertyFloatSet>
          </BoundProperties>
        </PanAndZoomShapeEffect>
      </Effects>
      <Transitions>
        <ShapeEffect effectTemplateID="BlurThroughBlackTransitionTemplate" duration="1.5">
          <BoundProperties />
        </ShapeEffect>
      </Transitions>
      <BoundProperties>
        <BoundPropertyInt Name="rotateStepNinety" Value="0" />
      </BoundProperties>
    </ImageClip>
    <ImageClip extentID="165" gapBefore="0" mediaItemID="161" duration="7.896860823809523">
      <Effects>
        <PanAndZoomShapeEffect effectTemplateID="PanAndZoomEffectAutomaticTemplate">
          <BoundProperties>
            <BoundPropertyFloatSet Name="center">
              <BoundPropertyFloatElement Value="-0.5" />
              <BoundPropertyFloatElement Value="-1" />
              <BoundPropertyFloatElement Value="-0.5" />
              <BoundPropertyFloatElement Value="0" />
            </BoundPropertyFloatSet>
            <BoundPropertyInt Name="effectType" Value="3" />
            <BoundPropertyFloatSet Name="scale">
              <BoundPropertyFloatElement Value="0.85000002384185791" />
              <BoundPropertyFloatElement Value="0.85000002384185791" />
              <BoundPropertyFloatElement Value="0.85000002384185791" />
              <BoundPropertyFloatElement Value="0.85000002384185791" />
            </BoundPropertyFloatSet>
          </BoundProperties>
        </PanAndZoomShapeEffect>
      </Effects>
      <Transitions>
        <ShapeEffect effectTemplateID="BlurThroughBlackTransitionTemplate" duration="1.5">
          <BoundProperties />
        </ShapeEffect>
      </Transitions>
      <BoundProperties>
        <BoundPropertyInt Name="rotateStepNinety" Value="0" />
      </BoundProperties>
    </ImageClip>
    <ImageClip extentID="166" gapBefore="0" mediaItemID="162" duration="7.896860823809523">
      <Effects>
        <PanAndZoomShapeEffect effectTemplateID="PanAndZoomEffectAutomaticTemplate">
          <BoundProperties>
            <BoundPropertyFloatSet Name="center">
              <BoundPropertyFloatElement Value="-0.5" />
              <BoundPropertyFloatElement Value="0" />
              <BoundPropertyFloatElement Value="-0.5" />
              <BoundPropertyFloatElement Value="-1" />
            </BoundPropertyFloatSet>
            <BoundPropertyInt Name="effectType" Value="4" />
            <BoundPropertyFloatSet Name="scale">
              <BoundPropertyFloatElement Value="0.85000002384185791" />
              <BoundPropertyFloatElement Value="0.85000002384185791" />
              <BoundPropertyFloatElement Value="0.85000002384185791" />
              <BoundPropertyFloatElement Value="0.85000002384185791" />
            </BoundPropertyFloatSet>
          </BoundProperties>
        </PanAndZoomShapeEffect>
      </Effects>
      <Transitions>
        <ShapeEffect effectTemplateID="BlurThroughBlackTransitionTemplate" duration="1.5">
          <BoundProperties />
        </ShapeEffect>
      </Transitions>
      <BoundProperties>
        <BoundPropertyInt Name="rotateStepNinety" Value="0" />
      </BoundProperties>
    </ImageClip>
    <ImageClip extentID="167" gapBefore="0" mediaItemID="163" duration="7.896860823809523">
      <Effects>
        <PanAndZoomShapeEffect effectTemplateID="PanAndZoomEffectAutomaticTemplate">
          <BoundProperties>
            <BoundPropertyFloatSet Name="center">
              <BoundPropertyFloatElement Value="0" />
              <BoundPropertyFloatElement Value="-1" />
              <BoundPropertyFloatElement Value="0" />
              <BoundPropertyFloatElement Value="-1" />
            </BoundPropertyFloatSet>
            <BoundPropertyInt Name="effectType" Value="5" />
            <BoundPropertyFloatSet Name="scale">
              <BoundPropertyFloatElement Value="1" />
              <BoundPropertyFloatElement Value="1" />
              <BoundPropertyFloatElement Value="0.85000002384185791" />
              <BoundPropertyFloatElement Value="0.85000002384185791" />
            </BoundPropertyFloatSet>
          </BoundProperties>
        </PanAndZoomShapeEffect>
      </Effects>
      <Transitions>
        <ShapeEffect effectTemplateID="BlurThroughBlackTransitionTemplate" duration="1.5">
          <BoundProperties />
        </ShapeEffect>
      </Transitions>
      <BoundProperties>
        <BoundPropertyInt Name="rotateStepNinety" Value="0" />
      </BoundProperties>
    </ImageClip>
    <AudioClip extentID="168" gapBefore="0" mediaItemID="168" inTime="0" outTime="0" speed="1">
      <Effects />
      <Transitions />
      <BoundProperties>
        <BoundPropertyBool Name="Mute" Value="false" />
        <BoundPropertyFloat Name="Volume" Value="1" />
      </BoundProperties>
    </AudioClip>
    <ImageClip extentID="5" gapBefore="0" mediaItemID="1" duration="7.896860823809523">
      <Effects>
        <PanAndZoomShapeEffect effectTemplateID="PanAndZoomEffectAutomaticTemplate">
          <BoundProperties>
            <BoundPropertyFloatSet Name="center">
              <BoundPropertyFloatElement Value="-0.5" />
              <BoundPropertyFloatElement Value="-1" />
              <BoundPropertyFloatElement Value="-0.5" />
              <BoundPropertyFloatElement Value="-1" />
            </BoundPropertyFloatSet>
            <BoundPropertyInt Name="effectType" Value="5" />
            <BoundPropertyFloatSet Name="scale">
              <BoundPropertyFloatElement Value="1" />
              <BoundPropertyFloatElement Value="1" />
              <BoundPropertyFloatElement Value="0.85000002384185791" />
              <BoundPropertyFloatElement Value="0.85000002384185791" />
            </BoundPropertyFloatSet>
          </BoundProperties>
        </PanAndZoomShapeEffect>
      </Effects>
      <Transitions>
        <ShapeEffect effectTemplateID="BlurThroughBlackTransitionTemplate" duration="1.5">
          <BoundProperties />
        </ShapeEffect>
      </Transitions>
      <BoundProperties>
        <BoundPropertyInt Name="rotateStepNinety" Value="0" />
      </BoundProperties>
    </ImageClip>
    <AudioClip extentID="169" gapBefore="0" mediaItemID="170" inTime="0" outTime="0" speed="1">
      <Effects />
      <Transitions />
      <BoundProperties>
        <BoundPropertyBool Name="Mute" Value="false" />
        <BoundPropertyFloat Name="Volume" Value="1" />
      </BoundProperties>
    </AudioClip>
    <ImageClip extentID="6" gapBefore="0" mediaItemID="2" duration="7.896860823809523">
      <Effects>
        <PanAndZoomShapeEffect effectTemplateID="PanAndZoomEffectAutomaticTemplate">
          <BoundProperties>
            <BoundPropertyFloatSet Name="center">
              <BoundPropertyFloatElement Value="-0.5" />
              <BoundPropertyFloatElement Value="-1" />
              <BoundPropertyFloatElement Value="-0.5" />
              <BoundPropertyFloatElement Value="0" />
            </BoundPropertyFloatSet>
            <BoundPropertyInt Name="effectType" Value="3" />
            <BoundPropertyFloatSet Name="scale">
              <BoundPropertyFloatElement Value="0.85000002384185791" />
              <BoundPropertyFloatElement Value="0.85000002384185791" />
              <BoundPropertyFloatElement Value="0.85000002384185791" />
              <BoundPropertyFloatElement Value="0.85000002384185791" />
            </BoundPropertyFloatSet>
          </BoundProperties>
        </PanAndZoomShapeEffect>
      </Effects>
      <Transitions>
        <ShapeEffect effectTemplateID="BlurThroughBlackTransitionTemplate" duration="1.5">
          <BoundProperties />
        </ShapeEffect>
      </Transitions>
      <BoundProperties>
        <BoundPropertyInt Name="rotateStepNinety" Value="0" />
      </BoundProperties>
    </ImageClip>
    <ImageClip extentID="7" gapBefore="0" mediaItemID="3" duration="7.896860823809523">
      <Effects>
        <PanAndZoomShapeEffect effectTemplateID="PanAndZoomEffectAutomaticTemplate">
          <BoundProperties>
            <BoundPropertyFloatSet Name="center">
              <BoundPropertyFloatElement Value="-1" />
              <BoundPropertyFloatElement Value="-1" />
              <BoundPropertyFloatElement Value="-1" />
              <BoundPropertyFloatElement Value="-1" />
            </BoundPropertyFloatSet>
            <BoundPropertyInt Name="effectType" Value="5" />
            <BoundPropertyFloatSet Name="scale">
              <BoundPropertyFloatElement Value="1" />
              <BoundPropertyFloatElement Value="1" />
              <BoundPropertyFloatElement Value="0.85000002384185791" />
              <BoundPropertyFloatElement Value="0.85000002384185791" />
            </BoundPropertyFloatSet>
          </BoundProperties>
        </PanAndZoomShapeEffect>
      </Effects>
      <Transitions>
        <ShapeEffect effectTemplateID="BlurThroughBlackTransitionTemplate" duration="1.5">
          <BoundProperties />
        </ShapeEffect>
      </Transitions>
      <BoundProperties>
        <BoundPropertyInt Name="rotateStepNinety" Value="0" />
      </BoundProperties>
    </ImageClip>
    <AudioClip extentID="171" gapBefore="0" mediaItemID="172" inTime="0" outTime="0" speed="1">
      <Effects />
      <Transitions />
      <BoundProperties>
        <BoundPropertyBool Name="Mute" Value="false" />
        <BoundPropertyFloat Name="Volume" Value="1" />
      </BoundProperties>
    </AudioClip>
    <ImageClip extentID="8" gapBefore="0" mediaItemID="4" duration="7.896860823809523">
      <Effects>
        <PanAndZoomShapeEffect effectTemplateID="PanAndZoomEffectAutomaticTemplate">
          <BoundProperties>
            <BoundPropertyFloatSet Name="center">
              <BoundPropertyFloatElement Value="0" />
              <BoundPropertyFloatElement Value="-0.5" />
              <BoundPropertyFloatElement Value="-1" />
              <BoundPropertyFloatElement Value="-0.5" />
            </BoundPropertyFloatSet>
            <BoundPropertyInt Name="effectType" Value="1" />
            <BoundPropertyFloatSet Name="scale">
              <BoundPropertyFloatElement Value="0.85000002384185791" />
              <BoundPropertyFloatElement Value="0.85000002384185791" />
              <BoundPropertyFloatElement Value="0.85000002384185791" />
              <BoundPropertyFloatElement Value="0.85000002384185791" />
            </BoundPropertyFloatSet>
          </BoundProperties>
        </PanAndZoomShapeEffect>
      </Effects>
      <Transitions>
        <ShapeEffect effectTemplateID="BlurThroughBlackTransitionTemplate" duration="1.5">
          <BoundProperties />
        </ShapeEffect>
      </Transitions>
      <BoundProperties>
        <BoundPropertyInt Name="rotateStepNinety" Value="0" />
      </BoundProperties>
    </ImageClip>
    <AudioClip extentID="172" gapBefore="0" mediaItemID="173" inTime="0" outTime="0" speed="1">
      <Effects />
      <Transitions />
      <BoundProperties>
        <BoundPropertyBool Name="Mute" Value="false" />
        <BoundPropertyFloat Name="Volume" Value="1" />
      </BoundProperties>
    </AudioClip>
    <ImageClip extentID="9" gapBefore="0" mediaItemID="5" duration="7.896860823809523">
      <Effects>
        <PanAndZoomShapeEffect effectTemplateID="PanAndZoomEffectAutomaticTemplate">
          <BoundProperties>
            <BoundPropertyFloatSet Name="center">
              <BoundPropertyFloatElement Value="-0.5" />
              <BoundPropertyFloatElement Value="0" />
              <BoundPropertyFloatElement Value="-0.5" />
              <BoundPropertyFloatElement Value="-1" />
            </BoundPropertyFloatSet>
            <BoundPropertyInt Name="effectType" Value="4" />
            <BoundPropertyFloatSet Name="scale">
              <BoundPropertyFloatElement Value="0.85000002384185791" />
              <BoundPropertyFloatElement Value="0.85000002384185791" />
              <BoundPropertyFloatElement Value="0.85000002384185791" />
              <BoundPropertyFloatElement Value="0.85000002384185791" />
            </BoundPropertyFloatSet>
          </BoundProperties>
        </PanAndZoomShapeEffect>
      </Effects>
      <Transitions>
        <ShapeEffect effectTemplateID="BlurThroughBlackTransitionTemplate" duration="1.5">
          <BoundProperties />
        </ShapeEffect>
      </Transitions>
      <BoundProperties>
        <BoundPropertyInt Name="rotateStepNinety" Value="0" />
      </BoundProperties>
    </ImageClip>
    <ImageClip extentID="10" gapBefore="0" mediaItemID="6" duration="7.896860823809523">
      <Effects>
        <PanAndZoomShapeEffect effectTemplateID="PanAndZoomEffectAutomaticTemplate">
          <BoundProperties>
            <BoundPropertyFloatSet Name="center">
              <BoundPropertyFloatElement Value="-0.5" />
              <BoundPropertyFloatElement Value="-0.5" />
              <BoundPropertyFloatElement Value="-0.5" />
              <BoundPropertyFloatElement Value="-0.5" />
            </BoundPropertyFloatSet>
            <BoundPropertyInt Name="effectType" Value="5" />
            <BoundPropertyFloatSet Name="scale">
              <BoundPropertyFloatElement Value="1" />
              <BoundPropertyFloatElement Value="1" />
              <BoundPropertyFloatElement Value="0.85000002384185791" />
              <BoundPropertyFloatElement Value="0.85000002384185791" />
            </BoundPropertyFloatSet>
          </BoundProperties>
        </PanAndZoomShapeEffect>
      </Effects>
      <Transitions>
        <ShapeEffect effectTemplateID="BlurThroughBlackTransitionTemplate" duration="1.5">
          <BoundProperties />
        </ShapeEffect>
      </Transitions>
      <BoundProperties>
        <BoundPropertyInt Name="rotateStepNinety" Value="0" />
      </BoundProperties>
    </ImageClip>
    <ImageClip extentID="11" gapBefore="0" mediaItemID="7" duration="7.896860823809523">
      <Effects>
        <PanAndZoomShapeEffect effectTemplateID="PanAndZoomEffectAutomaticTemplate">
          <BoundProperties>
            <BoundPropertyFloatSet Name="center">
              <BoundPropertyFloatElement Value="0" />
              <BoundPropertyFloatElement Value="-0.5" />
              <BoundPropertyFloatElement Value="-1" />
              <BoundPropertyFloatElement Value="-0.5" />
            </BoundPropertyFloatSet>
            <BoundPropertyInt Name="effectType" Value="1" />
            <BoundPropertyFloatSet Name="scale">
              <BoundPropertyFloatElement Value="0.85000002384185791" />
              <BoundPropertyFloatElement Value="0.85000002384185791" />
              <BoundPropertyFloatElement Value="0.85000002384185791" />
              <BoundPropertyFloatElement Value="0.85000002384185791" />
            </BoundPropertyFloatSet>
          </BoundProperties>
        </PanAndZoomShapeEffect>
      </Effects>
      <Transitions>
        <ShapeEffect effectTemplateID="BlurThroughBlackTransitionTemplate" duration="1.5">
          <BoundProperties />
        </ShapeEffect>
      </Transitions>
      <BoundProperties>
        <BoundPropertyInt Name="rotateStepNinety" Value="0" />
      </BoundProperties>
    </ImageClip>
    <TitleClip extentID="175" gapBefore="0.13020914955234542" duration="12.5">
      <Effects>
        <TextEffect effectTemplateID="TextEffectScrollTemplate" TextScriptId="7">
          <BoundProperties>
            <BoundPropertyBool Name="automatic" Value="false" />
            <BoundPropertyFloatSet Name="color">
              <BoundPropertyFloatElement Value="1" />
              <BoundPropertyFloatElement Value="1" />
              <BoundPropertyFloatElement Value="1" />
            </BoundPropertyFloatSet>
            <BoundPropertyStringSet Name="family">
              <BoundPropertyStringElement Value="Segoe Script" />
            </BoundPropertyStringSet>
            <BoundPropertyBool Name="horizontal" Value="true" />
            <BoundPropertyStringSet Name="justify">
              <BoundPropertyStringElement Value="MIDDLE" />
            </BoundPropertyStringSet>
            <BoundPropertyFloatSet Name="length" />
            <BoundPropertyFloat Name="maxExtent" Value="0" />
            <BoundPropertyFloatSet Name="position">
              <BoundPropertyFloatElement Value="0.24454164505004883" />
              <BoundPropertyFloatElement Value="2.8255813121795654" />
              <BoundPropertyFloatElement Value="0.02500000037252903" />
            </BoundPropertyFloatSet>
            <BoundPropertyFloat Name="size" Value="0.46666666865348816" />
            <BoundPropertyStringSet Name="string">
              <BoundPropertyStringElement Value="Here's to a weekend full " />
              <BoundPropertyStringElement Value="of fun, excitment, and " />
              <BoundPropertyStringElement Value="making memories." />
              <BoundPropertyStringElement Value="" />
              <BoundPropertyStringElement Value="" />
              <BoundPropertyStringElement Value="" />
              <BoundPropertyStringElement Value=" WE LOVE YOU BEE" />
            </BoundPropertyStringSet>
            <BoundPropertyString Name="style" Value="Plain" />
            <BoundPropertyFloat Name="transparency" Value="0" />
          </BoundProperties>
        </TextEffect>
      </Effects>
      <Transitions />
      <BoundProperties>
        <BoundPropertyFloatSet Name="diffuseColor">
          <BoundPropertyFloatElement Value="0.75" />
          <BoundPropertyFloatElement Value="1" />
          <BoundPropertyFloatElement Value="0" />
        </BoundPropertyFloatSet>
        <BoundPropertyFloat Name="transparency" Value="1" />
      </BoundProperties>
    </TitleClip>
    <ImageClip extentID="12" gapBefore="0" mediaItemID="8" duration="7.896860823809523">
      <Effects>
        <PanAndZoomShapeEffect effectTemplateID="PanAndZoomEffectAutomaticTemplate">
          <BoundProperties>
            <BoundPropertyFloatSet Name="center">
              <BoundPropertyFloatElement Value="-0.5" />
              <BoundPropertyFloatElement Value="-0.5" />
              <BoundPropertyFloatElement Value="-0.5" />
              <BoundPropertyFloatElement Value="-0.5" />
            </BoundPropertyFloatSet>
            <BoundPropertyInt Name="effectType" Value="6" />
            <BoundPropertyFloatSet Name="scale">
              <BoundPropertyFloatElement Value="0.85000002384185791" />
              <BoundPropertyFloatElement Value="0.85000002384185791" />
              <BoundPropertyFloatElement Value="1" />
              <BoundPropertyFloatElement Value="1" />
            </BoundPropertyFloatSet>
          </BoundProperties>
        </PanAndZoomShapeEffect>
      </Effects>
      <Transitions>
        <ShapeEffect effectTemplateID="BlurThroughBlackTransitionTemplate" duration="1.5">
          <BoundProperties />
        </ShapeEffect>
      </Transitions>
      <BoundProperties>
        <BoundPropertyInt Name="rotateStepNinety" Value="0" />
      </BoundProperties>
    </ImageClip>
    <ImageClip extentID="13" gapBefore="0" mediaItemID="9" duration="7.896860823809523">
      <Effects>
        <PanAndZoomShapeEffect effectTemplateID="PanAndZoomEffectAutomaticTemplate">
          <BoundProperties>
            <BoundPropertyFloatSet Name="center">
              <BoundPropertyFloatElement Value="-1" />
              <BoundPropertyFloatElement Value="-0.5" />
              <BoundPropertyFloatElement Value="-1" />
              <BoundPropertyFloatElement Value="-0.5" />
            </BoundPropertyFloatSet>
            <BoundPropertyInt Name="effectType" Value="6" />
            <BoundPropertyFloatSet Name="scale">
              <BoundPropertyFloatElement Value="0.85000002384185791" />
              <BoundPropertyFloatElement Value="0.85000002384185791" />
              <BoundPropertyFloatElement Value="1" />
              <BoundPropertyFloatElement Value="1" />
            </BoundPropertyFloatSet>
          </BoundProperties>
        </PanAndZoomShapeEffect>
      </Effects>
      <Transitions>
        <ShapeEffect effectTemplateID="BlurThroughBlackTransitionTemplate" duration="1.5">
          <BoundProperties />
        </ShapeEffect>
      </Transitions>
      <BoundProperties>
        <BoundPropertyInt Name="rotateStepNinety" Value="0" />
      </BoundProperties>
    </ImageClip>
    <ImageClip extentID="14" gapBefore="0" mediaItemID="10" duration="7.896860823809523">
      <Effects>
        <PanAndZoomShapeEffect effectTemplateID="PanAndZoomEffectAutomaticTemplate">
          <BoundProperties>
            <BoundPropertyFloatSet Name="center">
              <BoundPropertyFloatElement Value="-0.5" />
              <BoundPropertyFloatElement Value="-0.5" />
              <BoundPropertyFloatElement Value="-0.5" />
              <BoundPropertyFloatElement Value="-0.5" />
            </BoundPropertyFloatSet>
            <BoundPropertyInt Name="effectType" Value="5" />
            <BoundPropertyFloatSet Name="scale">
              <BoundPropertyFloatElement Value="1" />
              <BoundPropertyFloatElement Value="1" />
              <BoundPropertyFloatElement Value="0.85000002384185791" />
              <BoundPropertyFloatElement Value="0.85000002384185791" />
            </BoundPropertyFloatSet>
          </BoundProperties>
        </PanAndZoomShapeEffect>
      </Effects>
      <Transitions>
        <ShapeEffect effectTemplateID="BlurThroughBlackTransitionTemplate" duration="1.5">
          <BoundProperties />
        </ShapeEffect>
      </Transitions>
      <BoundProperties>
        <BoundPropertyInt Name="rotateStepNinety" Value="0" />
      </BoundProperties>
    </ImageClip>
    <AudioClip extentID="178" gapBefore="0" mediaItemID="169" inTime="6.757147980952027" outTime="201.76979589999999" speed="1">
      <Effects />
      <Transitions />
      <BoundProperties>
        <BoundPropertyBool Name="Mute" Value="false" />
        <BoundPropertyFloat Name="Volume" Value="1" />
      </BoundProperties>
    </AudioClip>
    <ImageClip extentID="15" gapBefore="0" mediaItemID="11" duration="7.896860823809523">
      <Effects>
        <PanAndZoomShapeEffect effectTemplateID="PanAndZoomEffectAutomaticTemplate">
          <BoundProperties>
            <BoundPropertyFloatSet Name="center">
              <BoundPropertyFloatElement Value="-0.5" />
              <BoundPropertyFloatElement Value="-0.5" />
              <BoundPropertyFloatElement Value="-0.5" />
              <BoundPropertyFloatElement Value="-0.5" />
            </BoundPropertyFloatSet>
            <BoundPropertyInt Name="effectType" Value="6" />
            <BoundPropertyFloatSet Name="scale">
              <BoundPropertyFloatElement Value="0.85000002384185791" />
              <BoundPropertyFloatElement Value="0.85000002384185791" />
              <BoundPropertyFloatElement Value="1" />
              <BoundPropertyFloatElement Value="1" />
            </BoundPropertyFloatSet>
          </BoundProperties>
        </PanAndZoomShapeEffect>
      </Effects>
      <Transitions>
        <ShapeEffect effectTemplateID="BlurThroughBlackTransitionTemplate" duration="1.5">
          <BoundProperties />
        </ShapeEffect>
      </Transitions>
      <BoundProperties>
        <BoundPropertyInt Name="rotateStepNinety" Value="0" />
      </BoundProperties>
    </ImageClip>
    <ImageClip extentID="16" gapBefore="0" mediaItemID="12" duration="7.896860823809523">
      <Effects>
        <PanAndZoomShapeEffect effectTemplateID="PanAndZoomEffectAutomaticTemplate">
          <BoundProperties>
            <BoundPropertyFloatSet Name="center">
              <BoundPropertyFloatElement Value="-0.5" />
              <BoundPropertyFloatElement Value="-0.5" />
              <BoundPropertyFloatElement Value="-0.5" />
              <BoundPropertyFloatElement Value="-0.5" />
            </BoundPropertyFloatSet>
            <BoundPropertyInt Name="effectType" Value="5" />
            <BoundPropertyFloatSet Name="scale">
              <BoundPropertyFloatElement Value="1" />
              <BoundPropertyFloatElement Value="1" />
              <BoundPropertyFloatElement Value="0.85000002384185791" />
              <BoundPropertyFloatElement Value="0.85000002384185791" />
            </BoundPropertyFloatSet>
          </BoundProperties>
        </PanAndZoomShapeEffect>
      </Effects>
      <Transitions>
        <ShapeEffect effectTemplateID="BlurThroughBlackTransitionTemplate" duration="1.5">
          <BoundProperties />
        </ShapeEffect>
      </Transitions>
      <BoundProperties>
        <BoundPropertyInt Name="rotateStepNinety" Value="0" />
      </BoundProperties>
    </ImageClip>
    <ImageClip extentID="180" gapBefore="0" mediaItemID="164" duration="7.896860823809523">
      <Effects>
        <PanAndZoomShapeEffect effectTemplateID="PanAndZoomEffectAutomaticTemplate">
          <BoundProperties>
            <BoundPropertyFloatSet Name="center">
              <BoundPropertyFloatElement Value="-0.5" />
              <BoundPropertyFloatElement Value="0" />
              <BoundPropertyFloatElement Value="-0.5" />
              <BoundPropertyFloatElement Value="-1" />
            </BoundPropertyFloatSet>
            <BoundPropertyInt Name="effectType" Value="4" />
            <BoundPropertyFloatSet Name="scale">
              <BoundPropertyFloatElement Value="0.85000002384185791" />
              <BoundPropertyFloatElement Value="0.85000002384185791" />
              <BoundPropertyFloatElement Value="0.85000002384185791" />
              <BoundPropertyFloatElement Value="0.85000002384185791" />
            </BoundPropertyFloatSet>
          </BoundProperties>
        </PanAndZoomShapeEffect>
      </Effects>
      <Transitions>
        <ShapeEffect effectTemplateID="BlurThroughBlackTransitionTemplate" duration="1.5">
          <BoundProperties />
        </ShapeEffect>
      </Transitions>
      <BoundProperties>
        <BoundPropertyInt Name="rotateStepNinety" Value="1" />
      </BoundProperties>
    </ImageClip>
    <ImageClip extentID="17" gapBefore="0" mediaItemID="13" duration="7.896860823809523">
      <Effects>
        <PanAndZoomShapeEffect effectTemplateID="PanAndZoomEffectAutomaticTemplate">
          <BoundProperties>
            <BoundPropertyFloatSet Name="center">
              <BoundPropertyFloatElement Value="-0.5" />
              <BoundPropertyFloatElement Value="-1" />
              <BoundPropertyFloatElement Value="-0.5" />
              <BoundPropertyFloatElement Value="0" />
            </BoundPropertyFloatSet>
            <BoundPropertyInt Name="effectType" Value="3" />
            <BoundPropertyFloatSet Name="scale">
              <BoundPropertyFloatElement Value="0.85000002384185791" />
              <BoundPropertyFloatElement Value="0.85000002384185791" />
              <BoundPropertyFloatElement Value="0.85000002384185791" />
              <BoundPropertyFloatElement Value="0.85000002384185791" />
            </BoundPropertyFloatSet>
          </BoundProperties>
        </PanAndZoomShapeEffect>
      </Effects>
      <Transitions>
        <ShapeEffect effectTemplateID="BlurThroughBlackTransitionTemplate" duration="1.5">
          <BoundProperties />
        </ShapeEffect>
      </Transitions>
      <BoundProperties>
        <BoundPropertyInt Name="rotateStepNinety" Value="0" />
      </BoundProperties>
    </ImageClip>
    <ImageClip extentID="181" gapBefore="0" mediaItemID="165" duration="7.896860823809523">
      <Effects>
        <PanAndZoomShapeEffect effectTemplateID="PanAndZoomEffectAutomaticTemplate">
          <BoundProperties>
            <BoundPropertyFloatSet Name="center">
              <BoundPropertyFloatElement Value="-1" />
              <BoundPropertyFloatElement Value="-0.5" />
              <BoundPropertyFloatElement Value="0" />
              <BoundPropertyFloatElement Value="-0.5" />
            </BoundPropertyFloatSet>
            <BoundPropertyInt Name="effectType" Value="2" />
            <BoundPropertyFloatSet Name="scale">
              <BoundPropertyFloatElement Value="0.85000002384185791" />
              <BoundPropertyFloatElement Value="0.85000002384185791" />
              <BoundPropertyFloatElement Value="0.85000002384185791" />
              <BoundPropertyFloatElement Value="0.85000002384185791" />
            </BoundPropertyFloatSet>
          </BoundProperties>
        </PanAndZoomShapeEffect>
      </Effects>
      <Transitions>
        <ShapeEffect effectTemplateID="BlurThroughBlackTransitionTemplate" duration="1.5">
          <BoundProperties />
        </ShapeEffect>
      </Transitions>
      <BoundProperties>
        <BoundPropertyInt Name="rotateStepNinety" Value="0" />
      </BoundProperties>
    </ImageClip>
    <ImageClip extentID="18" gapBefore="0" mediaItemID="14" duration="7.896860823809523">
      <Effects>
        <PanAndZoomShapeEffect effectTemplateID="PanAndZoomEffectAutomaticTemplate">
          <BoundProperties>
            <BoundPropertyFloatSet Name="center">
              <BoundPropertyFloatElement Value="-0.5" />
              <BoundPropertyFloatElement Value="-0.5" />
              <BoundPropertyFloatElement Value="-0.5" />
              <BoundPropertyFloatElement Value="-0.5" />
            </BoundPropertyFloatSet>
            <BoundPropertyInt Name="effectType" Value="6" />
            <BoundPropertyFloatSet Name="scale">
              <BoundPropertyFloatElement Value="0.85000002384185791" />
              <BoundPropertyFloatElement Value="0.85000002384185791" />
              <BoundPropertyFloatElement Value="1" />
              <BoundPropertyFloatElement Value="1" />
            </BoundPropertyFloatSet>
          </BoundProperties>
        </PanAndZoomShapeEffect>
      </Effects>
      <Transitions>
        <ShapeEffect effectTemplateID="BlurThroughBlackTransitionTemplate" duration="1.5">
          <BoundProperties />
        </ShapeEffect>
      </Transitions>
      <BoundProperties>
        <BoundPropertyInt Name="rotateStepNinety" Value="0" />
      </BoundProperties>
    </ImageClip>
    <ImageClip extentID="182" gapBefore="0" mediaItemID="166" duration="7.896860823809523">
      <Effects>
        <PanAndZoomShapeEffect effectTemplateID="PanAndZoomEffectAutomaticTemplate">
          <BoundProperties>
            <BoundPropertyFloatSet Name="center">
              <BoundPropertyFloatElement Value="0" />
              <BoundPropertyFloatElement Value="-1" />
              <BoundPropertyFloatElement Value="0" />
              <BoundPropertyFloatElement Value="-1" />
            </BoundPropertyFloatSet>
            <BoundPropertyInt Name="effectType" Value="5" />
            <BoundPropertyFloatSet Name="scale">
              <BoundPropertyFloatElement Value="1" />
              <BoundPropertyFloatElement Value="1" />
              <BoundPropertyFloatElement Value="0.85000002384185791" />
              <BoundPropertyFloatElement Value="0.85000002384185791" />
            </BoundPropertyFloatSet>
          </BoundProperties>
        </PanAndZoomShapeEffect>
      </Effects>
      <Transitions>
        <ShapeEffect effectTemplateID="BlurThroughBlackTransitionTemplate" duration="1.5">
          <BoundProperties />
        </ShapeEffect>
      </Transitions>
      <BoundProperties>
        <BoundPropertyInt Name="rotateStepNinety" Value="0" />
      </BoundProperties>
    </ImageClip>
    <ImageClip extentID="19" gapBefore="0" mediaItemID="15" duration="7.896860823809523">
      <Effects>
        <PanAndZoomShapeEffect effectTemplateID="PanAndZoomEffectAutomaticTemplate">
          <BoundProperties>
            <BoundPropertyFloatSet Name="center">
              <BoundPropertyFloatElement Value="-0.5" />
              <BoundPropertyFloatElement Value="-0.5" />
              <BoundPropertyFloatElement Value="-0.5" />
              <BoundPropertyFloatElement Value="-0.5" />
            </BoundPropertyFloatSet>
            <BoundPropertyInt Name="effectType" Value="5" />
            <BoundPropertyFloatSet Name="scale">
              <BoundPropertyFloatElement Value="1" />
              <BoundPropertyFloatElement Value="1" />
              <BoundPropertyFloatElement Value="0.85000002384185791" />
              <BoundPropertyFloatElement Value="0.85000002384185791" />
            </BoundPropertyFloatSet>
          </BoundProperties>
        </PanAndZoomShapeEffect>
      </Effects>
      <Transitions>
        <ShapeEffect effectTemplateID="BlurThroughBlackTransitionTemplate" duration="1.5">
          <BoundProperties />
        </ShapeEffect>
      </Transitions>
      <BoundProperties>
        <BoundPropertyInt Name="rotateStepNinety" Value="0" />
      </BoundProperties>
    </ImageClip>
    <ImageClip extentID="183" gapBefore="0" mediaItemID="167" duration="7.896860823809523">
      <Effects>
        <PanAndZoomShapeEffect effectTemplateID="PanAndZoomEffectAutomaticTemplate">
          <BoundProperties>
            <BoundPropertyFloatSet Name="center">
              <BoundPropertyFloatElement Value="-1" />
              <BoundPropertyFloatElement Value="-0.5" />
              <BoundPropertyFloatElement Value="-1" />
              <BoundPropertyFloatElement Value="-0.5" />
            </BoundPropertyFloatSet>
            <BoundPropertyInt Name="effectType" Value="6" />
            <BoundPropertyFloatSet Name="scale">
              <BoundPropertyFloatElement Value="0.85000002384185791" />
              <BoundPropertyFloatElement Value="0.85000002384185791" />
              <BoundPropertyFloatElement Value="1" />
              <BoundPropertyFloatElement Value="1" />
            </BoundPropertyFloatSet>
          </BoundProperties>
        </PanAndZoomShapeEffect>
      </Effects>
      <Transitions>
        <ShapeEffect effectTemplateID="BlurThroughBlackTransitionTemplate" duration="1.5">
          <BoundProperties />
        </ShapeEffect>
      </Transitions>
      <BoundProperties>
        <BoundPropertyInt Name="rotateStepNinety" Value="0" />
      </BoundProperties>
    </ImageClip>
    <ImageClip extentID="20" gapBefore="0" mediaItemID="16" duration="7.896860823809523">
      <Effects>
        <PanAndZoomShapeEffect effectTemplateID="PanAndZoomEffectAutomaticTemplate">
          <BoundProperties>
            <BoundPropertyFloatSet Name="center">
              <BoundPropertyFloatElement Value="-0.5" />
              <BoundPropertyFloatElement Value="-1" />
              <BoundPropertyFloatElement Value="-0.5" />
              <BoundPropertyFloatElement Value="0" />
            </BoundPropertyFloatSet>
            <BoundPropertyInt Name="effectType" Value="3" />
            <BoundPropertyFloatSet Name="scale">
              <BoundPropertyFloatElement Value="0.85000002384185791" />
              <BoundPropertyFloatElement Value="0.85000002384185791" />
              <BoundPropertyFloatElement Value="0.85000002384185791" />
              <BoundPropertyFloatElement Value="0.85000002384185791" />
            </BoundPropertyFloatSet>
          </BoundProperties>
        </PanAndZoomShapeEffect>
      </Effects>
      <Transitions>
        <ShapeEffect effectTemplateID="BlurThroughBlackTransitionTemplate" duration="1.5">
          <BoundProperties />
        </ShapeEffect>
      </Transitions>
      <BoundProperties>
        <BoundPropertyInt Name="rotateStepNinety" Value="0" />
      </BoundProperties>
    </ImageClip>
    <ImageClip extentID="21" gapBefore="0" mediaItemID="17" duration="7.896860823809523">
      <Effects>
        <PanAndZoomShapeEffect effectTemplateID="PanAndZoomEffectAutomaticTemplate">
          <BoundProperties>
            <BoundPropertyFloatSet Name="center">
              <BoundPropertyFloatElement Value="-0.5" />
              <BoundPropertyFloatElement Value="-0.5" />
              <BoundPropertyFloatElement Value="-0.5" />
              <BoundPropertyFloatElement Value="-0.5" />
            </BoundPropertyFloatSet>
            <BoundPropertyInt Name="effectType" Value="5" />
            <BoundPropertyFloatSet Name="scale">
              <BoundPropertyFloatElement Value="1" />
              <BoundPropertyFloatElement Value="1" />
              <BoundPropertyFloatElement Value="0.85000002384185791" />
              <BoundPropertyFloatElement Value="0.85000002384185791" />
            </BoundPropertyFloatSet>
          </BoundProperties>
        </PanAndZoomShapeEffect>
      </Effects>
      <Transitions>
        <ShapeEffect effectTemplateID="BlurThroughBlackTransitionTemplate" duration="1.5">
          <BoundProperties />
        </ShapeEffect>
      </Transitions>
      <BoundProperties>
        <BoundPropertyInt Name="rotateStepNinety" Value="0" />
      </BoundProperties>
    </ImageClip>
    <ImageClip extentID="22" gapBefore="0" mediaItemID="18" duration="7.896860823809523">
      <Effects>
        <PanAndZoomShapeEffect effectTemplateID="PanAndZoomEffectAutomaticTemplate">
          <BoundProperties>
            <BoundPropertyFloatSet Name="center">
              <BoundPropertyFloatElement Value="-0.5" />
              <BoundPropertyFloatElement Value="-1" />
              <BoundPropertyFloatElement Value="-0.5" />
              <BoundPropertyFloatElement Value="-1" />
            </BoundPropertyFloatSet>
            <BoundPropertyInt Name="effectType" Value="5" />
            <BoundPropertyFloatSet Name="scale">
              <BoundPropertyFloatElement Value="1" />
              <BoundPropertyFloatElement Value="1" />
              <BoundPropertyFloatElement Value="0.85000002384185791" />
              <BoundPropertyFloatElement Value="0.85000002384185791" />
            </BoundPropertyFloatSet>
          </BoundProperties>
        </PanAndZoomShapeEffect>
      </Effects>
      <Transitions>
        <ShapeEffect effectTemplateID="BlurThroughBlackTransitionTemplate" duration="1.5">
          <BoundProperties />
        </ShapeEffect>
      </Transitions>
      <BoundProperties>
        <BoundPropertyInt Name="rotateStepNinety" Value="0" />
      </BoundProperties>
    </ImageClip>
    <ImageClip extentID="23" gapBefore="0" mediaItemID="19" duration="7.896860823809523">
      <Effects>
        <PanAndZoomShapeEffect effectTemplateID="PanAndZoomEffectAutomaticTemplate">
          <BoundProperties>
            <BoundPropertyFloatSet Name="center">
              <BoundPropertyFloatElement Value="-0.5" />
              <BoundPropertyFloatElement Value="-1" />
              <BoundPropertyFloatElement Value="-0.5" />
              <BoundPropertyFloatElement Value="-1" />
            </BoundPropertyFloatSet>
            <BoundPropertyInt Name="effectType" Value="6" />
            <BoundPropertyFloatSet Name="scale">
              <BoundPropertyFloatElement Value="0.85000002384185791" />
              <BoundPropertyFloatElement Value="0.85000002384185791" />
              <BoundPropertyFloatElement Value="1" />
              <BoundPropertyFloatElement Value="1" />
            </BoundPropertyFloatSet>
          </BoundProperties>
        </PanAndZoomShapeEffect>
      </Effects>
      <Transitions>
        <ShapeEffect effectTemplateID="BlurThroughBlackTransitionTemplate" duration="1.5">
          <BoundProperties />
        </ShapeEffect>
      </Transitions>
      <BoundProperties>
        <BoundPropertyInt Name="rotateStepNinety" Value="0" />
      </BoundProperties>
    </ImageClip>
    <ImageClip extentID="24" gapBefore="0" mediaItemID="20" duration="7.896860823809523">
      <Effects>
        <PanAndZoomShapeEffect effectTemplateID="PanAndZoomEffectAutomaticTemplate">
          <BoundProperties>
            <BoundPropertyFloatSet Name="center">
              <BoundPropertyFloatElement Value="-1" />
              <BoundPropertyFloatElement Value="-1" />
              <BoundPropertyFloatElement Value="-1" />
              <BoundPropertyFloatElement Value="-1" />
            </BoundPropertyFloatSet>
            <BoundPropertyInt Name="effectType" Value="5" />
            <BoundPropertyFloatSet Name="scale">
              <BoundPropertyFloatElement Value="1" />
              <BoundPropertyFloatElement Value="1" />
              <BoundPropertyFloatElement Value="0.85000002384185791" />
              <BoundPropertyFloatElement Value="0.85000002384185791" />
            </BoundPropertyFloatSet>
          </BoundProperties>
        </PanAndZoomShapeEffect>
      </Effects>
      <Transitions>
        <ShapeEffect effectTemplateID="BlurThroughBlackTransitionTemplate" duration="1.5">
          <BoundProperties />
        </ShapeEffect>
      </Transitions>
      <BoundProperties>
        <BoundPropertyInt Name="rotateStepNinety" Value="0" />
      </BoundProperties>
    </ImageClip>
    <ImageClip extentID="25" gapBefore="0" mediaItemID="21" duration="7.896860823809523">
      <Effects>
        <PanAndZoomShapeEffect effectTemplateID="PanAndZoomEffectAutomaticTemplate">
          <BoundProperties>
            <BoundPropertyFloatSet Name="center">
              <BoundPropertyFloatElement Value="-0.5" />
              <BoundPropertyFloatElement Value="-1" />
              <BoundPropertyFloatElement Value="-0.5" />
              <BoundPropertyFloatElement Value="0" />
            </BoundPropertyFloatSet>
            <BoundPropertyInt Name="effectType" Value="3" />
            <BoundPropertyFloatSet Name="scale">
              <BoundPropertyFloatElement Value="0.85000002384185791" />
              <BoundPropertyFloatElement Value="0.85000002384185791" />
              <BoundPropertyFloatElement Value="0.85000002384185791" />
              <BoundPropertyFloatElement Value="0.85000002384185791" />
            </BoundPropertyFloatSet>
          </BoundProperties>
        </PanAndZoomShapeEffect>
      </Effects>
      <Transitions>
        <ShapeEffect effectTemplateID="BlurThroughBlackTransitionTemplate" duration="1.5">
          <BoundProperties />
        </ShapeEffect>
      </Transitions>
      <BoundProperties>
        <BoundPropertyInt Name="rotateStepNinety" Value="0" />
      </BoundProperties>
    </ImageClip>
    <ImageClip extentID="26" gapBefore="0" mediaItemID="22" duration="7.896860823809523">
      <Effects>
        <PanAndZoomShapeEffect effectTemplateID="PanAndZoomEffectAutomaticTemplate">
          <BoundProperties>
            <BoundPropertyFloatSet Name="center">
              <BoundPropertyFloatElement Value="-0.5" />
              <BoundPropertyFloatElement Value="-0.5" />
              <BoundPropertyFloatElement Value="-0.5" />
              <BoundPropertyFloatElement Value="-0.5" />
            </BoundPropertyFloatSet>
            <BoundPropertyInt Name="effectType" Value="6" />
            <BoundPropertyFloatSet Name="scale">
              <BoundPropertyFloatElement Value="0.85000002384185791" />
              <BoundPropertyFloatElement Value="0.85000002384185791" />
              <BoundPropertyFloatElement Value="1" />
              <BoundPropertyFloatElement Value="1" />
            </BoundPropertyFloatSet>
          </BoundProperties>
        </PanAndZoomShapeEffect>
      </Effects>
      <Transitions>
        <ShapeEffect effectTemplateID="BlurThroughBlackTransitionTemplate" duration="1.5">
          <BoundProperties />
        </ShapeEffect>
      </Transitions>
      <BoundProperties>
        <BoundPropertyInt Name="rotateStepNinety" Value="0" />
      </BoundProperties>
    </ImageClip>
    <TitleClip extentID="190" gapBefore="31.817634268602081" duration="5.5">
      <Effects>
        <TextEffect effectTemplateID="TextEffectScrollTemplate" TextScriptId="7">
          <BoundProperties>
            <BoundPropertyBool Name="automatic" Value="false" />
            <BoundPropertyFloatSet Name="color">
              <BoundPropertyFloatElement Value="1" />
              <BoundPropertyFloatElement Value="1" />
              <BoundPropertyFloatElement Value="1" />
            </BoundPropertyFloatSet>
            <BoundPropertyStringSet Name="family">
              <BoundPropertyStringElement Value="Segoe UI" />
            </BoundPropertyStringSet>
            <BoundPropertyBool Name="horizontal" Value="true" />
            <BoundPropertyStringSet Name="justify">
              <BoundPropertyStringElement Value="MIDDLE" />
            </BoundPropertyStringSet>
            <BoundPropertyFloatSet Name="length" />
            <BoundPropertyFloat Name="maxExtent" Value="0" />
            <BoundPropertyFloatSet Name="position">
              <BoundPropertyFloatElement Value="0" />
              <BoundPropertyFloatElement Value="0.30000001192092896" />
              <BoundPropertyFloatElement Value="0.02500000037252903" />
            </BoundPropertyFloatSet>
            <BoundPropertyFloat Name="size" Value="0.3333333432674408" />
            <BoundPropertyStringSet Name="string">
              <BoundPropertyStringElement Value="DIRECTED BY" />
              <BoundPropertyStringElement Value="" />
              <BoundPropertyStringElement Value="[Enter your name here]" />
            </BoundPropertyStringSet>
            <BoundPropertyString Name="style" Value="Plain" />
            <BoundPropertyFloat Name="transparency" Value="0" />
          </BoundProperties>
        </TextEffect>
      </Effects>
      <Transitions />
      <BoundProperties>
        <BoundPropertyFloatSet Name="diffuseColor">
          <BoundPropertyFloatElement Value="0.75" />
          <BoundPropertyFloatElement Value="1" />
          <BoundPropertyFloatElement Value="0" />
        </BoundPropertyFloatSet>
        <BoundPropertyFloat Name="transparency" Value="1" />
      </BoundProperties>
    </TitleClip>
    <ImageClip extentID="27" gapBefore="0" mediaItemID="23" duration="7">
      <Effects>
        <PanAndZoomShapeEffect effectTemplateID="PanAndZoomEffectAutomaticTemplate">
          <BoundProperties>
            <BoundPropertyFloatSet Name="center">
              <BoundPropertyFloatElement Value="-0.5" />
              <BoundPropertyFloatElement Value="-1" />
              <BoundPropertyFloatElement Value="-0.5" />
              <BoundPropertyFloatElement Value="-1" />
            </BoundPropertyFloatSet>
            <BoundPropertyInt Name="effectType" Value="6" />
            <BoundPropertyFloatSet Name="scale">
              <BoundPropertyFloatElement Value="0.85000002384185791" />
              <BoundPropertyFloatElement Value="0.85000002384185791" />
              <BoundPropertyFloatElement Value="1" />
              <BoundPropertyFloatElement Value="1" />
            </BoundPropertyFloatSet>
          </BoundProperties>
        </PanAndZoomShapeEffect>
      </Effects>
      <Transitions>
        <ShapeEffect effectTemplateID="BlurThroughBlackTransitionTemplate" duration="1.5">
          <BoundProperties />
        </ShapeEffect>
      </Transitions>
      <BoundProperties>
        <BoundPropertyInt Name="rotateStepNinety" Value="0" />
      </BoundProperties>
    </ImageClip>
    <TitleClip extentID="191" gapBefore="0" duration="5.5">
      <Effects>
        <TextEffect effectTemplateID="TextEffectScrollTemplate" TextScriptId="7">
          <BoundProperties>
            <BoundPropertyBool Name="automatic" Value="false" />
            <BoundPropertyFloatSet Name="color">
              <BoundPropertyFloatElement Value="1" />
              <BoundPropertyFloatElement Value="1" />
              <BoundPropertyFloatElement Value="1" />
            </BoundPropertyFloatSet>
            <BoundPropertyStringSet Name="family">
              <BoundPropertyStringElement Value="Segoe UI" />
            </BoundPropertyStringSet>
            <BoundPropertyBool Name="horizontal" Value="true" />
            <BoundPropertyStringSet Name="justify">
              <BoundPropertyStringElement Value="MIDDLE" />
            </BoundPropertyStringSet>
            <BoundPropertyFloatSet Name="length" />
            <BoundPropertyFloat Name="maxExtent" Value="0" />
            <BoundPropertyFloatSet Name="position">
              <BoundPropertyFloatElement Value="0" />
              <BoundPropertyFloatElement Value="0.30000001192092896" />
              <BoundPropertyFloatElement Value="0.02500000037252903" />
            </BoundPropertyFloatSet>
            <BoundPropertyFloat Name="size" Value="0.3333333432674408" />
            <BoundPropertyStringSet Name="string">
              <BoundPropertyStringElement Value="STARRING" />
              <BoundPropertyStringElement Value="" />
              <BoundPropertyStringElement Value="[Enter your cast here]" />
            </BoundPropertyStringSet>
            <BoundPropertyString Name="style" Value="Plain" />
            <BoundPropertyFloat Name="transparency" Value="0" />
          </BoundProperties>
        </TextEffect>
      </Effects>
      <Transitions />
      <BoundProperties>
        <BoundPropertyFloatSet Name="diffuseColor">
          <BoundPropertyFloatElement Value="0.75" />
          <BoundPropertyFloatElement Value="1" />
          <BoundPropertyFloatElement Value="0" />
        </BoundPropertyFloatSet>
        <BoundPropertyFloat Name="transparency" Value="1" />
      </BoundProperties>
    </TitleClip>
    <ImageClip extentID="28" gapBefore="0" mediaItemID="24" duration="7.896860823809523">
      <Effects>
        <PanAndZoomShapeEffect effectTemplateID="PanAndZoomEffectAutomaticTemplate">
          <BoundProperties>
            <BoundPropertyFloatSet Name="center">
              <BoundPropertyFloatElement Value="-0.5" />
              <BoundPropertyFloatElement Value="0" />
              <BoundPropertyFloatElement Value="-0.5" />
              <BoundPropertyFloatElement Value="-1" />
            </BoundPropertyFloatSet>
            <BoundPropertyInt Name="effectType" Value="4" />
            <BoundPropertyFloatSet Name="scale">
              <BoundPropertyFloatElement Value="0.85000002384185791" />
              <BoundPropertyFloatElement Value="0.85000002384185791" />
              <BoundPropertyFloatElement Value="0.85000002384185791" />
              <BoundPropertyFloatElement Value="0.85000002384185791" />
            </BoundPropertyFloatSet>
          </BoundProperties>
        </PanAndZoomShapeEffect>
      </Effects>
      <Transitions>
        <ShapeEffect effectTemplateID="BlurThroughBlackTransitionTemplate" duration="1.5">
          <BoundProperties />
        </ShapeEffect>
      </Transitions>
      <BoundProperties>
        <BoundPropertyInt Name="rotateStepNinety" Value="0" />
      </BoundProperties>
    </ImageClip>
    <TitleClip extentID="192" gapBefore="0" duration="5.5">
      <Effects>
        <TextEffect effectTemplateID="TextEffectScrollTemplate" TextScriptId="7">
          <BoundProperties>
            <BoundPropertyBool Name="automatic" Value="false" />
            <BoundPropertyFloatSet Name="color">
              <BoundPropertyFloatElement Value="1" />
              <BoundPropertyFloatElement Value="1" />
              <BoundPropertyFloatElement Value="1" />
            </BoundPropertyFloatSet>
            <BoundPropertyStringSet Name="family">
              <BoundPropertyStringElement Value="Segoe UI" />
            </BoundPropertyStringSet>
            <BoundPropertyBool Name="horizontal" Value="true" />
            <BoundPropertyStringSet Name="justify">
              <BoundPropertyStringElement Value="MIDDLE" />
            </BoundPropertyStringSet>
            <BoundPropertyFloatSet Name="length" />
            <BoundPropertyFloat Name="maxExtent" Value="0" />
            <BoundPropertyFloatSet Name="position">
              <BoundPropertyFloatElement Value="0" />
              <BoundPropertyFloatElement Value="0.30000001192092896" />
              <BoundPropertyFloatElement Value="0.02500000037252903" />
            </BoundPropertyFloatSet>
            <BoundPropertyFloat Name="size" Value="0.3333333432674408" />
            <BoundPropertyStringSet Name="string">
              <BoundPropertyStringElement Value="FILMED ON LOCATION" />
              <BoundPropertyStringElement Value="" />
              <BoundPropertyStringElement Value="[Enter location here]" />
            </BoundPropertyStringSet>
            <BoundPropertyString Name="style" Value="Plain" />
            <BoundPropertyFloat Name="transparency" Value="0" />
          </BoundProperties>
        </TextEffect>
      </Effects>
      <Transitions />
      <BoundProperties>
        <BoundPropertyFloatSet Name="diffuseColor">
          <BoundPropertyFloatElement Value="0.75" />
          <BoundPropertyFloatElement Value="1" />
          <BoundPropertyFloatElement Value="0" />
        </BoundPropertyFloatSet>
        <BoundPropertyFloat Name="transparency" Value="1" />
      </BoundProperties>
    </TitleClip>
    <ImageClip extentID="29" gapBefore="0" mediaItemID="25" duration="7.896860823809523">
      <Effects>
        <PanAndZoomShapeEffect effectTemplateID="PanAndZoomEffectAutomaticTemplate">
          <BoundProperties>
            <BoundPropertyFloatSet Name="center">
              <BoundPropertyFloatElement Value="-0.5" />
              <BoundPropertyFloatElement Value="-0.5" />
              <BoundPropertyFloatElement Value="-0.5" />
              <BoundPropertyFloatElement Value="-0.5" />
            </BoundPropertyFloatSet>
            <BoundPropertyInt Name="effectType" Value="6" />
            <BoundPropertyFloatSet Name="scale">
              <BoundPropertyFloatElement Value="0.85000002384185791" />
              <BoundPropertyFloatElement Value="0.85000002384185791" />
              <BoundPropertyFloatElement Value="1" />
              <BoundPropertyFloatElement Value="1" />
            </BoundPropertyFloatSet>
          </BoundProperties>
        </PanAndZoomShapeEffect>
      </Effects>
      <Transitions>
        <ShapeEffect effectTemplateID="BlurThroughBlackTransitionTemplate" duration="1.5">
          <BoundProperties />
        </ShapeEffect>
      </Transitions>
      <BoundProperties>
        <BoundPropertyInt Name="rotateStepNinety" Value="0" />
      </BoundProperties>
    </ImageClip>
    <TitleClip extentID="193" gapBefore="0" duration="20">
      <Effects />
      <Transitions>
        <ShapeEffect effectTemplateID="BlurThroughBlackTransitionTemplate" duration="1.5">
          <BoundProperties />
        </ShapeEffect>
      </Transitions>
      <BoundProperties>
        <BoundPropertyFloatSet Name="diffuseColor">
          <BoundPropertyFloatElement Value="0.87450981140136719" />
          <BoundPropertyFloatElement Value="0" />
          <BoundPropertyFloatElement Value="0.43921568989753723" />
        </BoundPropertyFloatSet>
        <BoundPropertyFloat Name="transparency" Value="0" />
      </BoundProperties>
    </TitleClip>
    <ImageClip extentID="30" gapBefore="0" mediaItemID="26" duration="7.896860823809523">
      <Effects>
        <PanAndZoomShapeEffect effectTemplateID="PanAndZoomEffectAutomaticTemplate">
          <BoundProperties>
            <BoundPropertyFloatSet Name="center">
              <BoundPropertyFloatElement Value="-1" />
              <BoundPropertyFloatElement Value="-0.5" />
              <BoundPropertyFloatElement Value="-1" />
              <BoundPropertyFloatElement Value="-0.5" />
            </BoundPropertyFloatSet>
            <BoundPropertyInt Name="effectType" Value="6" />
            <BoundPropertyFloatSet Name="scale">
              <BoundPropertyFloatElement Value="0.85000002384185791" />
              <BoundPropertyFloatElement Value="0.85000002384185791" />
              <BoundPropertyFloatElement Value="1" />
              <BoundPropertyFloatElement Value="1" />
            </BoundPropertyFloatSet>
          </BoundProperties>
        </PanAndZoomShapeEffect>
      </Effects>
      <Transitions>
        <ShapeEffect effectTemplateID="BlurThroughBlackTransitionTemplate" duration="1.5">
          <BoundProperties />
        </ShapeEffect>
      </Transitions>
      <BoundProperties>
        <BoundPropertyInt Name="rotateStepNinety" Value="0" />
      </BoundProperties>
    </ImageClip>
    <TitleClip extentID="194" gapBefore="0" duration="7">
      <Effects />
      <Transitions>
        <ShapeEffect effectTemplateID="BlurThroughBlackTransitionTemplate" duration="1.5">
          <BoundProperties />
        </ShapeEffect>
      </Transitions>
      <BoundProperties>
        <BoundPropertyFloatSet Name="diffuseColor">
          <BoundPropertyFloatElement Value="0" />
          <BoundPropertyFloatElement Value="0" />
          <BoundPropertyFloatElement Value="0" />
        </BoundPropertyFloatSet>
        <BoundPropertyFloat Name="transparency" Value="0" />
      </BoundProperties>
    </TitleClip>
    <ImageClip extentID="31" gapBefore="0" mediaItemID="27" duration="7.896860823809523">
      <Effects>
        <PanAndZoomShapeEffect effectTemplateID="PanAndZoomEffectAutomaticTemplate">
          <BoundProperties>
            <BoundPropertyFloatSet Name="center">
              <BoundPropertyFloatElement Value="-0.5" />
              <BoundPropertyFloatElement Value="0" />
              <BoundPropertyFloatElement Value="-0.5" />
              <BoundPropertyFloatElement Value="-1" />
            </BoundPropertyFloatSet>
            <BoundPropertyInt Name="effectType" Value="4" />
            <BoundPropertyFloatSet Name="scale">
              <BoundPropertyFloatElement Value="0.85000002384185791" />
              <BoundPropertyFloatElement Value="0.85000002384185791" />
              <BoundPropertyFloatElement Value="0.85000002384185791" />
              <BoundPropertyFloatElement Value="0.85000002384185791" />
            </BoundPropertyFloatSet>
          </BoundProperties>
        </PanAndZoomShapeEffect>
      </Effects>
      <Transitions>
        <ShapeEffect effectTemplateID="BlurThroughBlackTransitionTemplate" duration="1.5">
          <BoundProperties />
        </ShapeEffect>
      </Transitions>
      <BoundProperties>
        <BoundPropertyInt Name="rotateStepNinety" Value="0" />
      </BoundProperties>
    </ImageClip>
    <TitleClip extentID="195" gapBefore="0" duration="7">
      <Effects />
      <Transitions>
        <ShapeEffect effectTemplateID="BlurThroughBlackTransitionTemplate" duration="1.5">
          <BoundProperties />
        </ShapeEffect>
      </Transitions>
      <BoundProperties>
        <BoundPropertyFloatSet Name="diffuseColor">
          <BoundPropertyFloatElement Value="0" />
          <BoundPropertyFloatElement Value="0" />
          <BoundPropertyFloatElement Value="0" />
        </BoundPropertyFloatSet>
        <BoundPropertyFloat Name="transparency" Value="0" />
      </BoundProperties>
    </TitleClip>
    <ImageClip extentID="32" gapBefore="0" mediaItemID="28" duration="7.896860823809523">
      <Effects>
        <PanAndZoomShapeEffect effectTemplateID="PanAndZoomEffectAutomaticTemplate">
          <BoundProperties>
            <BoundPropertyFloatSet Name="center">
              <BoundPropertyFloatElement Value="0" />
              <BoundPropertyFloatElement Value="-0.5" />
              <BoundPropertyFloatElement Value="-1" />
              <BoundPropertyFloatElement Value="-0.5" />
            </BoundPropertyFloatSet>
            <BoundPropertyInt Name="effectType" Value="1" />
            <BoundPropertyFloatSet Name="scale">
              <BoundPropertyFloatElement Value="0.85000002384185791" />
              <BoundPropertyFloatElement Value="0.85000002384185791" />
              <BoundPropertyFloatElement Value="0.85000002384185791" />
              <BoundPropertyFloatElement Value="0.85000002384185791" />
            </BoundPropertyFloatSet>
          </BoundProperties>
        </PanAndZoomShapeEffect>
      </Effects>
      <Transitions>
        <ShapeEffect effectTemplateID="BlurThroughBlackTransitionTemplate" duration="1.5">
          <BoundProperties />
        </ShapeEffect>
      </Transitions>
      <BoundProperties>
        <BoundPropertyInt Name="rotateStepNinety" Value="0" />
      </BoundProperties>
    </ImageClip>
    <TitleClip extentID="196" gapBefore="0" duration="7">
      <Effects />
      <Transitions>
        <ShapeEffect effectTemplateID="BlurThroughBlackTransitionTemplate" duration="1.5">
          <BoundProperties />
        </ShapeEffect>
      </Transitions>
      <BoundProperties>
        <BoundPropertyFloatSet Name="diffuseColor">
          <BoundPropertyFloatElement Value="0" />
          <BoundPropertyFloatElement Value="0" />
          <BoundPropertyFloatElement Value="0" />
        </BoundPropertyFloatSet>
        <BoundPropertyFloat Name="transparency" Value="0" />
      </BoundProperties>
    </TitleClip>
    <ImageClip extentID="33" gapBefore="0" mediaItemID="29" duration="7.896860823809523">
      <Effects>
        <PanAndZoomShapeEffect effectTemplateID="PanAndZoomEffectAutomaticTemplate">
          <BoundProperties>
            <BoundPropertyFloatSet Name="center">
              <BoundPropertyFloatElement Value="-1" />
              <BoundPropertyFloatElement Value="-0.5" />
              <BoundPropertyFloatElement Value="0" />
              <BoundPropertyFloatElement Value="-0.5" />
            </BoundPropertyFloatSet>
            <BoundPropertyInt Name="effectType" Value="2" />
            <BoundPropertyFloatSet Name="scale">
              <BoundPropertyFloatElement Value="0.85000002384185791" />
              <BoundPropertyFloatElement Value="0.85000002384185791" />
              <BoundPropertyFloatElement Value="0.85000002384185791" />
              <BoundPropertyFloatElement Value="0.85000002384185791" />
            </BoundPropertyFloatSet>
          </BoundProperties>
        </PanAndZoomShapeEffect>
      </Effects>
      <Transitions>
        <ShapeEffect effectTemplateID="BlurThroughBlackTransitionTemplate" duration="1.5">
          <BoundProperties />
        </ShapeEffect>
      </Transitions>
      <BoundProperties>
        <BoundPropertyInt Name="rotateStepNinety" Value="0" />
      </BoundProperties>
    </ImageClip>
    <TitleClip extentID="197" gapBefore="0.8671875" duration="7">
      <Effects>
        <TextEffect effectTemplateID="TextEffectStretchTemplate" TextScriptId="2">
          <BoundProperties>
            <BoundPropertyBool Name="automatic" Value="false" />
            <BoundPropertyFloatSet Name="color">
              <BoundPropertyFloatElement Value="1" />
              <BoundPropertyFloatElement Value="1" />
              <BoundPropertyFloatElement Value="1" />
            </BoundPropertyFloatSet>
            <BoundPropertyStringSet Name="family">
              <BoundPropertyStringElement Value="Segoe Script" />
            </BoundPropertyStringSet>
            <BoundPropertyBool Name="horizontal" Value="true" />
            <BoundPropertyStringSet Name="justify">
              <BoundPropertyStringElement Value="MIDDLE" />
            </BoundPropertyStringSet>
            <BoundPropertyFloatSet Name="length" />
            <BoundPropertyFloat Name="maxExtent" Value="0" />
            <BoundPropertyFloatSet Name="position">
              <BoundPropertyFloatElement Value="0.034934520721435547" />
              <BoundPropertyFloatElement Value="1.0639535188674927" />
              <BoundPropertyFloatElement Value="0.02500000037252903" />
            </BoundPropertyFloatSet>
            <BoundPropertyFloat Name="size" Value="0.60000002384185791" />
            <BoundPropertyStringSet Name="string">
              <BoundPropertyStringElement Value="Bee's Royal " />
              <BoundPropertyStringElement Value="Bachelorette " />
            </BoundPropertyStringSet>
            <BoundPropertyString Name="style" Value="Plain" />
            <BoundPropertyFloat Name="transparency" Value="0" />
          </BoundProperties>
        </TextEffect>
      </Effects>
      <Transitions />
      <BoundProperties>
        <BoundPropertyFloatSet Name="diffuseColor">
          <BoundPropertyFloatElement Value="0.75" />
          <BoundPropertyFloatElement Value="1" />
          <BoundPropertyFloatElement Value="0" />
        </BoundPropertyFloatSet>
        <BoundPropertyFloat Name="transparency" Value="1" />
      </BoundProperties>
    </TitleClip>
    <ImageClip extentID="34" gapBefore="0" mediaItemID="30" duration="7.896860823809523">
      <Effects>
        <PanAndZoomShapeEffect effectTemplateID="PanAndZoomEffectAutomaticTemplate">
          <BoundProperties>
            <BoundPropertyFloatSet Name="center">
              <BoundPropertyFloatElement Value="-0.5" />
              <BoundPropertyFloatElement Value="0" />
              <BoundPropertyFloatElement Value="-0.5" />
              <BoundPropertyFloatElement Value="-1" />
            </BoundPropertyFloatSet>
            <BoundPropertyInt Name="effectType" Value="4" />
            <BoundPropertyFloatSet Name="scale">
              <BoundPropertyFloatElement Value="0.85000002384185791" />
              <BoundPropertyFloatElement Value="0.85000002384185791" />
              <BoundPropertyFloatElement Value="0.85000002384185791" />
              <BoundPropertyFloatElement Value="0.85000002384185791" />
            </BoundPropertyFloatSet>
          </BoundProperties>
        </PanAndZoomShapeEffect>
      </Effects>
      <Transitions>
        <ShapeEffect effectTemplateID="BlurThroughBlackTransitionTemplate" duration="1.5">
          <BoundProperties />
        </ShapeEffect>
      </Transitions>
      <BoundProperties>
        <BoundPropertyInt Name="rotateStepNinety" Value="0" />
      </BoundProperties>
    </ImageClip>
    <ImageClip extentID="35" gapBefore="0" mediaItemID="31" duration="7.896860823809523">
      <Effects>
        <PanAndZoomShapeEffect effectTemplateID="PanAndZoomEffectAutomaticTemplate">
          <BoundProperties>
            <BoundPropertyFloatSet Name="center">
              <BoundPropertyFloatElement Value="-0.5" />
              <BoundPropertyFloatElement Value="-1" />
              <BoundPropertyFloatElement Value="-0.5" />
              <BoundPropertyFloatElement Value="0" />
            </BoundPropertyFloatSet>
            <BoundPropertyInt Name="effectType" Value="3" />
            <BoundPropertyFloatSet Name="scale">
              <BoundPropertyFloatElement Value="0.85000002384185791" />
              <BoundPropertyFloatElement Value="0.85000002384185791" />
              <BoundPropertyFloatElement Value="0.85000002384185791" />
              <BoundPropertyFloatElement Value="0.85000002384185791" />
            </BoundPropertyFloatSet>
          </BoundProperties>
        </PanAndZoomShapeEffect>
      </Effects>
      <Transitions>
        <ShapeEffect effectTemplateID="BlurThroughBlackTransitionTemplate" duration="1.5">
          <BoundProperties />
        </ShapeEffect>
      </Transitions>
      <BoundProperties>
        <BoundPropertyInt Name="rotateStepNinety" Value="0" />
      </BoundProperties>
    </ImageClip>
    <ImageClip extentID="199" gapBefore="0" mediaItemID="113" duration="7.896860823807704">
      <Effects>
        <PanAndZoomShapeEffect effectTemplateID="PanAndZoomEffectAutomaticTemplate">
          <BoundProperties>
            <BoundPropertyFloatSet Name="center">
              <BoundPropertyFloatElement Value="-0.5" />
              <BoundPropertyFloatElement Value="-0.5" />
              <BoundPropertyFloatElement Value="-0.5" />
              <BoundPropertyFloatElement Value="-0.5" />
            </BoundPropertyFloatSet>
            <BoundPropertyInt Name="effectType" Value="6" />
            <BoundPropertyFloatSet Name="scale">
              <BoundPropertyFloatElement Value="0.85000002384185791" />
              <BoundPropertyFloatElement Value="0.85000002384185791" />
              <BoundPropertyFloatElement Value="1" />
              <BoundPropertyFloatElement Value="1" />
            </BoundPropertyFloatSet>
          </BoundProperties>
        </PanAndZoomShapeEffect>
      </Effects>
      <Transitions>
        <ShapeEffect effectTemplateID="BlurThroughBlackTransitionTemplate" duration="1.5">
          <BoundProperties />
        </ShapeEffect>
      </Transitions>
      <BoundProperties>
        <BoundPropertyInt Name="rotateStepNinety" Value="0" />
      </BoundProperties>
    </ImageClip>
    <ImageClip extentID="36" gapBefore="0" mediaItemID="32" duration="7.896860823809523">
      <Effects>
        <PanAndZoomShapeEffect effectTemplateID="PanAndZoomEffectAutomaticTemplate">
          <BoundProperties>
            <BoundPropertyFloatSet Name="center">
              <BoundPropertyFloatElement Value="-0.5" />
              <BoundPropertyFloatElement Value="-0.5" />
              <BoundPropertyFloatElement Value="-0.5" />
              <BoundPropertyFloatElement Value="-0.5" />
            </BoundPropertyFloatSet>
            <BoundPropertyInt Name="effectType" Value="6" />
            <BoundPropertyFloatSet Name="scale">
              <BoundPropertyFloatElement Value="0.85000002384185791" />
              <BoundPropertyFloatElement Value="0.85000002384185791" />
              <BoundPropertyFloatElement Value="1" />
              <BoundPropertyFloatElement Value="1" />
            </BoundPropertyFloatSet>
          </BoundProperties>
        </PanAndZoomShapeEffect>
      </Effects>
      <Transitions>
        <ShapeEffect effectTemplateID="BlurThroughBlackTransitionTemplate" duration="1.5">
          <BoundProperties />
        </ShapeEffect>
      </Transitions>
      <BoundProperties>
        <BoundPropertyInt Name="rotateStepNinety" Value="0" />
      </BoundProperties>
    </ImageClip>
    <ImageClip extentID="37" gapBefore="0" mediaItemID="33" duration="7.896860823809523">
      <Effects>
        <PanAndZoomShapeEffect effectTemplateID="PanAndZoomEffectAutomaticTemplate">
          <BoundProperties>
            <BoundPropertyFloatSet Name="center">
              <BoundPropertyFloatElement Value="0" />
              <BoundPropertyFloatElement Value="-0.5" />
              <BoundPropertyFloatElement Value="-1" />
              <BoundPropertyFloatElement Value="-0.5" />
            </BoundPropertyFloatSet>
            <BoundPropertyInt Name="effectType" Value="1" />
            <BoundPropertyFloatSet Name="scale">
              <BoundPropertyFloatElement Value="0.85000002384185791" />
              <BoundPropertyFloatElement Value="0.85000002384185791" />
              <BoundPropertyFloatElement Value="0.85000002384185791" />
              <BoundPropertyFloatElement Value="0.85000002384185791" />
            </BoundPropertyFloatSet>
          </BoundProperties>
        </PanAndZoomShapeEffect>
      </Effects>
      <Transitions>
        <ShapeEffect effectTemplateID="BlurThroughBlackTransitionTemplate" duration="1.5">
          <BoundProperties />
        </ShapeEffect>
      </Transitions>
      <BoundProperties>
        <BoundPropertyInt Name="rotateStepNinety" Value="0" />
      </BoundProperties>
    </ImageClip>
    <ImageClip extentID="38" gapBefore="0" mediaItemID="34" duration="7.896860823809523">
      <Effects>
        <PanAndZoomShapeEffect effectTemplateID="PanAndZoomEffectAutomaticTemplate">
          <BoundProperties>
            <BoundPropertyFloatSet Name="center">
              <BoundPropertyFloatElement Value="-1" />
              <BoundPropertyFloatElement Value="-0.5" />
              <BoundPropertyFloatElement Value="0" />
              <BoundPropertyFloatElement Value="-0.5" />
            </BoundPropertyFloatSet>
            <BoundPropertyInt Name="effectType" Value="2" />
            <BoundPropertyFloatSet Name="scale">
              <BoundPropertyFloatElement Value="0.85000002384185791" />
              <BoundPropertyFloatElement Value="0.85000002384185791" />
              <BoundPropertyFloatElement Value="0.85000002384185791" />
              <BoundPropertyFloatElement Value="0.85000002384185791" />
            </BoundPropertyFloatSet>
          </BoundProperties>
        </PanAndZoomShapeEffect>
      </Effects>
      <Transitions>
        <ShapeEffect effectTemplateID="BlurThroughBlackTransitionTemplate" duration="1.5">
          <BoundProperties />
        </ShapeEffect>
      </Transitions>
      <BoundProperties>
        <BoundPropertyInt Name="rotateStepNinety" Value="0" />
      </BoundProperties>
    </ImageClip>
    <ImageClip extentID="39" gapBefore="0" mediaItemID="35" duration="7.896860823809523">
      <Effects>
        <PanAndZoomShapeEffect effectTemplateID="PanAndZoomEffectAutomaticTemplate">
          <BoundProperties>
            <BoundPropertyFloatSet Name="center">
              <BoundPropertyFloatElement Value="-0.5" />
              <BoundPropertyFloatElement Value="-1" />
              <BoundPropertyFloatElement Value="-0.5" />
              <BoundPropertyFloatElement Value="0" />
            </BoundPropertyFloatSet>
            <BoundPropertyInt Name="effectType" Value="3" />
            <BoundPropertyFloatSet Name="scale">
              <BoundPropertyFloatElement Value="0.85000002384185791" />
              <BoundPropertyFloatElement Value="0.85000002384185791" />
              <BoundPropertyFloatElement Value="0.85000002384185791" />
              <BoundPropertyFloatElement Value="0.85000002384185791" />
            </BoundPropertyFloatSet>
          </BoundProperties>
        </PanAndZoomShapeEffect>
      </Effects>
      <Transitions>
        <ShapeEffect effectTemplateID="BlurThroughBlackTransitionTemplate" duration="1.5">
          <BoundProperties />
        </ShapeEffect>
      </Transitions>
      <BoundProperties>
        <BoundPropertyInt Name="rotateStepNinety" Value="0" />
      </BoundProperties>
    </ImageClip>
    <ImageClip extentID="40" gapBefore="0" mediaItemID="36" duration="7.896860823809523">
      <Effects>
        <PanAndZoomShapeEffect effectTemplateID="PanAndZoomEffectAutomaticTemplate">
          <BoundProperties>
            <BoundPropertyFloatSet Name="center">
              <BoundPropertyFloatElement Value="-0.5" />
              <BoundPropertyFloatElement Value="0" />
              <BoundPropertyFloatElement Value="-0.5" />
              <BoundPropertyFloatElement Value="-1" />
            </BoundPropertyFloatSet>
            <BoundPropertyInt Name="effectType" Value="4" />
            <BoundPropertyFloatSet Name="scale">
              <BoundPropertyFloatElement Value="0.85000002384185791" />
              <BoundPropertyFloatElement Value="0.85000002384185791" />
              <BoundPropertyFloatElement Value="0.85000002384185791" />
              <BoundPropertyFloatElement Value="0.85000002384185791" />
            </BoundPropertyFloatSet>
          </BoundProperties>
        </PanAndZoomShapeEffect>
      </Effects>
      <Transitions>
        <ShapeEffect effectTemplateID="BlurThroughBlackTransitionTemplate" duration="1.5">
          <BoundProperties />
        </ShapeEffect>
      </Transitions>
      <BoundProperties>
        <BoundPropertyInt Name="rotateStepNinety" Value="0" />
      </BoundProperties>
    </ImageClip>
    <ImageClip extentID="41" gapBefore="0" mediaItemID="37" duration="7.896860823809523">
      <Effects>
        <PanAndZoomShapeEffect effectTemplateID="PanAndZoomEffectAutomaticTemplate">
          <BoundProperties>
            <BoundPropertyFloatSet Name="center">
              <BoundPropertyFloatElement Value="-0.5" />
              <BoundPropertyFloatElement Value="-0.5" />
              <BoundPropertyFloatElement Value="-0.5" />
              <BoundPropertyFloatElement Value="-0.5" />
            </BoundPropertyFloatSet>
            <BoundPropertyInt Name="effectType" Value="5" />
            <BoundPropertyFloatSet Name="scale">
              <BoundPropertyFloatElement Value="1" />
              <BoundPropertyFloatElement Value="1" />
              <BoundPropertyFloatElement Value="0.85000002384185791" />
              <BoundPropertyFloatElement Value="0.85000002384185791" />
            </BoundPropertyFloatSet>
          </BoundProperties>
        </PanAndZoomShapeEffect>
      </Effects>
      <Transitions>
        <ShapeEffect effectTemplateID="BlurThroughBlackTransitionTemplate" duration="1.5">
          <BoundProperties />
        </ShapeEffect>
      </Transitions>
      <BoundProperties>
        <BoundPropertyInt Name="rotateStepNinety" Value="0" />
      </BoundProperties>
    </ImageClip>
    <ImageClip extentID="42" gapBefore="0" mediaItemID="38" duration="7.896860823809523">
      <Effects>
        <PanAndZoomShapeEffect effectTemplateID="PanAndZoomEffectAutomaticTemplate">
          <BoundProperties>
            <BoundPropertyFloatSet Name="center">
              <BoundPropertyFloatElement Value="0" />
              <BoundPropertyFloatElement Value="-0.5" />
              <BoundPropertyFloatElement Value="0" />
              <BoundPropertyFloatElement Value="-0.5" />
            </BoundPropertyFloatSet>
            <BoundPropertyInt Name="effectType" Value="6" />
            <BoundPropertyFloatSet Name="scale">
              <BoundPropertyFloatElement Value="0.85000002384185791" />
              <BoundPropertyFloatElement Value="0.85000002384185791" />
              <BoundPropertyFloatElement Value="1" />
              <BoundPropertyFloatElement Value="1" />
            </BoundPropertyFloatSet>
          </BoundProperties>
        </PanAndZoomShapeEffect>
      </Effects>
      <Transitions>
        <ShapeEffect effectTemplateID="BlurThroughBlackTransitionTemplate" duration="1.5">
          <BoundProperties />
        </ShapeEffect>
      </Transitions>
      <BoundProperties>
        <BoundPropertyInt Name="rotateStepNinety" Value="0" />
      </BoundProperties>
    </ImageClip>
    <ImageClip extentID="43" gapBefore="0" mediaItemID="39" duration="7.896860823809523">
      <Effects>
        <PanAndZoomShapeEffect effectTemplateID="PanAndZoomEffectAutomaticTemplate">
          <BoundProperties>
            <BoundPropertyFloatSet Name="center">
              <BoundPropertyFloatElement Value="0" />
              <BoundPropertyFloatElement Value="-1" />
              <BoundPropertyFloatElement Value="0" />
              <BoundPropertyFloatElement Value="-1" />
            </BoundPropertyFloatSet>
            <BoundPropertyInt Name="effectType" Value="6" />
            <BoundPropertyFloatSet Name="scale">
              <BoundPropertyFloatElement Value="0.85000002384185791" />
              <BoundPropertyFloatElement Value="0.85000002384185791" />
              <BoundPropertyFloatElement Value="1" />
              <BoundPropertyFloatElement Value="1" />
            </BoundPropertyFloatSet>
          </BoundProperties>
        </PanAndZoomShapeEffect>
      </Effects>
      <Transitions>
        <ShapeEffect effectTemplateID="BlurThroughBlackTransitionTemplate" duration="1.5">
          <BoundProperties />
        </ShapeEffect>
      </Transitions>
      <BoundProperties>
        <BoundPropertyInt Name="rotateStepNinety" Value="0" />
      </BoundProperties>
    </ImageClip>
    <ImageClip extentID="44" gapBefore="0" mediaItemID="40" duration="7.896860823809523">
      <Effects>
        <PanAndZoomShapeEffect effectTemplateID="PanAndZoomEffectAutomaticTemplate">
          <BoundProperties>
            <BoundPropertyFloatSet Name="center">
              <BoundPropertyFloatElement Value="-0.5" />
              <BoundPropertyFloatElement Value="-1" />
              <BoundPropertyFloatElement Value="-0.5" />
              <BoundPropertyFloatElement Value="0" />
            </BoundPropertyFloatSet>
            <BoundPropertyInt Name="effectType" Value="3" />
            <BoundPropertyFloatSet Name="scale">
              <BoundPropertyFloatElement Value="0.85000002384185791" />
              <BoundPropertyFloatElement Value="0.85000002384185791" />
              <BoundPropertyFloatElement Value="0.85000002384185791" />
              <BoundPropertyFloatElement Value="0.85000002384185791" />
            </BoundPropertyFloatSet>
          </BoundProperties>
        </PanAndZoomShapeEffect>
      </Effects>
      <Transitions>
        <ShapeEffect effectTemplateID="BlurThroughBlackTransitionTemplate" duration="1.5">
          <BoundProperties />
        </ShapeEffect>
      </Transitions>
      <BoundProperties>
        <BoundPropertyInt Name="rotateStepNinety" Value="0" />
      </BoundProperties>
    </ImageClip>
    <ImageClip extentID="45" gapBefore="0" mediaItemID="41" duration="7.896860823809523">
      <Effects>
        <PanAndZoomShapeEffect effectTemplateID="PanAndZoomEffectAutomaticTemplate">
          <BoundProperties>
            <BoundPropertyFloatSet Name="center">
              <BoundPropertyFloatElement Value="-0.5" />
              <BoundPropertyFloatElement Value="0" />
              <BoundPropertyFloatElement Value="-0.5" />
              <BoundPropertyFloatElement Value="-1" />
            </BoundPropertyFloatSet>
            <BoundPropertyInt Name="effectType" Value="4" />
            <BoundPropertyFloatSet Name="scale">
              <BoundPropertyFloatElement Value="0.85000002384185791" />
              <BoundPropertyFloatElement Value="0.85000002384185791" />
              <BoundPropertyFloatElement Value="0.85000002384185791" />
              <BoundPropertyFloatElement Value="0.85000002384185791" />
            </BoundPropertyFloatSet>
          </BoundProperties>
        </PanAndZoomShapeEffect>
      </Effects>
      <Transitions>
        <ShapeEffect effectTemplateID="BlurThroughBlackTransitionTemplate" duration="1.5">
          <BoundProperties />
        </ShapeEffect>
      </Transitions>
      <BoundProperties>
        <BoundPropertyInt Name="rotateStepNinety" Value="0" />
      </BoundProperties>
    </ImageClip>
    <ImageClip extentID="46" gapBefore="0" mediaItemID="42" duration="7.896860823809523">
      <Effects>
        <PanAndZoomShapeEffect effectTemplateID="PanAndZoomEffectAutomaticTemplate">
          <BoundProperties>
            <BoundPropertyFloatSet Name="center">
              <BoundPropertyFloatElement Value="-0.5" />
              <BoundPropertyFloatElement Value="-1" />
              <BoundPropertyFloatElement Value="-0.5" />
              <BoundPropertyFloatElement Value="0" />
            </BoundPropertyFloatSet>
            <BoundPropertyInt Name="effectType" Value="3" />
            <BoundPropertyFloatSet Name="scale">
              <BoundPropertyFloatElement Value="0.85000002384185791" />
              <BoundPropertyFloatElement Value="0.85000002384185791" />
              <BoundPropertyFloatElement Value="0.85000002384185791" />
              <BoundPropertyFloatElement Value="0.85000002384185791" />
            </BoundPropertyFloatSet>
          </BoundProperties>
        </PanAndZoomShapeEffect>
      </Effects>
      <Transitions>
        <ShapeEffect effectTemplateID="BlurThroughBlackTransitionTemplate" duration="1.5">
          <BoundProperties />
        </ShapeEffect>
      </Transitions>
      <BoundProperties>
        <BoundPropertyInt Name="rotateStepNinety" Value="0" />
      </BoundProperties>
    </ImageClip>
    <ImageClip extentID="47" gapBefore="0" mediaItemID="43" duration="7.896860823809523">
      <Effects>
        <PanAndZoomShapeEffect effectTemplateID="PanAndZoomEffectAutomaticTemplate">
          <BoundProperties>
            <BoundPropertyFloatSet Name="center">
              <BoundPropertyFloatElement Value="0" />
              <BoundPropertyFloatElement Value="-0.5" />
              <BoundPropertyFloatElement Value="-1" />
              <BoundPropertyFloatElement Value="-0.5" />
            </BoundPropertyFloatSet>
            <BoundPropertyInt Name="effectType" Value="1" />
            <BoundPropertyFloatSet Name="scale">
              <BoundPropertyFloatElement Value="0.85000002384185791" />
              <BoundPropertyFloatElement Value="0.85000002384185791" />
              <BoundPropertyFloatElement Value="0.85000002384185791" />
              <BoundPropertyFloatElement Value="0.85000002384185791" />
            </BoundPropertyFloatSet>
          </BoundProperties>
        </PanAndZoomShapeEffect>
      </Effects>
      <Transitions>
        <ShapeEffect effectTemplateID="BlurThroughBlackTransitionTemplate" duration="1.5">
          <BoundProperties />
        </ShapeEffect>
      </Transitions>
      <BoundProperties>
        <BoundPropertyInt Name="rotateStepNinety" Value="0" />
      </BoundProperties>
    </ImageClip>
    <ImageClip extentID="48" gapBefore="0" mediaItemID="44" duration="7.896860823809523">
      <Effects>
        <PanAndZoomShapeEffect effectTemplateID="PanAndZoomEffectAutomaticTemplate">
          <BoundProperties>
            <BoundPropertyFloatSet Name="center">
              <BoundPropertyFloatElement Value="-1" />
              <BoundPropertyFloatElement Value="-1" />
              <BoundPropertyFloatElement Value="-1" />
              <BoundPropertyFloatElement Value="-1" />
            </BoundPropertyFloatSet>
            <BoundPropertyInt Name="effectType" Value="5" />
            <BoundPropertyFloatSet Name="scale">
              <BoundPropertyFloatElement Value="1" />
              <BoundPropertyFloatElement Value="1" />
              <BoundPropertyFloatElement Value="0.85000002384185791" />
              <BoundPropertyFloatElement Value="0.85000002384185791" />
            </BoundPropertyFloatSet>
          </BoundProperties>
        </PanAndZoomShapeEffect>
      </Effects>
      <Transitions>
        <ShapeEffect effectTemplateID="BlurThroughBlackTransitionTemplate" duration="1.5">
          <BoundProperties />
        </ShapeEffect>
      </Transitions>
      <BoundProperties>
        <BoundPropertyInt Name="rotateStepNinety" Value="0" />
      </BoundProperties>
    </ImageClip>
    <ImageClip extentID="49" gapBefore="0" mediaItemID="45" duration="7.896860823809523">
      <Effects>
        <PanAndZoomShapeEffect effectTemplateID="PanAndZoomEffectAutomaticTemplate">
          <BoundProperties>
            <BoundPropertyFloatSet Name="center">
              <BoundPropertyFloatElement Value="-0.5" />
              <BoundPropertyFloatElement Value="-0.5" />
              <BoundPropertyFloatElement Value="-0.5" />
              <BoundPropertyFloatElement Value="-0.5" />
            </BoundPropertyFloatSet>
            <BoundPropertyInt Name="effectType" Value="5" />
            <BoundPropertyFloatSet Name="scale">
              <BoundPropertyFloatElement Value="1" />
              <BoundPropertyFloatElement Value="1" />
              <BoundPropertyFloatElement Value="0.85000002384185791" />
              <BoundPropertyFloatElement Value="0.85000002384185791" />
            </BoundPropertyFloatSet>
          </BoundProperties>
        </PanAndZoomShapeEffect>
      </Effects>
      <Transitions>
        <ShapeEffect effectTemplateID="BlurThroughBlackTransitionTemplate" duration="1.5">
          <BoundProperties />
        </ShapeEffect>
      </Transitions>
      <BoundProperties>
        <BoundPropertyInt Name="rotateStepNinety" Value="0" />
      </BoundProperties>
    </ImageClip>
    <ImageClip extentID="50" gapBefore="0" mediaItemID="46" duration="7.896860823809523">
      <Effects>
        <PanAndZoomShapeEffect effectTemplateID="PanAndZoomEffectAutomaticTemplate">
          <BoundProperties>
            <BoundPropertyFloatSet Name="center">
              <BoundPropertyFloatElement Value="-0.5" />
              <BoundPropertyFloatElement Value="-1" />
              <BoundPropertyFloatElement Value="-0.5" />
              <BoundPropertyFloatElement Value="0" />
            </BoundPropertyFloatSet>
            <BoundPropertyInt Name="effectType" Value="3" />
            <BoundPropertyFloatSet Name="scale">
              <BoundPropertyFloatElement Value="0.85000002384185791" />
              <BoundPropertyFloatElement Value="0.85000002384185791" />
              <BoundPropertyFloatElement Value="0.85000002384185791" />
              <BoundPropertyFloatElement Value="0.85000002384185791" />
            </BoundPropertyFloatSet>
          </BoundProperties>
        </PanAndZoomShapeEffect>
      </Effects>
      <Transitions>
        <ShapeEffect effectTemplateID="BlurThroughBlackTransitionTemplate" duration="1.5">
          <BoundProperties />
        </ShapeEffect>
      </Transitions>
      <BoundProperties>
        <BoundPropertyInt Name="rotateStepNinety" Value="0" />
      </BoundProperties>
    </ImageClip>
    <ImageClip extentID="51" gapBefore="0" mediaItemID="47" duration="7.896860823809523">
      <Effects>
        <PanAndZoomShapeEffect effectTemplateID="PanAndZoomEffectAutomaticTemplate">
          <BoundProperties>
            <BoundPropertyFloatSet Name="center">
              <BoundPropertyFloatElement Value="-0.5" />
              <BoundPropertyFloatElement Value="-0.5" />
              <BoundPropertyFloatElement Value="-0.5" />
              <BoundPropertyFloatElement Value="-0.5" />
            </BoundPropertyFloatSet>
            <BoundPropertyInt Name="effectType" Value="5" />
            <BoundPropertyFloatSet Name="scale">
              <BoundPropertyFloatElement Value="1" />
              <BoundPropertyFloatElement Value="1" />
              <BoundPropertyFloatElement Value="0.85000002384185791" />
              <BoundPropertyFloatElement Value="0.85000002384185791" />
            </BoundPropertyFloatSet>
          </BoundProperties>
        </PanAndZoomShapeEffect>
      </Effects>
      <Transitions>
        <ShapeEffect effectTemplateID="BlurThroughBlackTransitionTemplate" duration="1.5">
          <BoundProperties />
        </ShapeEffect>
      </Transitions>
      <BoundProperties>
        <BoundPropertyInt Name="rotateStepNinety" Value="0" />
      </BoundProperties>
    </ImageClip>
    <ImageClip extentID="52" gapBefore="0" mediaItemID="48" duration="7.896860823809523">
      <Effects>
        <PanAndZoomShapeEffect effectTemplateID="PanAndZoomEffectAutomaticTemplate">
          <BoundProperties>
            <BoundPropertyFloatSet Name="center">
              <BoundPropertyFloatElement Value="-0.5" />
              <BoundPropertyFloatElement Value="0" />
              <BoundPropertyFloatElement Value="-0.5" />
              <BoundPropertyFloatElement Value="-1" />
            </BoundPropertyFloatSet>
            <BoundPropertyInt Name="effectType" Value="4" />
            <BoundPropertyFloatSet Name="scale">
              <BoundPropertyFloatElement Value="0.85000002384185791" />
              <BoundPropertyFloatElement Value="0.85000002384185791" />
              <BoundPropertyFloatElement Value="0.85000002384185791" />
              <BoundPropertyFloatElement Value="0.85000002384185791" />
            </BoundPropertyFloatSet>
          </BoundProperties>
        </PanAndZoomShapeEffect>
      </Effects>
      <Transitions>
        <ShapeEffect effectTemplateID="BlurThroughBlackTransitionTemplate" duration="1.5">
          <BoundProperties />
        </ShapeEffect>
      </Transitions>
      <BoundProperties>
        <BoundPropertyInt Name="rotateStepNinety" Value="0" />
      </BoundProperties>
    </ImageClip>
    <ImageClip extentID="53" gapBefore="0" mediaItemID="49" duration="7.896860823809523">
      <Effects>
        <PanAndZoomShapeEffect effectTemplateID="PanAndZoomEffectAutomaticTemplate">
          <BoundProperties>
            <BoundPropertyFloatSet Name="center">
              <BoundPropertyFloatElement Value="0" />
              <BoundPropertyFloatElement Value="-0.5" />
              <BoundPropertyFloatElement Value="0" />
              <BoundPropertyFloatElement Value="-0.5" />
            </BoundPropertyFloatSet>
            <BoundPropertyInt Name="effectType" Value="6" />
            <BoundPropertyFloatSet Name="scale">
              <BoundPropertyFloatElement Value="0.85000002384185791" />
              <BoundPropertyFloatElement Value="0.85000002384185791" />
              <BoundPropertyFloatElement Value="1" />
              <BoundPropertyFloatElement Value="1" />
            </BoundPropertyFloatSet>
          </BoundProperties>
        </PanAndZoomShapeEffect>
      </Effects>
      <Transitions>
        <ShapeEffect effectTemplateID="BlurThroughBlackTransitionTemplate" duration="1.5">
          <BoundProperties />
        </ShapeEffect>
      </Transitions>
      <BoundProperties>
        <BoundPropertyInt Name="rotateStepNinety" Value="0" />
      </BoundProperties>
    </ImageClip>
    <ImageClip extentID="54" gapBefore="0" mediaItemID="50" duration="7.896860823809523">
      <Effects>
        <PanAndZoomShapeEffect effectTemplateID="PanAndZoomEffectAutomaticTemplate">
          <BoundProperties>
            <BoundPropertyFloatSet Name="center">
              <BoundPropertyFloatElement Value="-0.5" />
              <BoundPropertyFloatElement Value="-1" />
              <BoundPropertyFloatElement Value="-0.5" />
              <BoundPropertyFloatElement Value="-1" />
            </BoundPropertyFloatSet>
            <BoundPropertyInt Name="effectType" Value="5" />
            <BoundPropertyFloatSet Name="scale">
              <BoundPropertyFloatElement Value="1" />
              <BoundPropertyFloatElement Value="1" />
              <BoundPropertyFloatElement Value="0.85000002384185791" />
              <BoundPropertyFloatElement Value="0.85000002384185791" />
            </BoundPropertyFloatSet>
          </BoundProperties>
        </PanAndZoomShapeEffect>
      </Effects>
      <Transitions>
        <ShapeEffect effectTemplateID="BlurThroughBlackTransitionTemplate" duration="1.5">
          <BoundProperties />
        </ShapeEffect>
      </Transitions>
      <BoundProperties>
        <BoundPropertyInt Name="rotateStepNinety" Value="0" />
      </BoundProperties>
    </ImageClip>
    <ImageClip extentID="55" gapBefore="0" mediaItemID="51" duration="7.896860823809523">
      <Effects>
        <PanAndZoomShapeEffect effectTemplateID="PanAndZoomEffectAutomaticTemplate">
          <BoundProperties>
            <BoundPropertyFloatSet Name="center">
              <BoundPropertyFloatElement Value="-0.5" />
              <BoundPropertyFloatElement Value="0" />
              <BoundPropertyFloatElement Value="-0.5" />
              <BoundPropertyFloatElement Value="-1" />
            </BoundPropertyFloatSet>
            <BoundPropertyInt Name="effectType" Value="4" />
            <BoundPropertyFloatSet Name="scale">
              <BoundPropertyFloatElement Value="0.85000002384185791" />
              <BoundPropertyFloatElement Value="0.85000002384185791" />
              <BoundPropertyFloatElement Value="0.85000002384185791" />
              <BoundPropertyFloatElement Value="0.85000002384185791" />
            </BoundPropertyFloatSet>
          </BoundProperties>
        </PanAndZoomShapeEffect>
      </Effects>
      <Transitions>
        <ShapeEffect effectTemplateID="BlurThroughBlackTransitionTemplate" duration="1.5">
          <BoundProperties />
        </ShapeEffect>
      </Transitions>
      <BoundProperties>
        <BoundPropertyInt Name="rotateStepNinety" Value="0" />
      </BoundProperties>
    </ImageClip>
    <ImageClip extentID="56" gapBefore="0" mediaItemID="52" duration="7.896860823809523">
      <Effects>
        <PanAndZoomShapeEffect effectTemplateID="PanAndZoomEffectAutomaticTemplate">
          <BoundProperties>
            <BoundPropertyFloatSet Name="center">
              <BoundPropertyFloatElement Value="-0.5" />
              <BoundPropertyFloatElement Value="-1" />
              <BoundPropertyFloatElement Value="-0.5" />
              <BoundPropertyFloatElement Value="0" />
            </BoundPropertyFloatSet>
            <BoundPropertyInt Name="effectType" Value="3" />
            <BoundPropertyFloatSet Name="scale">
              <BoundPropertyFloatElement Value="0.85000002384185791" />
              <BoundPropertyFloatElement Value="0.85000002384185791" />
              <BoundPropertyFloatElement Value="0.85000002384185791" />
              <BoundPropertyFloatElement Value="0.85000002384185791" />
            </BoundPropertyFloatSet>
          </BoundProperties>
        </PanAndZoomShapeEffect>
      </Effects>
      <Transitions>
        <ShapeEffect effectTemplateID="BlurThroughBlackTransitionTemplate" duration="1.5">
          <BoundProperties />
        </ShapeEffect>
      </Transitions>
      <BoundProperties>
        <BoundPropertyInt Name="rotateStepNinety" Value="0" />
      </BoundProperties>
    </ImageClip>
    <ImageClip extentID="57" gapBefore="0" mediaItemID="53" duration="7.896860823809523">
      <Effects>
        <PanAndZoomShapeEffect effectTemplateID="PanAndZoomEffectAutomaticTemplate">
          <BoundProperties>
            <BoundPropertyFloatSet Name="center">
              <BoundPropertyFloatElement Value="0" />
              <BoundPropertyFloatElement Value="-0.5" />
              <BoundPropertyFloatElement Value="0" />
              <BoundPropertyFloatElement Value="-0.5" />
            </BoundPropertyFloatSet>
            <BoundPropertyInt Name="effectType" Value="6" />
            <BoundPropertyFloatSet Name="scale">
              <BoundPropertyFloatElement Value="0.85000002384185791" />
              <BoundPropertyFloatElement Value="0.85000002384185791" />
              <BoundPropertyFloatElement Value="1" />
              <BoundPropertyFloatElement Value="1" />
            </BoundPropertyFloatSet>
          </BoundProperties>
        </PanAndZoomShapeEffect>
      </Effects>
      <Transitions>
        <ShapeEffect effectTemplateID="BlurThroughBlackTransitionTemplate" duration="1.5">
          <BoundProperties />
        </ShapeEffect>
      </Transitions>
      <BoundProperties>
        <BoundPropertyInt Name="rotateStepNinety" Value="3" />
      </BoundProperties>
    </ImageClip>
    <ImageClip extentID="58" gapBefore="0" mediaItemID="54" duration="7.896860823809523">
      <Effects>
        <PanAndZoomShapeEffect effectTemplateID="PanAndZoomEffectAutomaticTemplate">
          <BoundProperties>
            <BoundPropertyFloatSet Name="center">
              <BoundPropertyFloatElement Value="-0.5" />
              <BoundPropertyFloatElement Value="-1" />
              <BoundPropertyFloatElement Value="-0.5" />
              <BoundPropertyFloatElement Value="-1" />
            </BoundPropertyFloatSet>
            <BoundPropertyInt Name="effectType" Value="6" />
            <BoundPropertyFloatSet Name="scale">
              <BoundPropertyFloatElement Value="0.85000002384185791" />
              <BoundPropertyFloatElement Value="0.85000002384185791" />
              <BoundPropertyFloatElement Value="1" />
              <BoundPropertyFloatElement Value="1" />
            </BoundPropertyFloatSet>
          </BoundProperties>
        </PanAndZoomShapeEffect>
      </Effects>
      <Transitions>
        <ShapeEffect effectTemplateID="BlurThroughBlackTransitionTemplate" duration="1.5">
          <BoundProperties />
        </ShapeEffect>
      </Transitions>
      <BoundProperties>
        <BoundPropertyInt Name="rotateStepNinety" Value="0" />
      </BoundProperties>
    </ImageClip>
    <ImageClip extentID="59" gapBefore="0" mediaItemID="55" duration="7.896860823809523">
      <Effects>
        <PanAndZoomShapeEffect effectTemplateID="PanAndZoomEffectAutomaticTemplate">
          <BoundProperties>
            <BoundPropertyFloatSet Name="center">
              <BoundPropertyFloatElement Value="-1" />
              <BoundPropertyFloatElement Value="-0.5" />
              <BoundPropertyFloatElement Value="0" />
              <BoundPropertyFloatElement Value="-0.5" />
            </BoundPropertyFloatSet>
            <BoundPropertyInt Name="effectType" Value="2" />
            <BoundPropertyFloatSet Name="scale">
              <BoundPropertyFloatElement Value="0.85000002384185791" />
              <BoundPropertyFloatElement Value="0.85000002384185791" />
              <BoundPropertyFloatElement Value="0.85000002384185791" />
              <BoundPropertyFloatElement Value="0.85000002384185791" />
            </BoundPropertyFloatSet>
          </BoundProperties>
        </PanAndZoomShapeEffect>
      </Effects>
      <Transitions>
        <ShapeEffect effectTemplateID="BlurThroughBlackTransitionTemplate" duration="1.5">
          <BoundProperties />
        </ShapeEffect>
      </Transitions>
      <BoundProperties>
        <BoundPropertyInt Name="rotateStepNinety" Value="0" />
      </BoundProperties>
    </ImageClip>
    <ImageClip extentID="60" gapBefore="0" mediaItemID="56" duration="7.896860823809523">
      <Effects>
        <PanAndZoomShapeEffect effectTemplateID="PanAndZoomEffectAutomaticTemplate">
          <BoundProperties>
            <BoundPropertyFloatSet Name="center">
              <BoundPropertyFloatElement Value="0" />
              <BoundPropertyFloatElement Value="-0.5" />
              <BoundPropertyFloatElement Value="-1" />
              <BoundPropertyFloatElement Value="-0.5" />
            </BoundPropertyFloatSet>
            <BoundPropertyInt Name="effectType" Value="1" />
            <BoundPropertyFloatSet Name="scale">
              <BoundPropertyFloatElement Value="0.85000002384185791" />
              <BoundPropertyFloatElement Value="0.85000002384185791" />
              <BoundPropertyFloatElement Value="0.85000002384185791" />
              <BoundPropertyFloatElement Value="0.85000002384185791" />
            </BoundPropertyFloatSet>
          </BoundProperties>
        </PanAndZoomShapeEffect>
      </Effects>
      <Transitions>
        <ShapeEffect effectTemplateID="BlurThroughBlackTransitionTemplate" duration="1.5">
          <BoundProperties />
        </ShapeEffect>
      </Transitions>
      <BoundProperties>
        <BoundPropertyInt Name="rotateStepNinety" Value="0" />
      </BoundProperties>
    </ImageClip>
    <ImageClip extentID="61" gapBefore="0" mediaItemID="57" duration="7.896860823809523">
      <Effects>
        <PanAndZoomShapeEffect effectTemplateID="PanAndZoomEffectAutomaticTemplate">
          <BoundProperties>
            <BoundPropertyFloatSet Name="center">
              <BoundPropertyFloatElement Value="-1" />
              <BoundPropertyFloatElement Value="-1" />
              <BoundPropertyFloatElement Value="-1" />
              <BoundPropertyFloatElement Value="-1" />
            </BoundPropertyFloatSet>
            <BoundPropertyInt Name="effectType" Value="6" />
            <BoundPropertyFloatSet Name="scale">
              <BoundPropertyFloatElement Value="0.85000002384185791" />
              <BoundPropertyFloatElement Value="0.85000002384185791" />
              <BoundPropertyFloatElement Value="1" />
              <BoundPropertyFloatElement Value="1" />
            </BoundPropertyFloatSet>
          </BoundProperties>
        </PanAndZoomShapeEffect>
      </Effects>
      <Transitions>
        <ShapeEffect effectTemplateID="BlurThroughBlackTransitionTemplate" duration="1.5">
          <BoundProperties />
        </ShapeEffect>
      </Transitions>
      <BoundProperties>
        <BoundPropertyInt Name="rotateStepNinety" Value="0" />
      </BoundProperties>
    </ImageClip>
    <ImageClip extentID="62" gapBefore="0" mediaItemID="58" duration="7.896860823809523">
      <Effects>
        <PanAndZoomShapeEffect effectTemplateID="PanAndZoomEffectAutomaticTemplate">
          <BoundProperties>
            <BoundPropertyFloatSet Name="center">
              <BoundPropertyFloatElement Value="-0.5" />
              <BoundPropertyFloatElement Value="-1" />
              <BoundPropertyFloatElement Value="-0.5" />
              <BoundPropertyFloatElement Value="0" />
            </BoundPropertyFloatSet>
            <BoundPropertyInt Name="effectType" Value="3" />
            <BoundPropertyFloatSet Name="scale">
              <BoundPropertyFloatElement Value="0.85000002384185791" />
              <BoundPropertyFloatElement Value="0.85000002384185791" />
              <BoundPropertyFloatElement Value="0.85000002384185791" />
              <BoundPropertyFloatElement Value="0.85000002384185791" />
            </BoundPropertyFloatSet>
          </BoundProperties>
        </PanAndZoomShapeEffect>
      </Effects>
      <Transitions>
        <ShapeEffect effectTemplateID="BlurThroughBlackTransitionTemplate" duration="1.5">
          <BoundProperties />
        </ShapeEffect>
      </Transitions>
      <BoundProperties>
        <BoundPropertyInt Name="rotateStepNinety" Value="0" />
      </BoundProperties>
    </ImageClip>
    <ImageClip extentID="63" gapBefore="0" mediaItemID="59" duration="7.896860823809523">
      <Effects>
        <PanAndZoomShapeEffect effectTemplateID="PanAndZoomEffectAutomaticTemplate">
          <BoundProperties>
            <BoundPropertyFloatSet Name="center">
              <BoundPropertyFloatElement Value="-0.5" />
              <BoundPropertyFloatElement Value="-0.5" />
              <BoundPropertyFloatElement Value="-0.5" />
              <BoundPropertyFloatElement Value="-0.5" />
            </BoundPropertyFloatSet>
            <BoundPropertyInt Name="effectType" Value="5" />
            <BoundPropertyFloatSet Name="scale">
              <BoundPropertyFloatElement Value="1" />
              <BoundPropertyFloatElement Value="1" />
              <BoundPropertyFloatElement Value="0.85000002384185791" />
              <BoundPropertyFloatElement Value="0.85000002384185791" />
            </BoundPropertyFloatSet>
          </BoundProperties>
        </PanAndZoomShapeEffect>
      </Effects>
      <Transitions>
        <ShapeEffect effectTemplateID="BlurThroughBlackTransitionTemplate" duration="1.5">
          <BoundProperties />
        </ShapeEffect>
      </Transitions>
      <BoundProperties>
        <BoundPropertyInt Name="rotateStepNinety" Value="0" />
      </BoundProperties>
    </ImageClip>
    <ImageClip extentID="64" gapBefore="0" mediaItemID="60" duration="7.896860823809523">
      <Effects>
        <PanAndZoomShapeEffect effectTemplateID="PanAndZoomEffectAutomaticTemplate">
          <BoundProperties>
            <BoundPropertyFloatSet Name="center">
              <BoundPropertyFloatElement Value="-0.5" />
              <BoundPropertyFloatElement Value="-1" />
              <BoundPropertyFloatElement Value="-0.5" />
              <BoundPropertyFloatElement Value="0" />
            </BoundPropertyFloatSet>
            <BoundPropertyInt Name="effectType" Value="3" />
            <BoundPropertyFloatSet Name="scale">
              <BoundPropertyFloatElement Value="0.85000002384185791" />
              <BoundPropertyFloatElement Value="0.85000002384185791" />
              <BoundPropertyFloatElement Value="0.85000002384185791" />
              <BoundPropertyFloatElement Value="0.85000002384185791" />
            </BoundPropertyFloatSet>
          </BoundProperties>
        </PanAndZoomShapeEffect>
      </Effects>
      <Transitions>
        <ShapeEffect effectTemplateID="BlurThroughBlackTransitionTemplate" duration="1.5">
          <BoundProperties />
        </ShapeEffect>
      </Transitions>
      <BoundProperties>
        <BoundPropertyInt Name="rotateStepNinety" Value="0" />
      </BoundProperties>
    </ImageClip>
    <ImageClip extentID="65" gapBefore="0" mediaItemID="61" duration="7.896860823809523">
      <Effects>
        <PanAndZoomShapeEffect effectTemplateID="PanAndZoomEffectAutomaticTemplate">
          <BoundProperties>
            <BoundPropertyFloatSet Name="center">
              <BoundPropertyFloatElement Value="-0.5" />
              <BoundPropertyFloatElement Value="-0.5" />
              <BoundPropertyFloatElement Value="-0.5" />
              <BoundPropertyFloatElement Value="-0.5" />
            </BoundPropertyFloatSet>
            <BoundPropertyInt Name="effectType" Value="6" />
            <BoundPropertyFloatSet Name="scale">
              <BoundPropertyFloatElement Value="0.85000002384185791" />
              <BoundPropertyFloatElement Value="0.85000002384185791" />
              <BoundPropertyFloatElement Value="1" />
              <BoundPropertyFloatElement Value="1" />
            </BoundPropertyFloatSet>
          </BoundProperties>
        </PanAndZoomShapeEffect>
      </Effects>
      <Transitions>
        <ShapeEffect effectTemplateID="BlurThroughBlackTransitionTemplate" duration="1.5">
          <BoundProperties />
        </ShapeEffect>
      </Transitions>
      <BoundProperties>
        <BoundPropertyInt Name="rotateStepNinety" Value="0" />
      </BoundProperties>
    </ImageClip>
    <ImageClip extentID="66" gapBefore="0" mediaItemID="62" duration="7.896860823809523">
      <Effects>
        <PanAndZoomShapeEffect effectTemplateID="PanAndZoomEffectAutomaticTemplate">
          <BoundProperties>
            <BoundPropertyFloatSet Name="center">
              <BoundPropertyFloatElement Value="-0.5" />
              <BoundPropertyFloatElement Value="-1" />
              <BoundPropertyFloatElement Value="-0.5" />
              <BoundPropertyFloatElement Value="-1" />
            </BoundPropertyFloatSet>
            <BoundPropertyInt Name="effectType" Value="5" />
            <BoundPropertyFloatSet Name="scale">
              <BoundPropertyFloatElement Value="1" />
              <BoundPropertyFloatElement Value="1" />
              <BoundPropertyFloatElement Value="0.85000002384185791" />
              <BoundPropertyFloatElement Value="0.85000002384185791" />
            </BoundPropertyFloatSet>
          </BoundProperties>
        </PanAndZoomShapeEffect>
      </Effects>
      <Transitions>
        <ShapeEffect effectTemplateID="BlurThroughBlackTransitionTemplate" duration="1.5">
          <BoundProperties />
        </ShapeEffect>
      </Transitions>
      <BoundProperties>
        <BoundPropertyInt Name="rotateStepNinety" Value="0" />
      </BoundProperties>
    </ImageClip>
    <ImageClip extentID="67" gapBefore="0" mediaItemID="63" duration="7.896860823809523">
      <Effects>
        <PanAndZoomShapeEffect effectTemplateID="PanAndZoomEffectAutomaticTemplate">
          <BoundProperties>
            <BoundPropertyFloatSet Name="center">
              <BoundPropertyFloatElement Value="-0.5" />
              <BoundPropertyFloatElement Value="-1" />
              <BoundPropertyFloatElement Value="-0.5" />
              <BoundPropertyFloatElement Value="-1" />
            </BoundPropertyFloatSet>
            <BoundPropertyInt Name="effectType" Value="5" />
            <BoundPropertyFloatSet Name="scale">
              <BoundPropertyFloatElement Value="1" />
              <BoundPropertyFloatElement Value="1" />
              <BoundPropertyFloatElement Value="0.85000002384185791" />
              <BoundPropertyFloatElement Value="0.85000002384185791" />
            </BoundPropertyFloatSet>
          </BoundProperties>
        </PanAndZoomShapeEffect>
      </Effects>
      <Transitions>
        <ShapeEffect effectTemplateID="BlurThroughBlackTransitionTemplate" duration="1.5">
          <BoundProperties />
        </ShapeEffect>
      </Transitions>
      <BoundProperties>
        <BoundPropertyInt Name="rotateStepNinety" Value="0" />
      </BoundProperties>
    </ImageClip>
    <ImageClip extentID="68" gapBefore="0" mediaItemID="64" duration="7.896860823809523">
      <Effects>
        <PanAndZoomShapeEffect effectTemplateID="PanAndZoomEffectAutomaticTemplate">
          <BoundProperties>
            <BoundPropertyFloatSet Name="center">
              <BoundPropertyFloatElement Value="-1" />
              <BoundPropertyFloatElement Value="-0.5" />
              <BoundPropertyFloatElement Value="0" />
              <BoundPropertyFloatElement Value="-0.5" />
            </BoundPropertyFloatSet>
            <BoundPropertyInt Name="effectType" Value="2" />
            <BoundPropertyFloatSet Name="scale">
              <BoundPropertyFloatElement Value="0.85000002384185791" />
              <BoundPropertyFloatElement Value="0.85000002384185791" />
              <BoundPropertyFloatElement Value="0.85000002384185791" />
              <BoundPropertyFloatElement Value="0.85000002384185791" />
            </BoundPropertyFloatSet>
          </BoundProperties>
        </PanAndZoomShapeEffect>
      </Effects>
      <Transitions>
        <ShapeEffect effectTemplateID="BlurThroughBlackTransitionTemplate" duration="1.5">
          <BoundProperties />
        </ShapeEffect>
      </Transitions>
      <BoundProperties>
        <BoundPropertyInt Name="rotateStepNinety" Value="0" />
      </BoundProperties>
    </ImageClip>
    <ImageClip extentID="69" gapBefore="0" mediaItemID="65" duration="7.896860823809523">
      <Effects>
        <PanAndZoomShapeEffect effectTemplateID="PanAndZoomEffectAutomaticTemplate">
          <BoundProperties>
            <BoundPropertyFloatSet Name="center">
              <BoundPropertyFloatElement Value="-0.5" />
              <BoundPropertyFloatElement Value="0" />
              <BoundPropertyFloatElement Value="-0.5" />
              <BoundPropertyFloatElement Value="-1" />
            </BoundPropertyFloatSet>
            <BoundPropertyInt Name="effectType" Value="4" />
            <BoundPropertyFloatSet Name="scale">
              <BoundPropertyFloatElement Value="0.85000002384185791" />
              <BoundPropertyFloatElement Value="0.85000002384185791" />
              <BoundPropertyFloatElement Value="0.85000002384185791" />
              <BoundPropertyFloatElement Value="0.85000002384185791" />
            </BoundPropertyFloatSet>
          </BoundProperties>
        </PanAndZoomShapeEffect>
      </Effects>
      <Transitions>
        <ShapeEffect effectTemplateID="BlurThroughBlackTransitionTemplate" duration="1.5">
          <BoundProperties />
        </ShapeEffect>
      </Transitions>
      <BoundProperties>
        <BoundPropertyInt Name="rotateStepNinety" Value="0" />
      </BoundProperties>
    </ImageClip>
    <ImageClip extentID="70" gapBefore="0" mediaItemID="66" duration="7.896860823809523">
      <Effects>
        <PanAndZoomShapeEffect effectTemplateID="PanAndZoomEffectAutomaticTemplate">
          <BoundProperties>
            <BoundPropertyFloatSet Name="center">
              <BoundPropertyFloatElement Value="-1" />
              <BoundPropertyFloatElement Value="-0.5" />
              <BoundPropertyFloatElement Value="0" />
              <BoundPropertyFloatElement Value="-0.5" />
            </BoundPropertyFloatSet>
            <BoundPropertyInt Name="effectType" Value="2" />
            <BoundPropertyFloatSet Name="scale">
              <BoundPropertyFloatElement Value="0.85000002384185791" />
              <BoundPropertyFloatElement Value="0.85000002384185791" />
              <BoundPropertyFloatElement Value="0.85000002384185791" />
              <BoundPropertyFloatElement Value="0.85000002384185791" />
            </BoundPropertyFloatSet>
          </BoundProperties>
        </PanAndZoomShapeEffect>
      </Effects>
      <Transitions>
        <ShapeEffect effectTemplateID="BlurThroughBlackTransitionTemplate" duration="1.5">
          <BoundProperties />
        </ShapeEffect>
      </Transitions>
      <BoundProperties>
        <BoundPropertyInt Name="rotateStepNinety" Value="0" />
      </BoundProperties>
    </ImageClip>
    <ImageClip extentID="71" gapBefore="0" mediaItemID="67" duration="7.896860823809523">
      <Effects>
        <PanAndZoomShapeEffect effectTemplateID="PanAndZoomEffectAutomaticTemplate">
          <BoundProperties>
            <BoundPropertyFloatSet Name="center">
              <BoundPropertyFloatElement Value="0" />
              <BoundPropertyFloatElement Value="-1" />
              <BoundPropertyFloatElement Value="0" />
              <BoundPropertyFloatElement Value="-1" />
            </BoundPropertyFloatSet>
            <BoundPropertyInt Name="effectType" Value="6" />
            <BoundPropertyFloatSet Name="scale">
              <BoundPropertyFloatElement Value="0.85000002384185791" />
              <BoundPropertyFloatElement Value="0.85000002384185791" />
              <BoundPropertyFloatElement Value="1" />
              <BoundPropertyFloatElement Value="1" />
            </BoundPropertyFloatSet>
          </BoundProperties>
        </PanAndZoomShapeEffect>
      </Effects>
      <Transitions>
        <ShapeEffect effectTemplateID="BlurThroughBlackTransitionTemplate" duration="1.5">
          <BoundProperties />
        </ShapeEffect>
      </Transitions>
      <BoundProperties>
        <BoundPropertyInt Name="rotateStepNinety" Value="0" />
      </BoundProperties>
    </ImageClip>
    <ImageClip extentID="72" gapBefore="0" mediaItemID="68" duration="7.896860823809523">
      <Effects>
        <PanAndZoomShapeEffect effectTemplateID="PanAndZoomEffectAutomaticTemplate">
          <BoundProperties>
            <BoundPropertyFloatSet Name="center">
              <BoundPropertyFloatElement Value="-1" />
              <BoundPropertyFloatElement Value="-1" />
              <BoundPropertyFloatElement Value="-1" />
              <BoundPropertyFloatElement Value="-1" />
            </BoundPropertyFloatSet>
            <BoundPropertyInt Name="effectType" Value="5" />
            <BoundPropertyFloatSet Name="scale">
              <BoundPropertyFloatElement Value="1" />
              <BoundPropertyFloatElement Value="1" />
              <BoundPropertyFloatElement Value="0.85000002384185791" />
              <BoundPropertyFloatElement Value="0.85000002384185791" />
            </BoundPropertyFloatSet>
          </BoundProperties>
        </PanAndZoomShapeEffect>
      </Effects>
      <Transitions>
        <ShapeEffect effectTemplateID="BlurThroughBlackTransitionTemplate" duration="1.5">
          <BoundProperties />
        </ShapeEffect>
      </Transitions>
      <BoundProperties>
        <BoundPropertyInt Name="rotateStepNinety" Value="0" />
      </BoundProperties>
    </ImageClip>
    <ImageClip extentID="73" gapBefore="0" mediaItemID="69" duration="7.896860823809523">
      <Effects>
        <PanAndZoomShapeEffect effectTemplateID="PanAndZoomEffectAutomaticTemplate">
          <BoundProperties>
            <BoundPropertyFloatSet Name="center">
              <BoundPropertyFloatElement Value="-0.5" />
              <BoundPropertyFloatElement Value="-0.5" />
              <BoundPropertyFloatElement Value="-0.5" />
              <BoundPropertyFloatElement Value="-0.5" />
            </BoundPropertyFloatSet>
            <BoundPropertyInt Name="effectType" Value="6" />
            <BoundPropertyFloatSet Name="scale">
              <BoundPropertyFloatElement Value="0.85000002384185791" />
              <BoundPropertyFloatElement Value="0.85000002384185791" />
              <BoundPropertyFloatElement Value="1" />
              <BoundPropertyFloatElement Value="1" />
            </BoundPropertyFloatSet>
          </BoundProperties>
        </PanAndZoomShapeEffect>
      </Effects>
      <Transitions>
        <ShapeEffect effectTemplateID="BlurThroughBlackTransitionTemplate" duration="1.5">
          <BoundProperties />
        </ShapeEffect>
      </Transitions>
      <BoundProperties>
        <BoundPropertyInt Name="rotateStepNinety" Value="0" />
      </BoundProperties>
    </ImageClip>
    <ImageClip extentID="74" gapBefore="0" mediaItemID="70" duration="7.896860823809523">
      <Effects>
        <PanAndZoomShapeEffect effectTemplateID="PanAndZoomEffectAutomaticTemplate">
          <BoundProperties>
            <BoundPropertyFloatSet Name="center">
              <BoundPropertyFloatElement Value="-0.5" />
              <BoundPropertyFloatElement Value="-1" />
              <BoundPropertyFloatElement Value="-0.5" />
              <BoundPropertyFloatElement Value="0" />
            </BoundPropertyFloatSet>
            <BoundPropertyInt Name="effectType" Value="3" />
            <BoundPropertyFloatSet Name="scale">
              <BoundPropertyFloatElement Value="0.85000002384185791" />
              <BoundPropertyFloatElement Value="0.85000002384185791" />
              <BoundPropertyFloatElement Value="0.85000002384185791" />
              <BoundPropertyFloatElement Value="0.85000002384185791" />
            </BoundPropertyFloatSet>
          </BoundProperties>
        </PanAndZoomShapeEffect>
      </Effects>
      <Transitions>
        <ShapeEffect effectTemplateID="BlurThroughBlackTransitionTemplate" duration="1.5">
          <BoundProperties />
        </ShapeEffect>
      </Transitions>
      <BoundProperties>
        <BoundPropertyInt Name="rotateStepNinety" Value="0" />
      </BoundProperties>
    </ImageClip>
    <ImageClip extentID="75" gapBefore="0" mediaItemID="71" duration="7.896860823809523">
      <Effects>
        <PanAndZoomShapeEffect effectTemplateID="PanAndZoomEffectAutomaticTemplate">
          <BoundProperties>
            <BoundPropertyFloatSet Name="center">
              <BoundPropertyFloatElement Value="-0.5" />
              <BoundPropertyFloatElement Value="-0.5" />
              <BoundPropertyFloatElement Value="-0.5" />
              <BoundPropertyFloatElement Value="-0.5" />
            </BoundPropertyFloatSet>
            <BoundPropertyInt Name="effectType" Value="6" />
            <BoundPropertyFloatSet Name="scale">
              <BoundPropertyFloatElement Value="0.85000002384185791" />
              <BoundPropertyFloatElement Value="0.85000002384185791" />
              <BoundPropertyFloatElement Value="1" />
              <BoundPropertyFloatElement Value="1" />
            </BoundPropertyFloatSet>
          </BoundProperties>
        </PanAndZoomShapeEffect>
      </Effects>
      <Transitions>
        <ShapeEffect effectTemplateID="BlurThroughBlackTransitionTemplate" duration="1.5">
          <BoundProperties />
        </ShapeEffect>
      </Transitions>
      <BoundProperties>
        <BoundPropertyInt Name="rotateStepNinety" Value="0" />
      </BoundProperties>
    </ImageClip>
    <ImageClip extentID="76" gapBefore="0" mediaItemID="72" duration="7.896860823809523">
      <Effects>
        <PanAndZoomShapeEffect effectTemplateID="PanAndZoomEffectAutomaticTemplate">
          <BoundProperties>
            <BoundPropertyFloatSet Name="center">
              <BoundPropertyFloatElement Value="-1" />
              <BoundPropertyFloatElement Value="-0.5" />
              <BoundPropertyFloatElement Value="0" />
              <BoundPropertyFloatElement Value="-0.5" />
            </BoundPropertyFloatSet>
            <BoundPropertyInt Name="effectType" Value="2" />
            <BoundPropertyFloatSet Name="scale">
              <BoundPropertyFloatElement Value="0.85000002384185791" />
              <BoundPropertyFloatElement Value="0.85000002384185791" />
              <BoundPropertyFloatElement Value="0.85000002384185791" />
              <BoundPropertyFloatElement Value="0.85000002384185791" />
            </BoundPropertyFloatSet>
          </BoundProperties>
        </PanAndZoomShapeEffect>
      </Effects>
      <Transitions>
        <ShapeEffect effectTemplateID="BlurThroughBlackTransitionTemplate" duration="1.5">
          <BoundProperties />
        </ShapeEffect>
      </Transitions>
      <BoundProperties>
        <BoundPropertyInt Name="rotateStepNinety" Value="0" />
      </BoundProperties>
    </ImageClip>
    <ImageClip extentID="77" gapBefore="0" mediaItemID="73" duration="7.896860823809523">
      <Effects>
        <PanAndZoomShapeEffect effectTemplateID="PanAndZoomEffectAutomaticTemplate">
          <BoundProperties>
            <BoundPropertyFloatSet Name="center">
              <BoundPropertyFloatElement Value="-0.5" />
              <BoundPropertyFloatElement Value="0" />
              <BoundPropertyFloatElement Value="-0.5" />
              <BoundPropertyFloatElement Value="-1" />
            </BoundPropertyFloatSet>
            <BoundPropertyInt Name="effectType" Value="4" />
            <BoundPropertyFloatSet Name="scale">
              <BoundPropertyFloatElement Value="0.85000002384185791" />
              <BoundPropertyFloatElement Value="0.85000002384185791" />
              <BoundPropertyFloatElement Value="0.85000002384185791" />
              <BoundPropertyFloatElement Value="0.85000002384185791" />
            </BoundPropertyFloatSet>
          </BoundProperties>
        </PanAndZoomShapeEffect>
      </Effects>
      <Transitions>
        <ShapeEffect effectTemplateID="BlurThroughBlackTransitionTemplate" duration="1.5">
          <BoundProperties />
        </ShapeEffect>
      </Transitions>
      <BoundProperties>
        <BoundPropertyInt Name="rotateStepNinety" Value="0" />
      </BoundProperties>
    </ImageClip>
    <ImageClip extentID="78" gapBefore="0" mediaItemID="74" duration="7.896860823809523">
      <Effects>
        <PanAndZoomShapeEffect effectTemplateID="PanAndZoomEffectAutomaticTemplate">
          <BoundProperties>
            <BoundPropertyFloatSet Name="center">
              <BoundPropertyFloatElement Value="-0.5" />
              <BoundPropertyFloatElement Value="-1" />
              <BoundPropertyFloatElement Value="-0.5" />
              <BoundPropertyFloatElement Value="0" />
            </BoundPropertyFloatSet>
            <BoundPropertyInt Name="effectType" Value="3" />
            <BoundPropertyFloatSet Name="scale">
              <BoundPropertyFloatElement Value="0.85000002384185791" />
              <BoundPropertyFloatElement Value="0.85000002384185791" />
              <BoundPropertyFloatElement Value="0.85000002384185791" />
              <BoundPropertyFloatElement Value="0.85000002384185791" />
            </BoundPropertyFloatSet>
          </BoundProperties>
        </PanAndZoomShapeEffect>
      </Effects>
      <Transitions>
        <ShapeEffect effectTemplateID="BlurThroughBlackTransitionTemplate" duration="1.5">
          <BoundProperties />
        </ShapeEffect>
      </Transitions>
      <BoundProperties>
        <BoundPropertyInt Name="rotateStepNinety" Value="0" />
      </BoundProperties>
    </ImageClip>
    <ImageClip extentID="79" gapBefore="0" mediaItemID="75" duration="7.896860823809523">
      <Effects>
        <PanAndZoomShapeEffect effectTemplateID="PanAndZoomEffectAutomaticTemplate">
          <BoundProperties>
            <BoundPropertyFloatSet Name="center">
              <BoundPropertyFloatElement Value="-0.5" />
              <BoundPropertyFloatElement Value="-0.5" />
              <BoundPropertyFloatElement Value="-0.5" />
              <BoundPropertyFloatElement Value="-0.5" />
            </BoundPropertyFloatSet>
            <BoundPropertyInt Name="effectType" Value="6" />
            <BoundPropertyFloatSet Name="scale">
              <BoundPropertyFloatElement Value="0.85000002384185791" />
              <BoundPropertyFloatElement Value="0.85000002384185791" />
              <BoundPropertyFloatElement Value="1" />
              <BoundPropertyFloatElement Value="1" />
            </BoundPropertyFloatSet>
          </BoundProperties>
        </PanAndZoomShapeEffect>
      </Effects>
      <Transitions>
        <ShapeEffect effectTemplateID="BlurThroughBlackTransitionTemplate" duration="1.5">
          <BoundProperties />
        </ShapeEffect>
      </Transitions>
      <BoundProperties>
        <BoundPropertyInt Name="rotateStepNinety" Value="0" />
      </BoundProperties>
    </ImageClip>
    <ImageClip extentID="80" gapBefore="0" mediaItemID="76" duration="7.896860823809523">
      <Effects>
        <PanAndZoomShapeEffect effectTemplateID="PanAndZoomEffectAutomaticTemplate">
          <BoundProperties>
            <BoundPropertyFloatSet Name="center">
              <BoundPropertyFloatElement Value="-1" />
              <BoundPropertyFloatElement Value="-1" />
              <BoundPropertyFloatElement Value="-1" />
              <BoundPropertyFloatElement Value="-1" />
            </BoundPropertyFloatSet>
            <BoundPropertyInt Name="effectType" Value="5" />
            <BoundPropertyFloatSet Name="scale">
              <BoundPropertyFloatElement Value="1" />
              <BoundPropertyFloatElement Value="1" />
              <BoundPropertyFloatElement Value="0.85000002384185791" />
              <BoundPropertyFloatElement Value="0.85000002384185791" />
            </BoundPropertyFloatSet>
          </BoundProperties>
        </PanAndZoomShapeEffect>
      </Effects>
      <Transitions>
        <ShapeEffect effectTemplateID="BlurThroughBlackTransitionTemplate" duration="1.5">
          <BoundProperties />
        </ShapeEffect>
      </Transitions>
      <BoundProperties>
        <BoundPropertyInt Name="rotateStepNinety" Value="0" />
      </BoundProperties>
    </ImageClip>
    <ImageClip extentID="81" gapBefore="0" mediaItemID="77" duration="7.896860823809523">
      <Effects>
        <PanAndZoomShapeEffect effectTemplateID="PanAndZoomEffectAutomaticTemplate">
          <BoundProperties>
            <BoundPropertyFloatSet Name="center">
              <BoundPropertyFloatElement Value="-0.5" />
              <BoundPropertyFloatElement Value="0" />
              <BoundPropertyFloatElement Value="-0.5" />
              <BoundPropertyFloatElement Value="-1" />
            </BoundPropertyFloatSet>
            <BoundPropertyInt Name="effectType" Value="4" />
            <BoundPropertyFloatSet Name="scale">
              <BoundPropertyFloatElement Value="0.85000002384185791" />
              <BoundPropertyFloatElement Value="0.85000002384185791" />
              <BoundPropertyFloatElement Value="0.85000002384185791" />
              <BoundPropertyFloatElement Value="0.85000002384185791" />
            </BoundPropertyFloatSet>
          </BoundProperties>
        </PanAndZoomShapeEffect>
      </Effects>
      <Transitions>
        <ShapeEffect effectTemplateID="BlurThroughBlackTransitionTemplate" duration="1.5">
          <BoundProperties />
        </ShapeEffect>
      </Transitions>
      <BoundProperties>
        <BoundPropertyInt Name="rotateStepNinety" Value="0" />
      </BoundProperties>
    </ImageClip>
    <ImageClip extentID="82" gapBefore="0" mediaItemID="78" duration="7.896860823809523">
      <Effects>
        <PanAndZoomShapeEffect effectTemplateID="PanAndZoomEffectAutomaticTemplate">
          <BoundProperties>
            <BoundPropertyFloatSet Name="center">
              <BoundPropertyFloatElement Value="-0.5" />
              <BoundPropertyFloatElement Value="-1" />
              <BoundPropertyFloatElement Value="-0.5" />
              <BoundPropertyFloatElement Value="0" />
            </BoundPropertyFloatSet>
            <BoundPropertyInt Name="effectType" Value="3" />
            <BoundPropertyFloatSet Name="scale">
              <BoundPropertyFloatElement Value="0.85000002384185791" />
              <BoundPropertyFloatElement Value="0.85000002384185791" />
              <BoundPropertyFloatElement Value="0.85000002384185791" />
              <BoundPropertyFloatElement Value="0.85000002384185791" />
            </BoundPropertyFloatSet>
          </BoundProperties>
        </PanAndZoomShapeEffect>
      </Effects>
      <Transitions>
        <ShapeEffect effectTemplateID="BlurThroughBlackTransitionTemplate" duration="1.5">
          <BoundProperties />
        </ShapeEffect>
      </Transitions>
      <BoundProperties>
        <BoundPropertyInt Name="rotateStepNinety" Value="0" />
      </BoundProperties>
    </ImageClip>
    <ImageClip extentID="83" gapBefore="0" mediaItemID="79" duration="7.896860823809523">
      <Effects>
        <PanAndZoomShapeEffect effectTemplateID="PanAndZoomEffectAutomaticTemplate">
          <BoundProperties>
            <BoundPropertyFloatSet Name="center">
              <BoundPropertyFloatElement Value="0" />
              <BoundPropertyFloatElement Value="-0.5" />
              <BoundPropertyFloatElement Value="-1" />
              <BoundPropertyFloatElement Value="-0.5" />
            </BoundPropertyFloatSet>
            <BoundPropertyInt Name="effectType" Value="1" />
            <BoundPropertyFloatSet Name="scale">
              <BoundPropertyFloatElement Value="0.85000002384185791" />
              <BoundPropertyFloatElement Value="0.85000002384185791" />
              <BoundPropertyFloatElement Value="0.85000002384185791" />
              <BoundPropertyFloatElement Value="0.85000002384185791" />
            </BoundPropertyFloatSet>
          </BoundProperties>
        </PanAndZoomShapeEffect>
      </Effects>
      <Transitions>
        <ShapeEffect effectTemplateID="BlurThroughBlackTransitionTemplate" duration="1.5">
          <BoundProperties />
        </ShapeEffect>
      </Transitions>
      <BoundProperties>
        <BoundPropertyInt Name="rotateStepNinety" Value="0" />
      </BoundProperties>
    </ImageClip>
    <ImageClip extentID="84" gapBefore="0" mediaItemID="80" duration="7.896860823809523">
      <Effects>
        <PanAndZoomShapeEffect effectTemplateID="PanAndZoomEffectAutomaticTemplate">
          <BoundProperties>
            <BoundPropertyFloatSet Name="center">
              <BoundPropertyFloatElement Value="0" />
              <BoundPropertyFloatElement Value="-0.5" />
              <BoundPropertyFloatElement Value="0" />
              <BoundPropertyFloatElement Value="-0.5" />
            </BoundPropertyFloatSet>
            <BoundPropertyInt Name="effectType" Value="6" />
            <BoundPropertyFloatSet Name="scale">
              <BoundPropertyFloatElement Value="0.85000002384185791" />
              <BoundPropertyFloatElement Value="0.85000002384185791" />
              <BoundPropertyFloatElement Value="1" />
              <BoundPropertyFloatElement Value="1" />
            </BoundPropertyFloatSet>
          </BoundProperties>
        </PanAndZoomShapeEffect>
      </Effects>
      <Transitions>
        <ShapeEffect effectTemplateID="BlurThroughBlackTransitionTemplate" duration="1.5">
          <BoundProperties />
        </ShapeEffect>
      </Transitions>
      <BoundProperties>
        <BoundPropertyInt Name="rotateStepNinety" Value="0" />
      </BoundProperties>
    </ImageClip>
    <ImageClip extentID="85" gapBefore="0" mediaItemID="81" duration="7.896860823809523">
      <Effects>
        <PanAndZoomShapeEffect effectTemplateID="PanAndZoomEffectAutomaticTemplate">
          <BoundProperties>
            <BoundPropertyFloatSet Name="center">
              <BoundPropertyFloatElement Value="-0.5" />
              <BoundPropertyFloatElement Value="-1" />
              <BoundPropertyFloatElement Value="-0.5" />
              <BoundPropertyFloatElement Value="-1" />
            </BoundPropertyFloatSet>
            <BoundPropertyInt Name="effectType" Value="5" />
            <BoundPropertyFloatSet Name="scale">
              <BoundPropertyFloatElement Value="1" />
              <BoundPropertyFloatElement Value="1" />
              <BoundPropertyFloatElement Value="0.85000002384185791" />
              <BoundPropertyFloatElement Value="0.85000002384185791" />
            </BoundPropertyFloatSet>
          </BoundProperties>
        </PanAndZoomShapeEffect>
      </Effects>
      <Transitions>
        <ShapeEffect effectTemplateID="BlurThroughBlackTransitionTemplate" duration="1.5">
          <BoundProperties />
        </ShapeEffect>
      </Transitions>
      <BoundProperties>
        <BoundPropertyInt Name="rotateStepNinety" Value="0" />
      </BoundProperties>
    </ImageClip>
    <ImageClip extentID="86" gapBefore="0" mediaItemID="82" duration="7.896860823809523">
      <Effects>
        <PanAndZoomShapeEffect effectTemplateID="PanAndZoomEffectAutomaticTemplate">
          <BoundProperties>
            <BoundPropertyFloatSet Name="center">
              <BoundPropertyFloatElement Value="-0.5" />
              <BoundPropertyFloatElement Value="0" />
              <BoundPropertyFloatElement Value="-0.5" />
              <BoundPropertyFloatElement Value="-1" />
            </BoundPropertyFloatSet>
            <BoundPropertyInt Name="effectType" Value="4" />
            <BoundPropertyFloatSet Name="scale">
              <BoundPropertyFloatElement Value="0.85000002384185791" />
              <BoundPropertyFloatElement Value="0.85000002384185791" />
              <BoundPropertyFloatElement Value="0.85000002384185791" />
              <BoundPropertyFloatElement Value="0.85000002384185791" />
            </BoundPropertyFloatSet>
          </BoundProperties>
        </PanAndZoomShapeEffect>
      </Effects>
      <Transitions>
        <ShapeEffect effectTemplateID="BlurThroughBlackTransitionTemplate" duration="1.5">
          <BoundProperties />
        </ShapeEffect>
      </Transitions>
      <BoundProperties>
        <BoundPropertyInt Name="rotateStepNinety" Value="0" />
      </BoundProperties>
    </ImageClip>
    <ImageClip extentID="87" gapBefore="0" mediaItemID="83" duration="7.896860823809523">
      <Effects>
        <PanAndZoomShapeEffect effectTemplateID="PanAndZoomEffectAutomaticTemplate">
          <BoundProperties>
            <BoundPropertyFloatSet Name="center">
              <BoundPropertyFloatElement Value="-0.5" />
              <BoundPropertyFloatElement Value="-1" />
              <BoundPropertyFloatElement Value="-0.5" />
              <BoundPropertyFloatElement Value="-1" />
            </BoundPropertyFloatSet>
            <BoundPropertyInt Name="effectType" Value="6" />
            <BoundPropertyFloatSet Name="scale">
              <BoundPropertyFloatElement Value="0.85000002384185791" />
              <BoundPropertyFloatElement Value="0.85000002384185791" />
              <BoundPropertyFloatElement Value="1" />
              <BoundPropertyFloatElement Value="1" />
            </BoundPropertyFloatSet>
          </BoundProperties>
        </PanAndZoomShapeEffect>
      </Effects>
      <Transitions>
        <ShapeEffect effectTemplateID="BlurThroughBlackTransitionTemplate" duration="1.5">
          <BoundProperties />
        </ShapeEffect>
      </Transitions>
      <BoundProperties>
        <BoundPropertyInt Name="rotateStepNinety" Value="0" />
      </BoundProperties>
    </ImageClip>
    <ImageClip extentID="88" gapBefore="0" mediaItemID="84" duration="7.896860823809523">
      <Effects>
        <PanAndZoomShapeEffect effectTemplateID="PanAndZoomEffectAutomaticTemplate">
          <BoundProperties>
            <BoundPropertyFloatSet Name="center">
              <BoundPropertyFloatElement Value="-0.5" />
              <BoundPropertyFloatElement Value="-0.5" />
              <BoundPropertyFloatElement Value="-0.5" />
              <BoundPropertyFloatElement Value="-0.5" />
            </BoundPropertyFloatSet>
            <BoundPropertyInt Name="effectType" Value="6" />
            <BoundPropertyFloatSet Name="scale">
              <BoundPropertyFloatElement Value="0.85000002384185791" />
              <BoundPropertyFloatElement Value="0.85000002384185791" />
              <BoundPropertyFloatElement Value="1" />
              <BoundPropertyFloatElement Value="1" />
            </BoundPropertyFloatSet>
          </BoundProperties>
        </PanAndZoomShapeEffect>
      </Effects>
      <Transitions>
        <ShapeEffect effectTemplateID="BlurThroughBlackTransitionTemplate" duration="1.5">
          <BoundProperties />
        </ShapeEffect>
      </Transitions>
      <BoundProperties>
        <BoundPropertyInt Name="rotateStepNinety" Value="0" />
      </BoundProperties>
    </ImageClip>
    <ImageClip extentID="89" gapBefore="0" mediaItemID="85" duration="7.896860823809523">
      <Effects>
        <PanAndZoomShapeEffect effectTemplateID="PanAndZoomEffectAutomaticTemplate">
          <BoundProperties>
            <BoundPropertyFloatSet Name="center">
              <BoundPropertyFloatElement Value="-0.5" />
              <BoundPropertyFloatElement Value="0" />
              <BoundPropertyFloatElement Value="-0.5" />
              <BoundPropertyFloatElement Value="-1" />
            </BoundPropertyFloatSet>
            <BoundPropertyInt Name="effectType" Value="4" />
            <BoundPropertyFloatSet Name="scale">
              <BoundPropertyFloatElement Value="0.85000002384185791" />
              <BoundPropertyFloatElement Value="0.85000002384185791" />
              <BoundPropertyFloatElement Value="0.85000002384185791" />
              <BoundPropertyFloatElement Value="0.85000002384185791" />
            </BoundPropertyFloatSet>
          </BoundProperties>
        </PanAndZoomShapeEffect>
      </Effects>
      <Transitions>
        <ShapeEffect effectTemplateID="BlurThroughBlackTransitionTemplate" duration="1.5">
          <BoundProperties />
        </ShapeEffect>
      </Transitions>
      <BoundProperties>
        <BoundPropertyInt Name="rotateStepNinety" Value="0" />
      </BoundProperties>
    </ImageClip>
    <ImageClip extentID="90" gapBefore="0" mediaItemID="86" duration="7.896860823809523">
      <Effects>
        <PanAndZoomShapeEffect effectTemplateID="PanAndZoomEffectAutomaticTemplate">
          <BoundProperties>
            <BoundPropertyFloatSet Name="center">
              <BoundPropertyFloatElement Value="-0.5" />
              <BoundPropertyFloatElement Value="-0.5" />
              <BoundPropertyFloatElement Value="-0.5" />
              <BoundPropertyFloatElement Value="-0.5" />
            </BoundPropertyFloatSet>
            <BoundPropertyInt Name="effectType" Value="6" />
            <BoundPropertyFloatSet Name="scale">
              <BoundPropertyFloatElement Value="0.85000002384185791" />
              <BoundPropertyFloatElement Value="0.85000002384185791" />
              <BoundPropertyFloatElement Value="1" />
              <BoundPropertyFloatElement Value="1" />
            </BoundPropertyFloatSet>
          </BoundProperties>
        </PanAndZoomShapeEffect>
      </Effects>
      <Transitions>
        <ShapeEffect effectTemplateID="BlurThroughBlackTransitionTemplate" duration="1.5">
          <BoundProperties />
        </ShapeEffect>
      </Transitions>
      <BoundProperties>
        <BoundPropertyInt Name="rotateStepNinety" Value="0" />
      </BoundProperties>
    </ImageClip>
    <ImageClip extentID="91" gapBefore="0" mediaItemID="87" duration="7.896860823809523">
      <Effects>
        <PanAndZoomShapeEffect effectTemplateID="PanAndZoomEffectAutomaticTemplate">
          <BoundProperties>
            <BoundPropertyFloatSet Name="center">
              <BoundPropertyFloatElement Value="-1" />
              <BoundPropertyFloatElement Value="-0.5" />
              <BoundPropertyFloatElement Value="-1" />
              <BoundPropertyFloatElement Value="-0.5" />
            </BoundPropertyFloatSet>
            <BoundPropertyInt Name="effectType" Value="6" />
            <BoundPropertyFloatSet Name="scale">
              <BoundPropertyFloatElement Value="0.85000002384185791" />
              <BoundPropertyFloatElement Value="0.85000002384185791" />
              <BoundPropertyFloatElement Value="1" />
              <BoundPropertyFloatElement Value="1" />
            </BoundPropertyFloatSet>
          </BoundProperties>
        </PanAndZoomShapeEffect>
      </Effects>
      <Transitions>
        <ShapeEffect effectTemplateID="BlurThroughBlackTransitionTemplate" duration="1.5">
          <BoundProperties />
        </ShapeEffect>
      </Transitions>
      <BoundProperties>
        <BoundPropertyInt Name="rotateStepNinety" Value="0" />
      </BoundProperties>
    </ImageClip>
    <ImageClip extentID="92" gapBefore="0" mediaItemID="88" duration="7.896860823809523">
      <Effects>
        <PanAndZoomShapeEffect effectTemplateID="PanAndZoomEffectAutomaticTemplate">
          <BoundProperties>
            <BoundPropertyFloatSet Name="center">
              <BoundPropertyFloatElement Value="-0.5" />
              <BoundPropertyFloatElement Value="0" />
              <BoundPropertyFloatElement Value="-0.5" />
              <BoundPropertyFloatElement Value="-1" />
            </BoundPropertyFloatSet>
            <BoundPropertyInt Name="effectType" Value="4" />
            <BoundPropertyFloatSet Name="scale">
              <BoundPropertyFloatElement Value="0.85000002384185791" />
              <BoundPropertyFloatElement Value="0.85000002384185791" />
              <BoundPropertyFloatElement Value="0.85000002384185791" />
              <BoundPropertyFloatElement Value="0.85000002384185791" />
            </BoundPropertyFloatSet>
          </BoundProperties>
        </PanAndZoomShapeEffect>
      </Effects>
      <Transitions>
        <ShapeEffect effectTemplateID="BlurThroughBlackTransitionTemplate" duration="1.5">
          <BoundProperties />
        </ShapeEffect>
      </Transitions>
      <BoundProperties>
        <BoundPropertyInt Name="rotateStepNinety" Value="0" />
      </BoundProperties>
    </ImageClip>
    <ImageClip extentID="93" gapBefore="0" mediaItemID="89" duration="7.896860823809523">
      <Effects>
        <PanAndZoomShapeEffect effectTemplateID="PanAndZoomEffectAutomaticTemplate">
          <BoundProperties>
            <BoundPropertyFloatSet Name="center">
              <BoundPropertyFloatElement Value="-0.5" />
              <BoundPropertyFloatElement Value="-0.5" />
              <BoundPropertyFloatElement Value="-0.5" />
              <BoundPropertyFloatElement Value="-0.5" />
            </BoundPropertyFloatSet>
            <BoundPropertyInt Name="effectType" Value="6" />
            <BoundPropertyFloatSet Name="scale">
              <BoundPropertyFloatElement Value="0.85000002384185791" />
              <BoundPropertyFloatElement Value="0.85000002384185791" />
              <BoundPropertyFloatElement Value="1" />
              <BoundPropertyFloatElement Value="1" />
            </BoundPropertyFloatSet>
          </BoundProperties>
        </PanAndZoomShapeEffect>
      </Effects>
      <Transitions>
        <ShapeEffect effectTemplateID="BlurThroughBlackTransitionTemplate" duration="1.5">
          <BoundProperties />
        </ShapeEffect>
      </Transitions>
      <BoundProperties>
        <BoundPropertyInt Name="rotateStepNinety" Value="0" />
      </BoundProperties>
    </ImageClip>
    <ImageClip extentID="94" gapBefore="0" mediaItemID="90" duration="7.896860823809523">
      <Effects>
        <PanAndZoomShapeEffect effectTemplateID="PanAndZoomEffectAutomaticTemplate">
          <BoundProperties>
            <BoundPropertyFloatSet Name="center">
              <BoundPropertyFloatElement Value="-0.5" />
              <BoundPropertyFloatElement Value="-0.5" />
              <BoundPropertyFloatElement Value="-0.5" />
              <BoundPropertyFloatElement Value="-0.5" />
            </BoundPropertyFloatSet>
            <BoundPropertyInt Name="effectType" Value="5" />
            <BoundPropertyFloatSet Name="scale">
              <BoundPropertyFloatElement Value="1" />
              <BoundPropertyFloatElement Value="1" />
              <BoundPropertyFloatElement Value="0.85000002384185791" />
              <BoundPropertyFloatElement Value="0.85000002384185791" />
            </BoundPropertyFloatSet>
          </BoundProperties>
        </PanAndZoomShapeEffect>
      </Effects>
      <Transitions>
        <ShapeEffect effectTemplateID="BlurThroughBlackTransitionTemplate" duration="1.5">
          <BoundProperties />
        </ShapeEffect>
      </Transitions>
      <BoundProperties>
        <BoundPropertyInt Name="rotateStepNinety" Value="0" />
      </BoundProperties>
    </ImageClip>
    <ImageClip extentID="95" gapBefore="0" mediaItemID="91" duration="7.896860823809523">
      <Effects>
        <PanAndZoomShapeEffect effectTemplateID="PanAndZoomEffectAutomaticTemplate">
          <BoundProperties>
            <BoundPropertyFloatSet Name="center">
              <BoundPropertyFloatElement Value="-1" />
              <BoundPropertyFloatElement Value="-0.5" />
              <BoundPropertyFloatElement Value="0" />
              <BoundPropertyFloatElement Value="-0.5" />
            </BoundPropertyFloatSet>
            <BoundPropertyInt Name="effectType" Value="2" />
            <BoundPropertyFloatSet Name="scale">
              <BoundPropertyFloatElement Value="0.85000002384185791" />
              <BoundPropertyFloatElement Value="0.85000002384185791" />
              <BoundPropertyFloatElement Value="0.85000002384185791" />
              <BoundPropertyFloatElement Value="0.85000002384185791" />
            </BoundPropertyFloatSet>
          </BoundProperties>
        </PanAndZoomShapeEffect>
      </Effects>
      <Transitions>
        <ShapeEffect effectTemplateID="BlurThroughBlackTransitionTemplate" duration="1.5">
          <BoundProperties />
        </ShapeEffect>
      </Transitions>
      <BoundProperties>
        <BoundPropertyInt Name="rotateStepNinety" Value="0" />
      </BoundProperties>
    </ImageClip>
    <ImageClip extentID="96" gapBefore="0" mediaItemID="92" duration="7.896860823809523">
      <Effects>
        <PanAndZoomShapeEffect effectTemplateID="PanAndZoomEffectAutomaticTemplate">
          <BoundProperties>
            <BoundPropertyFloatSet Name="center">
              <BoundPropertyFloatElement Value="-1" />
              <BoundPropertyFloatElement Value="-1" />
              <BoundPropertyFloatElement Value="-1" />
              <BoundPropertyFloatElement Value="-1" />
            </BoundPropertyFloatSet>
            <BoundPropertyInt Name="effectType" Value="5" />
            <BoundPropertyFloatSet Name="scale">
              <BoundPropertyFloatElement Value="1" />
              <BoundPropertyFloatElement Value="1" />
              <BoundPropertyFloatElement Value="0.85000002384185791" />
              <BoundPropertyFloatElement Value="0.85000002384185791" />
            </BoundPropertyFloatSet>
          </BoundProperties>
        </PanAndZoomShapeEffect>
      </Effects>
      <Transitions>
        <ShapeEffect effectTemplateID="BlurThroughBlackTransitionTemplate" duration="1.5">
          <BoundProperties />
        </ShapeEffect>
      </Transitions>
      <BoundProperties>
        <BoundPropertyInt Name="rotateStepNinety" Value="0" />
      </BoundProperties>
    </ImageClip>
    <ImageClip extentID="97" gapBefore="0" mediaItemID="93" duration="7.896860823809523">
      <Effects>
        <PanAndZoomShapeEffect effectTemplateID="PanAndZoomEffectAutomaticTemplate">
          <BoundProperties>
            <BoundPropertyFloatSet Name="center">
              <BoundPropertyFloatElement Value="-0.5" />
              <BoundPropertyFloatElement Value="-1" />
              <BoundPropertyFloatElement Value="-0.5" />
              <BoundPropertyFloatElement Value="-1" />
            </BoundPropertyFloatSet>
            <BoundPropertyInt Name="effectType" Value="5" />
            <BoundPropertyFloatSet Name="scale">
              <BoundPropertyFloatElement Value="1" />
              <BoundPropertyFloatElement Value="1" />
              <BoundPropertyFloatElement Value="0.85000002384185791" />
              <BoundPropertyFloatElement Value="0.85000002384185791" />
            </BoundPropertyFloatSet>
          </BoundProperties>
        </PanAndZoomShapeEffect>
      </Effects>
      <Transitions>
        <ShapeEffect effectTemplateID="BlurThroughBlackTransitionTemplate" duration="1.5">
          <BoundProperties />
        </ShapeEffect>
      </Transitions>
      <BoundProperties>
        <BoundPropertyInt Name="rotateStepNinety" Value="0" />
      </BoundProperties>
    </ImageClip>
    <ImageClip extentID="98" gapBefore="0" mediaItemID="94" duration="7.896860823809523">
      <Effects>
        <PanAndZoomShapeEffect effectTemplateID="PanAndZoomEffectAutomaticTemplate">
          <BoundProperties>
            <BoundPropertyFloatSet Name="center">
              <BoundPropertyFloatElement Value="-0.5" />
              <BoundPropertyFloatElement Value="-0.5" />
              <BoundPropertyFloatElement Value="-0.5" />
              <BoundPropertyFloatElement Value="-0.5" />
            </BoundPropertyFloatSet>
            <BoundPropertyInt Name="effectType" Value="5" />
            <BoundPropertyFloatSet Name="scale">
              <BoundPropertyFloatElement Value="1" />
              <BoundPropertyFloatElement Value="1" />
              <BoundPropertyFloatElement Value="0.85000002384185791" />
              <BoundPropertyFloatElement Value="0.85000002384185791" />
            </BoundPropertyFloatSet>
          </BoundProperties>
        </PanAndZoomShapeEffect>
      </Effects>
      <Transitions>
        <ShapeEffect effectTemplateID="BlurThroughBlackTransitionTemplate" duration="1.5">
          <BoundProperties />
        </ShapeEffect>
      </Transitions>
      <BoundProperties>
        <BoundPropertyInt Name="rotateStepNinety" Value="0" />
      </BoundProperties>
    </ImageClip>
    <ImageClip extentID="99" gapBefore="0" mediaItemID="95" duration="7.896860823809523">
      <Effects>
        <PanAndZoomShapeEffect effectTemplateID="PanAndZoomEffectAutomaticTemplate">
          <BoundProperties>
            <BoundPropertyFloatSet Name="center">
              <BoundPropertyFloatElement Value="-0.5" />
              <BoundPropertyFloatElement Value="-0.5" />
              <BoundPropertyFloatElement Value="-0.5" />
              <BoundPropertyFloatElement Value="-0.5" />
            </BoundPropertyFloatSet>
            <BoundPropertyInt Name="effectType" Value="6" />
            <BoundPropertyFloatSet Name="scale">
              <BoundPropertyFloatElement Value="0.85000002384185791" />
              <BoundPropertyFloatElement Value="0.85000002384185791" />
              <BoundPropertyFloatElement Value="1" />
              <BoundPropertyFloatElement Value="1" />
            </BoundPropertyFloatSet>
          </BoundProperties>
        </PanAndZoomShapeEffect>
      </Effects>
      <Transitions>
        <ShapeEffect effectTemplateID="BlurThroughBlackTransitionTemplate" duration="1.5">
          <BoundProperties />
        </ShapeEffect>
      </Transitions>
      <BoundProperties>
        <BoundPropertyInt Name="rotateStepNinety" Value="0" />
      </BoundProperties>
    </ImageClip>
    <ImageClip extentID="100" gapBefore="0" mediaItemID="96" duration="7.896860823809523">
      <Effects>
        <PanAndZoomShapeEffect effectTemplateID="PanAndZoomEffectAutomaticTemplate">
          <BoundProperties>
            <BoundPropertyFloatSet Name="center">
              <BoundPropertyFloatElement Value="-0.5" />
              <BoundPropertyFloatElement Value="-0.5" />
              <BoundPropertyFloatElement Value="-0.5" />
              <BoundPropertyFloatElement Value="-0.5" />
            </BoundPropertyFloatSet>
            <BoundPropertyInt Name="effectType" Value="5" />
            <BoundPropertyFloatSet Name="scale">
              <BoundPropertyFloatElement Value="1" />
              <BoundPropertyFloatElement Value="1" />
              <BoundPropertyFloatElement Value="0.85000002384185791" />
              <BoundPropertyFloatElement Value="0.85000002384185791" />
            </BoundPropertyFloatSet>
          </BoundProperties>
        </PanAndZoomShapeEffect>
      </Effects>
      <Transitions>
        <ShapeEffect effectTemplateID="BlurThroughBlackTransitionTemplate" duration="1.5">
          <BoundProperties />
        </ShapeEffect>
      </Transitions>
      <BoundProperties>
        <BoundPropertyInt Name="rotateStepNinety" Value="0" />
      </BoundProperties>
    </ImageClip>
    <ImageClip extentID="101" gapBefore="0" mediaItemID="97" duration="7.896860823809523">
      <Effects>
        <PanAndZoomShapeEffect effectTemplateID="PanAndZoomEffectAutomaticTemplate">
          <BoundProperties>
            <BoundPropertyFloatSet Name="center">
              <BoundPropertyFloatElement Value="-0.5" />
              <BoundPropertyFloatElement Value="-0.5" />
              <BoundPropertyFloatElement Value="-0.5" />
              <BoundPropertyFloatElement Value="-0.5" />
            </BoundPropertyFloatSet>
            <BoundPropertyInt Name="effectType" Value="5" />
            <BoundPropertyFloatSet Name="scale">
              <BoundPropertyFloatElement Value="1" />
              <BoundPropertyFloatElement Value="1" />
              <BoundPropertyFloatElement Value="0.85000002384185791" />
              <BoundPropertyFloatElement Value="0.85000002384185791" />
            </BoundPropertyFloatSet>
          </BoundProperties>
        </PanAndZoomShapeEffect>
      </Effects>
      <Transitions>
        <ShapeEffect effectTemplateID="BlurThroughBlackTransitionTemplate" duration="1.5">
          <BoundProperties />
        </ShapeEffect>
      </Transitions>
      <BoundProperties>
        <BoundPropertyInt Name="rotateStepNinety" Value="0" />
      </BoundProperties>
    </ImageClip>
    <ImageClip extentID="102" gapBefore="0" mediaItemID="98" duration="7.896860823809523">
      <Effects>
        <PanAndZoomShapeEffect effectTemplateID="PanAndZoomEffectAutomaticTemplate">
          <BoundProperties>
            <BoundPropertyFloatSet Name="center">
              <BoundPropertyFloatElement Value="-0.5" />
              <BoundPropertyFloatElement Value="0" />
              <BoundPropertyFloatElement Value="-0.5" />
              <BoundPropertyFloatElement Value="-1" />
            </BoundPropertyFloatSet>
            <BoundPropertyInt Name="effectType" Value="4" />
            <BoundPropertyFloatSet Name="scale">
              <BoundPropertyFloatElement Value="0.85000002384185791" />
              <BoundPropertyFloatElement Value="0.85000002384185791" />
              <BoundPropertyFloatElement Value="0.85000002384185791" />
              <BoundPropertyFloatElement Value="0.85000002384185791" />
            </BoundPropertyFloatSet>
          </BoundProperties>
        </PanAndZoomShapeEffect>
      </Effects>
      <Transitions>
        <ShapeEffect effectTemplateID="BlurThroughBlackTransitionTemplate" duration="1.5">
          <BoundProperties />
        </ShapeEffect>
      </Transitions>
      <BoundProperties>
        <BoundPropertyInt Name="rotateStepNinety" Value="0" />
      </BoundProperties>
    </ImageClip>
    <ImageClip extentID="103" gapBefore="0" mediaItemID="99" duration="7.896860823809523">
      <Effects>
        <PanAndZoomShapeEffect effectTemplateID="PanAndZoomEffectAutomaticTemplate">
          <BoundProperties>
            <BoundPropertyFloatSet Name="center">
              <BoundPropertyFloatElement Value="-0.5" />
              <BoundPropertyFloatElement Value="-0.5" />
              <BoundPropertyFloatElement Value="-0.5" />
              <BoundPropertyFloatElement Value="-0.5" />
            </BoundPropertyFloatSet>
            <BoundPropertyInt Name="effectType" Value="6" />
            <BoundPropertyFloatSet Name="scale">
              <BoundPropertyFloatElement Value="0.85000002384185791" />
              <BoundPropertyFloatElement Value="0.85000002384185791" />
              <BoundPropertyFloatElement Value="1" />
              <BoundPropertyFloatElement Value="1" />
            </BoundPropertyFloatSet>
          </BoundProperties>
        </PanAndZoomShapeEffect>
      </Effects>
      <Transitions>
        <ShapeEffect effectTemplateID="BlurThroughBlackTransitionTemplate" duration="1.5">
          <BoundProperties />
        </ShapeEffect>
      </Transitions>
      <BoundProperties>
        <BoundPropertyInt Name="rotateStepNinety" Value="0" />
      </BoundProperties>
    </ImageClip>
    <ImageClip extentID="104" gapBefore="0" mediaItemID="100" duration="7.896860823809523">
      <Effects>
        <PanAndZoomShapeEffect effectTemplateID="PanAndZoomEffectAutomaticTemplate">
          <BoundProperties>
            <BoundPropertyFloatSet Name="center">
              <BoundPropertyFloatElement Value="-0.5" />
              <BoundPropertyFloatElement Value="-1" />
              <BoundPropertyFloatElement Value="-0.5" />
              <BoundPropertyFloatElement Value="0" />
            </BoundPropertyFloatSet>
            <BoundPropertyInt Name="effectType" Value="3" />
            <BoundPropertyFloatSet Name="scale">
              <BoundPropertyFloatElement Value="0.85000002384185791" />
              <BoundPropertyFloatElement Value="0.85000002384185791" />
              <BoundPropertyFloatElement Value="0.85000002384185791" />
              <BoundPropertyFloatElement Value="0.85000002384185791" />
            </BoundPropertyFloatSet>
          </BoundProperties>
        </PanAndZoomShapeEffect>
      </Effects>
      <Transitions>
        <ShapeEffect effectTemplateID="BlurThroughBlackTransitionTemplate" duration="1.5">
          <BoundProperties />
        </ShapeEffect>
      </Transitions>
      <BoundProperties>
        <BoundPropertyInt Name="rotateStepNinety" Value="0" />
      </BoundProperties>
    </ImageClip>
    <ImageClip extentID="105" gapBefore="0" mediaItemID="101" duration="7.896860823809523">
      <Effects>
        <PanAndZoomShapeEffect effectTemplateID="PanAndZoomEffectAutomaticTemplate">
          <BoundProperties>
            <BoundPropertyFloatSet Name="center">
              <BoundPropertyFloatElement Value="-1" />
              <BoundPropertyFloatElement Value="-1" />
              <BoundPropertyFloatElement Value="-1" />
              <BoundPropertyFloatElement Value="-1" />
            </BoundPropertyFloatSet>
            <BoundPropertyInt Name="effectType" Value="5" />
            <BoundPropertyFloatSet Name="scale">
              <BoundPropertyFloatElement Value="1" />
              <BoundPropertyFloatElement Value="1" />
              <BoundPropertyFloatElement Value="0.85000002384185791" />
              <BoundPropertyFloatElement Value="0.85000002384185791" />
            </BoundPropertyFloatSet>
          </BoundProperties>
        </PanAndZoomShapeEffect>
      </Effects>
      <Transitions>
        <ShapeEffect effectTemplateID="BlurThroughBlackTransitionTemplate" duration="1.5">
          <BoundProperties />
        </ShapeEffect>
      </Transitions>
      <BoundProperties>
        <BoundPropertyInt Name="rotateStepNinety" Value="0" />
      </BoundProperties>
    </ImageClip>
    <ImageClip extentID="106" gapBefore="0" mediaItemID="102" duration="7.896860823809523">
      <Effects>
        <PanAndZoomShapeEffect effectTemplateID="PanAndZoomEffectAutomaticTemplate">
          <BoundProperties>
            <BoundPropertyFloatSet Name="center">
              <BoundPropertyFloatElement Value="0" />
              <BoundPropertyFloatElement Value="-0.5" />
              <BoundPropertyFloatElement Value="-1" />
              <BoundPropertyFloatElement Value="-0.5" />
            </BoundPropertyFloatSet>
            <BoundPropertyInt Name="effectType" Value="1" />
            <BoundPropertyFloatSet Name="scale">
              <BoundPropertyFloatElement Value="0.85000002384185791" />
              <BoundPropertyFloatElement Value="0.85000002384185791" />
              <BoundPropertyFloatElement Value="0.85000002384185791" />
              <BoundPropertyFloatElement Value="0.85000002384185791" />
            </BoundPropertyFloatSet>
          </BoundProperties>
        </PanAndZoomShapeEffect>
      </Effects>
      <Transitions>
        <ShapeEffect effectTemplateID="BlurThroughBlackTransitionTemplate" duration="1.5">
          <BoundProperties />
        </ShapeEffect>
      </Transitions>
      <BoundProperties>
        <BoundPropertyInt Name="rotateStepNinety" Value="0" />
      </BoundProperties>
    </ImageClip>
    <ImageClip extentID="107" gapBefore="0" mediaItemID="103" duration="7.896860823809523">
      <Effects>
        <PanAndZoomShapeEffect effectTemplateID="PanAndZoomEffectAutomaticTemplate">
          <BoundProperties>
            <BoundPropertyFloatSet Name="center">
              <BoundPropertyFloatElement Value="-0.5" />
              <BoundPropertyFloatElement Value="-1" />
              <BoundPropertyFloatElement Value="-0.5" />
              <BoundPropertyFloatElement Value="0" />
            </BoundPropertyFloatSet>
            <BoundPropertyInt Name="effectType" Value="3" />
            <BoundPropertyFloatSet Name="scale">
              <BoundPropertyFloatElement Value="0.85000002384185791" />
              <BoundPropertyFloatElement Value="0.85000002384185791" />
              <BoundPropertyFloatElement Value="0.85000002384185791" />
              <BoundPropertyFloatElement Value="0.85000002384185791" />
            </BoundPropertyFloatSet>
          </BoundProperties>
        </PanAndZoomShapeEffect>
      </Effects>
      <Transitions>
        <ShapeEffect effectTemplateID="BlurThroughBlackTransitionTemplate" duration="1.5">
          <BoundProperties />
        </ShapeEffect>
      </Transitions>
      <BoundProperties>
        <BoundPropertyInt Name="rotateStepNinety" Value="0" />
      </BoundProperties>
    </ImageClip>
    <ImageClip extentID="108" gapBefore="0" mediaItemID="104" duration="7.896860823809523">
      <Effects>
        <PanAndZoomShapeEffect effectTemplateID="PanAndZoomEffectAutomaticTemplate">
          <BoundProperties>
            <BoundPropertyFloatSet Name="center">
              <BoundPropertyFloatElement Value="-0.5" />
              <BoundPropertyFloatElement Value="0" />
              <BoundPropertyFloatElement Value="-0.5" />
              <BoundPropertyFloatElement Value="-1" />
            </BoundPropertyFloatSet>
            <BoundPropertyInt Name="effectType" Value="4" />
            <BoundPropertyFloatSet Name="scale">
              <BoundPropertyFloatElement Value="0.85000002384185791" />
              <BoundPropertyFloatElement Value="0.85000002384185791" />
              <BoundPropertyFloatElement Value="0.85000002384185791" />
              <BoundPropertyFloatElement Value="0.85000002384185791" />
            </BoundPropertyFloatSet>
          </BoundProperties>
        </PanAndZoomShapeEffect>
      </Effects>
      <Transitions>
        <ShapeEffect effectTemplateID="BlurThroughBlackTransitionTemplate" duration="1.5">
          <BoundProperties />
        </ShapeEffect>
      </Transitions>
      <BoundProperties>
        <BoundPropertyInt Name="rotateStepNinety" Value="0" />
      </BoundProperties>
    </ImageClip>
    <ImageClip extentID="109" gapBefore="0" mediaItemID="105" duration="7.896860823809523">
      <Effects>
        <PanAndZoomShapeEffect effectTemplateID="PanAndZoomEffectAutomaticTemplate">
          <BoundProperties>
            <BoundPropertyFloatSet Name="center">
              <BoundPropertyFloatElement Value="0" />
              <BoundPropertyFloatElement Value="-0.5" />
              <BoundPropertyFloatElement Value="0" />
              <BoundPropertyFloatElement Value="-0.5" />
            </BoundPropertyFloatSet>
            <BoundPropertyInt Name="effectType" Value="5" />
            <BoundPropertyFloatSet Name="scale">
              <BoundPropertyFloatElement Value="1" />
              <BoundPropertyFloatElement Value="1" />
              <BoundPropertyFloatElement Value="0.85000002384185791" />
              <BoundPropertyFloatElement Value="0.85000002384185791" />
            </BoundPropertyFloatSet>
          </BoundProperties>
        </PanAndZoomShapeEffect>
      </Effects>
      <Transitions>
        <ShapeEffect effectTemplateID="BlurThroughBlackTransitionTemplate" duration="1.5">
          <BoundProperties />
        </ShapeEffect>
      </Transitions>
      <BoundProperties>
        <BoundPropertyInt Name="rotateStepNinety" Value="0" />
      </BoundProperties>
    </ImageClip>
    <ImageClip extentID="110" gapBefore="0" mediaItemID="106" duration="7.896860823809523">
      <Effects>
        <PanAndZoomShapeEffect effectTemplateID="PanAndZoomEffectAutomaticTemplate">
          <BoundProperties>
            <BoundPropertyFloatSet Name="center">
              <BoundPropertyFloatElement Value="-0.5" />
              <BoundPropertyFloatElement Value="0" />
              <BoundPropertyFloatElement Value="-0.5" />
              <BoundPropertyFloatElement Value="-1" />
            </BoundPropertyFloatSet>
            <BoundPropertyInt Name="effectType" Value="4" />
            <BoundPropertyFloatSet Name="scale">
              <BoundPropertyFloatElement Value="0.85000002384185791" />
              <BoundPropertyFloatElement Value="0.85000002384185791" />
              <BoundPropertyFloatElement Value="0.85000002384185791" />
              <BoundPropertyFloatElement Value="0.85000002384185791" />
            </BoundPropertyFloatSet>
          </BoundProperties>
        </PanAndZoomShapeEffect>
      </Effects>
      <Transitions>
        <ShapeEffect effectTemplateID="BlurThroughBlackTransitionTemplate" duration="1.5">
          <BoundProperties />
        </ShapeEffect>
      </Transitions>
      <BoundProperties>
        <BoundPropertyInt Name="rotateStepNinety" Value="0" />
      </BoundProperties>
    </ImageClip>
    <ImageClip extentID="111" gapBefore="0" mediaItemID="107" duration="7.896860823809523">
      <Effects>
        <PanAndZoomShapeEffect effectTemplateID="PanAndZoomEffectAutomaticTemplate">
          <BoundProperties>
            <BoundPropertyFloatSet Name="center">
              <BoundPropertyFloatElement Value="0" />
              <BoundPropertyFloatElement Value="-0.5" />
              <BoundPropertyFloatElement Value="-1" />
              <BoundPropertyFloatElement Value="-0.5" />
            </BoundPropertyFloatSet>
            <BoundPropertyInt Name="effectType" Value="1" />
            <BoundPropertyFloatSet Name="scale">
              <BoundPropertyFloatElement Value="0.85000002384185791" />
              <BoundPropertyFloatElement Value="0.85000002384185791" />
              <BoundPropertyFloatElement Value="0.85000002384185791" />
              <BoundPropertyFloatElement Value="0.85000002384185791" />
            </BoundPropertyFloatSet>
          </BoundProperties>
        </PanAndZoomShapeEffect>
      </Effects>
      <Transitions>
        <ShapeEffect effectTemplateID="BlurThroughBlackTransitionTemplate" duration="1.5">
          <BoundProperties />
        </ShapeEffect>
      </Transitions>
      <BoundProperties>
        <BoundPropertyInt Name="rotateStepNinety" Value="0" />
      </BoundProperties>
    </ImageClip>
    <ImageClip extentID="112" gapBefore="0" mediaItemID="108" duration="7.896860823809523">
      <Effects>
        <PanAndZoomShapeEffect effectTemplateID="PanAndZoomEffectAutomaticTemplate">
          <BoundProperties>
            <BoundPropertyFloatSet Name="center">
              <BoundPropertyFloatElement Value="-0.5" />
              <BoundPropertyFloatElement Value="-0.5" />
              <BoundPropertyFloatElement Value="-0.5" />
              <BoundPropertyFloatElement Value="-0.5" />
            </BoundPropertyFloatSet>
            <BoundPropertyInt Name="effectType" Value="6" />
            <BoundPropertyFloatSet Name="scale">
              <BoundPropertyFloatElement Value="0.85000002384185791" />
              <BoundPropertyFloatElement Value="0.85000002384185791" />
              <BoundPropertyFloatElement Value="1" />
              <BoundPropertyFloatElement Value="1" />
            </BoundPropertyFloatSet>
          </BoundProperties>
        </PanAndZoomShapeEffect>
      </Effects>
      <Transitions>
        <ShapeEffect effectTemplateID="BlurThroughBlackTransitionTemplate" duration="1.5">
          <BoundProperties />
        </ShapeEffect>
      </Transitions>
      <BoundProperties>
        <BoundPropertyInt Name="rotateStepNinety" Value="0" />
      </BoundProperties>
    </ImageClip>
    <ImageClip extentID="113" gapBefore="0" mediaItemID="109" duration="7.896860823809523">
      <Effects>
        <PanAndZoomShapeEffect effectTemplateID="PanAndZoomEffectAutomaticTemplate">
          <BoundProperties>
            <BoundPropertyFloatSet Name="center">
              <BoundPropertyFloatElement Value="-0.5" />
              <BoundPropertyFloatElement Value="0" />
              <BoundPropertyFloatElement Value="-0.5" />
              <BoundPropertyFloatElement Value="-1" />
            </BoundPropertyFloatSet>
            <BoundPropertyInt Name="effectType" Value="4" />
            <BoundPropertyFloatSet Name="scale">
              <BoundPropertyFloatElement Value="0.85000002384185791" />
              <BoundPropertyFloatElement Value="0.85000002384185791" />
              <BoundPropertyFloatElement Value="0.85000002384185791" />
              <BoundPropertyFloatElement Value="0.85000002384185791" />
            </BoundPropertyFloatSet>
          </BoundProperties>
        </PanAndZoomShapeEffect>
      </Effects>
      <Transitions>
        <ShapeEffect effectTemplateID="BlurThroughBlackTransitionTemplate" duration="1.5">
          <BoundProperties />
        </ShapeEffect>
      </Transitions>
      <BoundProperties>
        <BoundPropertyInt Name="rotateStepNinety" Value="0" />
      </BoundProperties>
    </ImageClip>
    <ImageClip extentID="114" gapBefore="0" mediaItemID="110" duration="7.896860823809523">
      <Effects>
        <PanAndZoomShapeEffect effectTemplateID="PanAndZoomEffectAutomaticTemplate">
          <BoundProperties>
            <BoundPropertyFloatSet Name="center">
              <BoundPropertyFloatElement Value="-1" />
              <BoundPropertyFloatElement Value="-0.5" />
              <BoundPropertyFloatElement Value="-1" />
              <BoundPropertyFloatElement Value="-0.5" />
            </BoundPropertyFloatSet>
            <BoundPropertyInt Name="effectType" Value="5" />
            <BoundPropertyFloatSet Name="scale">
              <BoundPropertyFloatElement Value="1" />
              <BoundPropertyFloatElement Value="1" />
              <BoundPropertyFloatElement Value="0.85000002384185791" />
              <BoundPropertyFloatElement Value="0.85000002384185791" />
            </BoundPropertyFloatSet>
          </BoundProperties>
        </PanAndZoomShapeEffect>
      </Effects>
      <Transitions>
        <ShapeEffect effectTemplateID="BlurThroughBlackTransitionTemplate" duration="1.5">
          <BoundProperties />
        </ShapeEffect>
      </Transitions>
      <BoundProperties>
        <BoundPropertyInt Name="rotateStepNinety" Value="0" />
      </BoundProperties>
    </ImageClip>
    <ImageClip extentID="115" gapBefore="0" mediaItemID="111" duration="7.896860823809523">
      <Effects>
        <PanAndZoomShapeEffect effectTemplateID="PanAndZoomEffectAutomaticTemplate">
          <BoundProperties>
            <BoundPropertyFloatSet Name="center">
              <BoundPropertyFloatElement Value="-0.5" />
              <BoundPropertyFloatElement Value="0" />
              <BoundPropertyFloatElement Value="-0.5" />
              <BoundPropertyFloatElement Value="-1" />
            </BoundPropertyFloatSet>
            <BoundPropertyInt Name="effectType" Value="4" />
            <BoundPropertyFloatSet Name="scale">
              <BoundPropertyFloatElement Value="0.85000002384185791" />
              <BoundPropertyFloatElement Value="0.85000002384185791" />
              <BoundPropertyFloatElement Value="0.85000002384185791" />
              <BoundPropertyFloatElement Value="0.85000002384185791" />
            </BoundPropertyFloatSet>
          </BoundProperties>
        </PanAndZoomShapeEffect>
      </Effects>
      <Transitions>
        <ShapeEffect effectTemplateID="BlurThroughBlackTransitionTemplate" duration="1.5">
          <BoundProperties />
        </ShapeEffect>
      </Transitions>
      <BoundProperties>
        <BoundPropertyInt Name="rotateStepNinety" Value="0" />
      </BoundProperties>
    </ImageClip>
    <ImageClip extentID="116" gapBefore="0" mediaItemID="112" duration="7.896860823809523">
      <Effects>
        <PanAndZoomShapeEffect effectTemplateID="PanAndZoomEffectAutomaticTemplate">
          <BoundProperties>
            <BoundPropertyFloatSet Name="center">
              <BoundPropertyFloatElement Value="-1" />
              <BoundPropertyFloatElement Value="-1" />
              <BoundPropertyFloatElement Value="-1" />
              <BoundPropertyFloatElement Value="-1" />
            </BoundPropertyFloatSet>
            <BoundPropertyInt Name="effectType" Value="6" />
            <BoundPropertyFloatSet Name="scale">
              <BoundPropertyFloatElement Value="0.85000002384185791" />
              <BoundPropertyFloatElement Value="0.85000002384185791" />
              <BoundPropertyFloatElement Value="1" />
              <BoundPropertyFloatElement Value="1" />
            </BoundPropertyFloatSet>
          </BoundProperties>
        </PanAndZoomShapeEffect>
      </Effects>
      <Transitions>
        <ShapeEffect effectTemplateID="BlurThroughBlackTransitionTemplate" duration="1.5">
          <BoundProperties />
        </ShapeEffect>
      </Transitions>
      <BoundProperties>
        <BoundPropertyInt Name="rotateStepNinety" Value="0" />
      </BoundProperties>
    </ImageClip>
    <ImageClip extentID="117" gapBefore="0" mediaItemID="113" duration="7.896860823809523">
      <Effects>
        <PanAndZoomShapeEffect effectTemplateID="PanAndZoomEffectAutomaticTemplate">
          <BoundProperties>
            <BoundPropertyFloatSet Name="center">
              <BoundPropertyFloatElement Value="-0.5" />
              <BoundPropertyFloatElement Value="-0.5" />
              <BoundPropertyFloatElement Value="-0.5" />
              <BoundPropertyFloatElement Value="-0.5" />
            </BoundPropertyFloatSet>
            <BoundPropertyInt Name="effectType" Value="6" />
            <BoundPropertyFloatSet Name="scale">
              <BoundPropertyFloatElement Value="0.85000002384185791" />
              <BoundPropertyFloatElement Value="0.85000002384185791" />
              <BoundPropertyFloatElement Value="1" />
              <BoundPropertyFloatElement Value="1" />
            </BoundPropertyFloatSet>
          </BoundProperties>
        </PanAndZoomShapeEffect>
      </Effects>
      <Transitions>
        <ShapeEffect effectTemplateID="BlurThroughBlackTransitionTemplate" duration="1.5">
          <BoundProperties />
        </ShapeEffect>
      </Transitions>
      <BoundProperties>
        <BoundPropertyInt Name="rotateStepNinety" Value="0" />
      </BoundProperties>
    </ImageClip>
    <ImageClip extentID="118" gapBefore="0" mediaItemID="114" duration="7.896860823809523">
      <Effects>
        <PanAndZoomShapeEffect effectTemplateID="PanAndZoomEffectAutomaticTemplate">
          <BoundProperties>
            <BoundPropertyFloatSet Name="center">
              <BoundPropertyFloatElement Value="-1" />
              <BoundPropertyFloatElement Value="-0.5" />
              <BoundPropertyFloatElement Value="0" />
              <BoundPropertyFloatElement Value="-0.5" />
            </BoundPropertyFloatSet>
            <BoundPropertyInt Name="effectType" Value="2" />
            <BoundPropertyFloatSet Name="scale">
              <BoundPropertyFloatElement Value="0.85000002384185791" />
              <BoundPropertyFloatElement Value="0.85000002384185791" />
              <BoundPropertyFloatElement Value="0.85000002384185791" />
              <BoundPropertyFloatElement Value="0.85000002384185791" />
            </BoundPropertyFloatSet>
          </BoundProperties>
        </PanAndZoomShapeEffect>
      </Effects>
      <Transitions>
        <ShapeEffect effectTemplateID="BlurThroughBlackTransitionTemplate" duration="1.5">
          <BoundProperties />
        </ShapeEffect>
      </Transitions>
      <BoundProperties>
        <BoundPropertyInt Name="rotateStepNinety" Value="0" />
      </BoundProperties>
    </ImageClip>
    <ImageClip extentID="119" gapBefore="0" mediaItemID="115" duration="7.896860823809523">
      <Effects>
        <PanAndZoomShapeEffect effectTemplateID="PanAndZoomEffectAutomaticTemplate">
          <BoundProperties>
            <BoundPropertyFloatSet Name="center">
              <BoundPropertyFloatElement Value="-0.5" />
              <BoundPropertyFloatElement Value="-0.5" />
              <BoundPropertyFloatElement Value="-0.5" />
              <BoundPropertyFloatElement Value="-0.5" />
            </BoundPropertyFloatSet>
            <BoundPropertyInt Name="effectType" Value="5" />
            <BoundPropertyFloatSet Name="scale">
              <BoundPropertyFloatElement Value="1" />
              <BoundPropertyFloatElement Value="1" />
              <BoundPropertyFloatElement Value="0.85000002384185791" />
              <BoundPropertyFloatElement Value="0.85000002384185791" />
            </BoundPropertyFloatSet>
          </BoundProperties>
        </PanAndZoomShapeEffect>
      </Effects>
      <Transitions>
        <ShapeEffect effectTemplateID="BlurThroughBlackTransitionTemplate" duration="1.5">
          <BoundProperties />
        </ShapeEffect>
      </Transitions>
      <BoundProperties>
        <BoundPropertyInt Name="rotateStepNinety" Value="0" />
      </BoundProperties>
    </ImageClip>
    <ImageClip extentID="120" gapBefore="0" mediaItemID="116" duration="7.896860823809523">
      <Effects>
        <PanAndZoomShapeEffect effectTemplateID="PanAndZoomEffectAutomaticTemplate">
          <BoundProperties>
            <BoundPropertyFloatSet Name="center">
              <BoundPropertyFloatElement Value="-0.5" />
              <BoundPropertyFloatElement Value="0" />
              <BoundPropertyFloatElement Value="-0.5" />
              <BoundPropertyFloatElement Value="-1" />
            </BoundPropertyFloatSet>
            <BoundPropertyInt Name="effectType" Value="4" />
            <BoundPropertyFloatSet Name="scale">
              <BoundPropertyFloatElement Value="0.85000002384185791" />
              <BoundPropertyFloatElement Value="0.85000002384185791" />
              <BoundPropertyFloatElement Value="0.85000002384185791" />
              <BoundPropertyFloatElement Value="0.85000002384185791" />
            </BoundPropertyFloatSet>
          </BoundProperties>
        </PanAndZoomShapeEffect>
      </Effects>
      <Transitions>
        <ShapeEffect effectTemplateID="BlurThroughBlackTransitionTemplate" duration="1.5">
          <BoundProperties />
        </ShapeEffect>
      </Transitions>
      <BoundProperties>
        <BoundPropertyInt Name="rotateStepNinety" Value="0" />
      </BoundProperties>
    </ImageClip>
    <ImageClip extentID="121" gapBefore="0" mediaItemID="117" duration="7.896860823809523">
      <Effects>
        <PanAndZoomShapeEffect effectTemplateID="PanAndZoomEffectAutomaticTemplate">
          <BoundProperties>
            <BoundPropertyFloatSet Name="center">
              <BoundPropertyFloatElement Value="-1" />
              <BoundPropertyFloatElement Value="-0.5" />
              <BoundPropertyFloatElement Value="0" />
              <BoundPropertyFloatElement Value="-0.5" />
            </BoundPropertyFloatSet>
            <BoundPropertyInt Name="effectType" Value="2" />
            <BoundPropertyFloatSet Name="scale">
              <BoundPropertyFloatElement Value="0.85000002384185791" />
              <BoundPropertyFloatElement Value="0.85000002384185791" />
              <BoundPropertyFloatElement Value="0.85000002384185791" />
              <BoundPropertyFloatElement Value="0.85000002384185791" />
            </BoundPropertyFloatSet>
          </BoundProperties>
        </PanAndZoomShapeEffect>
      </Effects>
      <Transitions>
        <ShapeEffect effectTemplateID="BlurThroughBlackTransitionTemplate" duration="1.5">
          <BoundProperties />
        </ShapeEffect>
      </Transitions>
      <BoundProperties>
        <BoundPropertyInt Name="rotateStepNinety" Value="0" />
      </BoundProperties>
    </ImageClip>
    <ImageClip extentID="122" gapBefore="0" mediaItemID="118" duration="7.896860823809523">
      <Effects>
        <PanAndZoomShapeEffect effectTemplateID="PanAndZoomEffectAutomaticTemplate">
          <BoundProperties>
            <BoundPropertyFloatSet Name="center">
              <BoundPropertyFloatElement Value="-0.5" />
              <BoundPropertyFloatElement Value="0" />
              <BoundPropertyFloatElement Value="-0.5" />
              <BoundPropertyFloatElement Value="-1" />
            </BoundPropertyFloatSet>
            <BoundPropertyInt Name="effectType" Value="4" />
            <BoundPropertyFloatSet Name="scale">
              <BoundPropertyFloatElement Value="0.85000002384185791" />
              <BoundPropertyFloatElement Value="0.85000002384185791" />
              <BoundPropertyFloatElement Value="0.85000002384185791" />
              <BoundPropertyFloatElement Value="0.85000002384185791" />
            </BoundPropertyFloatSet>
          </BoundProperties>
        </PanAndZoomShapeEffect>
      </Effects>
      <Transitions>
        <ShapeEffect effectTemplateID="BlurThroughBlackTransitionTemplate" duration="1.5">
          <BoundProperties />
        </ShapeEffect>
      </Transitions>
      <BoundProperties>
        <BoundPropertyInt Name="rotateStepNinety" Value="0" />
      </BoundProperties>
    </ImageClip>
    <ImageClip extentID="123" gapBefore="0" mediaItemID="119" duration="7.896860823809523">
      <Effects>
        <PanAndZoomShapeEffect effectTemplateID="PanAndZoomEffectAutomaticTemplate">
          <BoundProperties>
            <BoundPropertyFloatSet Name="center">
              <BoundPropertyFloatElement Value="-1" />
              <BoundPropertyFloatElement Value="-0.5" />
              <BoundPropertyFloatElement Value="-1" />
              <BoundPropertyFloatElement Value="-0.5" />
            </BoundPropertyFloatSet>
            <BoundPropertyInt Name="effectType" Value="5" />
            <BoundPropertyFloatSet Name="scale">
              <BoundPropertyFloatElement Value="1" />
              <BoundPropertyFloatElement Value="1" />
              <BoundPropertyFloatElement Value="0.85000002384185791" />
              <BoundPropertyFloatElement Value="0.85000002384185791" />
            </BoundPropertyFloatSet>
          </BoundProperties>
        </PanAndZoomShapeEffect>
      </Effects>
      <Transitions>
        <ShapeEffect effectTemplateID="BlurThroughBlackTransitionTemplate" duration="1.5">
          <BoundProperties />
        </ShapeEffect>
      </Transitions>
      <BoundProperties>
        <BoundPropertyInt Name="rotateStepNinety" Value="0" />
      </BoundProperties>
    </ImageClip>
    <ImageClip extentID="124" gapBefore="0" mediaItemID="120" duration="7.896860823809523">
      <Effects>
        <PanAndZoomShapeEffect effectTemplateID="PanAndZoomEffectAutomaticTemplate">
          <BoundProperties>
            <BoundPropertyFloatSet Name="center">
              <BoundPropertyFloatElement Value="-0.5" />
              <BoundPropertyFloatElement Value="0" />
              <BoundPropertyFloatElement Value="-0.5" />
              <BoundPropertyFloatElement Value="-1" />
            </BoundPropertyFloatSet>
            <BoundPropertyInt Name="effectType" Value="4" />
            <BoundPropertyFloatSet Name="scale">
              <BoundPropertyFloatElement Value="0.85000002384185791" />
              <BoundPropertyFloatElement Value="0.85000002384185791" />
              <BoundPropertyFloatElement Value="0.85000002384185791" />
              <BoundPropertyFloatElement Value="0.85000002384185791" />
            </BoundPropertyFloatSet>
          </BoundProperties>
        </PanAndZoomShapeEffect>
      </Effects>
      <Transitions>
        <ShapeEffect effectTemplateID="BlurThroughBlackTransitionTemplate" duration="1.5">
          <BoundProperties />
        </ShapeEffect>
      </Transitions>
      <BoundProperties>
        <BoundPropertyInt Name="rotateStepNinety" Value="0" />
      </BoundProperties>
    </ImageClip>
    <ImageClip extentID="125" gapBefore="0" mediaItemID="121" duration="7.896860823809523">
      <Effects>
        <PanAndZoomShapeEffect effectTemplateID="PanAndZoomEffectAutomaticTemplate">
          <BoundProperties>
            <BoundPropertyFloatSet Name="center">
              <BoundPropertyFloatElement Value="-0.5" />
              <BoundPropertyFloatElement Value="-0.5" />
              <BoundPropertyFloatElement Value="-0.5" />
              <BoundPropertyFloatElement Value="-0.5" />
            </BoundPropertyFloatSet>
            <BoundPropertyInt Name="effectType" Value="6" />
            <BoundPropertyFloatSet Name="scale">
              <BoundPropertyFloatElement Value="0.85000002384185791" />
              <BoundPropertyFloatElement Value="0.85000002384185791" />
              <BoundPropertyFloatElement Value="1" />
              <BoundPropertyFloatElement Value="1" />
            </BoundPropertyFloatSet>
          </BoundProperties>
        </PanAndZoomShapeEffect>
      </Effects>
      <Transitions>
        <ShapeEffect effectTemplateID="BlurThroughBlackTransitionTemplate" duration="1.5">
          <BoundProperties />
        </ShapeEffect>
      </Transitions>
      <BoundProperties>
        <BoundPropertyInt Name="rotateStepNinety" Value="0" />
      </BoundProperties>
    </ImageClip>
    <ImageClip extentID="126" gapBefore="0" mediaItemID="122" duration="7.896860823809523">
      <Effects>
        <PanAndZoomShapeEffect effectTemplateID="PanAndZoomEffectAutomaticTemplate">
          <BoundProperties>
            <BoundPropertyFloatSet Name="center">
              <BoundPropertyFloatElement Value="-0.5" />
              <BoundPropertyFloatElement Value="-0.5" />
              <BoundPropertyFloatElement Value="-0.5" />
              <BoundPropertyFloatElement Value="-0.5" />
            </BoundPropertyFloatSet>
            <BoundPropertyInt Name="effectType" Value="5" />
            <BoundPropertyFloatSet Name="scale">
              <BoundPropertyFloatElement Value="1" />
              <BoundPropertyFloatElement Value="1" />
              <BoundPropertyFloatElement Value="0.85000002384185791" />
              <BoundPropertyFloatElement Value="0.85000002384185791" />
            </BoundPropertyFloatSet>
          </BoundProperties>
        </PanAndZoomShapeEffect>
      </Effects>
      <Transitions>
        <ShapeEffect effectTemplateID="BlurThroughBlackTransitionTemplate" duration="1.5">
          <BoundProperties />
        </ShapeEffect>
      </Transitions>
      <BoundProperties>
        <BoundPropertyInt Name="rotateStepNinety" Value="0" />
      </BoundProperties>
    </ImageClip>
    <ImageClip extentID="127" gapBefore="0" mediaItemID="123" duration="7.896860823809523">
      <Effects>
        <PanAndZoomShapeEffect effectTemplateID="PanAndZoomEffectAutomaticTemplate">
          <BoundProperties>
            <BoundPropertyFloatSet Name="center">
              <BoundPropertyFloatElement Value="-0.5" />
              <BoundPropertyFloatElement Value="-0.5" />
              <BoundPropertyFloatElement Value="-0.5" />
              <BoundPropertyFloatElement Value="-0.5" />
            </BoundPropertyFloatSet>
            <BoundPropertyInt Name="effectType" Value="6" />
            <BoundPropertyFloatSet Name="scale">
              <BoundPropertyFloatElement Value="0.85000002384185791" />
              <BoundPropertyFloatElement Value="0.85000002384185791" />
              <BoundPropertyFloatElement Value="1" />
              <BoundPropertyFloatElement Value="1" />
            </BoundPropertyFloatSet>
          </BoundProperties>
        </PanAndZoomShapeEffect>
      </Effects>
      <Transitions>
        <ShapeEffect effectTemplateID="BlurThroughBlackTransitionTemplate" duration="1.5">
          <BoundProperties />
        </ShapeEffect>
      </Transitions>
      <BoundProperties>
        <BoundPropertyInt Name="rotateStepNinety" Value="0" />
      </BoundProperties>
    </ImageClip>
    <ImageClip extentID="128" gapBefore="0" mediaItemID="124" duration="7.896860823809523">
      <Effects>
        <PanAndZoomShapeEffect effectTemplateID="PanAndZoomEffectAutomaticTemplate">
          <BoundProperties>
            <BoundPropertyFloatSet Name="center">
              <BoundPropertyFloatElement Value="-0.5" />
              <BoundPropertyFloatElement Value="-1" />
              <BoundPropertyFloatElement Value="-0.5" />
              <BoundPropertyFloatElement Value="-1" />
            </BoundPropertyFloatSet>
            <BoundPropertyInt Name="effectType" Value="5" />
            <BoundPropertyFloatSet Name="scale">
              <BoundPropertyFloatElement Value="1" />
              <BoundPropertyFloatElement Value="1" />
              <BoundPropertyFloatElement Value="0.85000002384185791" />
              <BoundPropertyFloatElement Value="0.85000002384185791" />
            </BoundPropertyFloatSet>
          </BoundProperties>
        </PanAndZoomShapeEffect>
      </Effects>
      <Transitions>
        <ShapeEffect effectTemplateID="BlurThroughBlackTransitionTemplate" duration="1.5">
          <BoundProperties />
        </ShapeEffect>
      </Transitions>
      <BoundProperties>
        <BoundPropertyInt Name="rotateStepNinety" Value="0" />
      </BoundProperties>
    </ImageClip>
    <ImageClip extentID="129" gapBefore="0" mediaItemID="125" duration="7.896860823809523">
      <Effects>
        <PanAndZoomShapeEffect effectTemplateID="PanAndZoomEffectAutomaticTemplate">
          <BoundProperties>
            <BoundPropertyFloatSet Name="center">
              <BoundPropertyFloatElement Value="-0.5" />
              <BoundPropertyFloatElement Value="-0.5" />
              <BoundPropertyFloatElement Value="-0.5" />
              <BoundPropertyFloatElement Value="-0.5" />
            </BoundPropertyFloatSet>
            <BoundPropertyInt Name="effectType" Value="5" />
            <BoundPropertyFloatSet Name="scale">
              <BoundPropertyFloatElement Value="1" />
              <BoundPropertyFloatElement Value="1" />
              <BoundPropertyFloatElement Value="0.85000002384185791" />
              <BoundPropertyFloatElement Value="0.85000002384185791" />
            </BoundPropertyFloatSet>
          </BoundProperties>
        </PanAndZoomShapeEffect>
      </Effects>
      <Transitions>
        <ShapeEffect effectTemplateID="BlurThroughBlackTransitionTemplate" duration="1.5">
          <BoundProperties />
        </ShapeEffect>
      </Transitions>
      <BoundProperties>
        <BoundPropertyInt Name="rotateStepNinety" Value="0" />
      </BoundProperties>
    </ImageClip>
    <ImageClip extentID="130" gapBefore="0" mediaItemID="126" duration="7.896860823809523">
      <Effects>
        <PanAndZoomShapeEffect effectTemplateID="PanAndZoomEffectAutomaticTemplate">
          <BoundProperties>
            <BoundPropertyFloatSet Name="center">
              <BoundPropertyFloatElement Value="0" />
              <BoundPropertyFloatElement Value="-0.5" />
              <BoundPropertyFloatElement Value="-1" />
              <BoundPropertyFloatElement Value="-0.5" />
            </BoundPropertyFloatSet>
            <BoundPropertyInt Name="effectType" Value="1" />
            <BoundPropertyFloatSet Name="scale">
              <BoundPropertyFloatElement Value="0.85000002384185791" />
              <BoundPropertyFloatElement Value="0.85000002384185791" />
              <BoundPropertyFloatElement Value="0.85000002384185791" />
              <BoundPropertyFloatElement Value="0.85000002384185791" />
            </BoundPropertyFloatSet>
          </BoundProperties>
        </PanAndZoomShapeEffect>
      </Effects>
      <Transitions>
        <ShapeEffect effectTemplateID="BlurThroughBlackTransitionTemplate" duration="1.5">
          <BoundProperties />
        </ShapeEffect>
      </Transitions>
      <BoundProperties>
        <BoundPropertyInt Name="rotateStepNinety" Value="0" />
      </BoundProperties>
    </ImageClip>
    <ImageClip extentID="131" gapBefore="0" mediaItemID="127" duration="7.896860823809523">
      <Effects>
        <PanAndZoomShapeEffect effectTemplateID="PanAndZoomEffectAutomaticTemplate">
          <BoundProperties>
            <BoundPropertyFloatSet Name="center">
              <BoundPropertyFloatElement Value="-1" />
              <BoundPropertyFloatElement Value="-0.5" />
              <BoundPropertyFloatElement Value="0" />
              <BoundPropertyFloatElement Value="-0.5" />
            </BoundPropertyFloatSet>
            <BoundPropertyInt Name="effectType" Value="2" />
            <BoundPropertyFloatSet Name="scale">
              <BoundPropertyFloatElement Value="0.85000002384185791" />
              <BoundPropertyFloatElement Value="0.85000002384185791" />
              <BoundPropertyFloatElement Value="0.85000002384185791" />
              <BoundPropertyFloatElement Value="0.85000002384185791" />
            </BoundPropertyFloatSet>
          </BoundProperties>
        </PanAndZoomShapeEffect>
      </Effects>
      <Transitions>
        <ShapeEffect effectTemplateID="BlurThroughBlackTransitionTemplate" duration="1.5">
          <BoundProperties />
        </ShapeEffect>
      </Transitions>
      <BoundProperties>
        <BoundPropertyInt Name="rotateStepNinety" Value="0" />
      </BoundProperties>
    </ImageClip>
    <ImageClip extentID="132" gapBefore="0" mediaItemID="128" duration="7.896860823809523">
      <Effects>
        <PanAndZoomShapeEffect effectTemplateID="PanAndZoomEffectAutomaticTemplate">
          <BoundProperties>
            <BoundPropertyFloatSet Name="center">
              <BoundPropertyFloatElement Value="-0.5" />
              <BoundPropertyFloatElement Value="0" />
              <BoundPropertyFloatElement Value="-0.5" />
              <BoundPropertyFloatElement Value="-1" />
            </BoundPropertyFloatSet>
            <BoundPropertyInt Name="effectType" Value="4" />
            <BoundPropertyFloatSet Name="scale">
              <BoundPropertyFloatElement Value="0.85000002384185791" />
              <BoundPropertyFloatElement Value="0.85000002384185791" />
              <BoundPropertyFloatElement Value="0.85000002384185791" />
              <BoundPropertyFloatElement Value="0.85000002384185791" />
            </BoundPropertyFloatSet>
          </BoundProperties>
        </PanAndZoomShapeEffect>
      </Effects>
      <Transitions>
        <ShapeEffect effectTemplateID="BlurThroughBlackTransitionTemplate" duration="1.5">
          <BoundProperties />
        </ShapeEffect>
      </Transitions>
      <BoundProperties>
        <BoundPropertyInt Name="rotateStepNinety" Value="0" />
      </BoundProperties>
    </ImageClip>
    <ImageClip extentID="133" gapBefore="0" mediaItemID="129" duration="7.896860823809523">
      <Effects>
        <PanAndZoomShapeEffect effectTemplateID="PanAndZoomEffectAutomaticTemplate">
          <BoundProperties>
            <BoundPropertyFloatSet Name="center">
              <BoundPropertyFloatElement Value="0" />
              <BoundPropertyFloatElement Value="-0.5" />
              <BoundPropertyFloatElement Value="-1" />
              <BoundPropertyFloatElement Value="-0.5" />
            </BoundPropertyFloatSet>
            <BoundPropertyInt Name="effectType" Value="1" />
            <BoundPropertyFloatSet Name="scale">
              <BoundPropertyFloatElement Value="0.85000002384185791" />
              <BoundPropertyFloatElement Value="0.85000002384185791" />
              <BoundPropertyFloatElement Value="0.85000002384185791" />
              <BoundPropertyFloatElement Value="0.85000002384185791" />
            </BoundPropertyFloatSet>
          </BoundProperties>
        </PanAndZoomShapeEffect>
      </Effects>
      <Transitions>
        <ShapeEffect effectTemplateID="BlurThroughBlackTransitionTemplate" duration="1.5">
          <BoundProperties />
        </ShapeEffect>
      </Transitions>
      <BoundProperties>
        <BoundPropertyInt Name="rotateStepNinety" Value="0" />
      </BoundProperties>
    </ImageClip>
    <ImageClip extentID="134" gapBefore="0" mediaItemID="130" duration="7.896860823809523">
      <Effects>
        <PanAndZoomShapeEffect effectTemplateID="PanAndZoomEffectAutomaticTemplate">
          <BoundProperties>
            <BoundPropertyFloatSet Name="center">
              <BoundPropertyFloatElement Value="0" />
              <BoundPropertyFloatElement Value="-0.5" />
              <BoundPropertyFloatElement Value="0" />
              <BoundPropertyFloatElement Value="-0.5" />
            </BoundPropertyFloatSet>
            <BoundPropertyInt Name="effectType" Value="6" />
            <BoundPropertyFloatSet Name="scale">
              <BoundPropertyFloatElement Value="0.85000002384185791" />
              <BoundPropertyFloatElement Value="0.85000002384185791" />
              <BoundPropertyFloatElement Value="1" />
              <BoundPropertyFloatElement Value="1" />
            </BoundPropertyFloatSet>
          </BoundProperties>
        </PanAndZoomShapeEffect>
      </Effects>
      <Transitions>
        <ShapeEffect effectTemplateID="BlurThroughBlackTransitionTemplate" duration="1.5">
          <BoundProperties />
        </ShapeEffect>
      </Transitions>
      <BoundProperties>
        <BoundPropertyInt Name="rotateStepNinety" Value="0" />
      </BoundProperties>
    </ImageClip>
    <ImageClip extentID="135" gapBefore="0" mediaItemID="131" duration="7.896860823809523">
      <Effects>
        <PanAndZoomShapeEffect effectTemplateID="PanAndZoomEffectAutomaticTemplate">
          <BoundProperties>
            <BoundPropertyFloatSet Name="center">
              <BoundPropertyFloatElement Value="-0.5" />
              <BoundPropertyFloatElement Value="0" />
              <BoundPropertyFloatElement Value="-0.5" />
              <BoundPropertyFloatElement Value="-1" />
            </BoundPropertyFloatSet>
            <BoundPropertyInt Name="effectType" Value="4" />
            <BoundPropertyFloatSet Name="scale">
              <BoundPropertyFloatElement Value="0.85000002384185791" />
              <BoundPropertyFloatElement Value="0.85000002384185791" />
              <BoundPropertyFloatElement Value="0.85000002384185791" />
              <BoundPropertyFloatElement Value="0.85000002384185791" />
            </BoundPropertyFloatSet>
          </BoundProperties>
        </PanAndZoomShapeEffect>
      </Effects>
      <Transitions>
        <ShapeEffect effectTemplateID="BlurThroughBlackTransitionTemplate" duration="1.5">
          <BoundProperties />
        </ShapeEffect>
      </Transitions>
      <BoundProperties>
        <BoundPropertyInt Name="rotateStepNinety" Value="0" />
      </BoundProperties>
    </ImageClip>
    <ImageClip extentID="136" gapBefore="0" mediaItemID="132" duration="7.896860823809523">
      <Effects>
        <PanAndZoomShapeEffect effectTemplateID="PanAndZoomEffectAutomaticTemplate">
          <BoundProperties>
            <BoundPropertyFloatSet Name="center">
              <BoundPropertyFloatElement Value="-0.5" />
              <BoundPropertyFloatElement Value="-1" />
              <BoundPropertyFloatElement Value="-0.5" />
              <BoundPropertyFloatElement Value="-1" />
            </BoundPropertyFloatSet>
            <BoundPropertyInt Name="effectType" Value="5" />
            <BoundPropertyFloatSet Name="scale">
              <BoundPropertyFloatElement Value="1" />
              <BoundPropertyFloatElement Value="1" />
              <BoundPropertyFloatElement Value="0.85000002384185791" />
              <BoundPropertyFloatElement Value="0.85000002384185791" />
            </BoundPropertyFloatSet>
          </BoundProperties>
        </PanAndZoomShapeEffect>
      </Effects>
      <Transitions>
        <ShapeEffect effectTemplateID="BlurThroughBlackTransitionTemplate" duration="1.5">
          <BoundProperties />
        </ShapeEffect>
      </Transitions>
      <BoundProperties>
        <BoundPropertyInt Name="rotateStepNinety" Value="0" />
      </BoundProperties>
    </ImageClip>
    <ImageClip extentID="137" gapBefore="0" mediaItemID="133" duration="7.896860823809523">
      <Effects>
        <PanAndZoomShapeEffect effectTemplateID="PanAndZoomEffectAutomaticTemplate">
          <BoundProperties>
            <BoundPropertyFloatSet Name="center">
              <BoundPropertyFloatElement Value="-1" />
              <BoundPropertyFloatElement Value="-0.5" />
              <BoundPropertyFloatElement Value="0" />
              <BoundPropertyFloatElement Value="-0.5" />
            </BoundPropertyFloatSet>
            <BoundPropertyInt Name="effectType" Value="2" />
            <BoundPropertyFloatSet Name="scale">
              <BoundPropertyFloatElement Value="0.85000002384185791" />
              <BoundPropertyFloatElement Value="0.85000002384185791" />
              <BoundPropertyFloatElement Value="0.85000002384185791" />
              <BoundPropertyFloatElement Value="0.85000002384185791" />
            </BoundPropertyFloatSet>
          </BoundProperties>
        </PanAndZoomShapeEffect>
      </Effects>
      <Transitions>
        <ShapeEffect effectTemplateID="BlurThroughBlackTransitionTemplate" duration="1.5">
          <BoundProperties />
        </ShapeEffect>
      </Transitions>
      <BoundProperties>
        <BoundPropertyInt Name="rotateStepNinety" Value="0" />
      </BoundProperties>
    </ImageClip>
    <ImageClip extentID="138" gapBefore="0" mediaItemID="134" duration="7.896860823809523">
      <Effects>
        <PanAndZoomShapeEffect effectTemplateID="PanAndZoomEffectAutomaticTemplate">
          <BoundProperties>
            <BoundPropertyFloatSet Name="center">
              <BoundPropertyFloatElement Value="-0.5" />
              <BoundPropertyFloatElement Value="-0.5" />
              <BoundPropertyFloatElement Value="-0.5" />
              <BoundPropertyFloatElement Value="-0.5" />
            </BoundPropertyFloatSet>
            <BoundPropertyInt Name="effectType" Value="6" />
            <BoundPropertyFloatSet Name="scale">
              <BoundPropertyFloatElement Value="0.85000002384185791" />
              <BoundPropertyFloatElement Value="0.85000002384185791" />
              <BoundPropertyFloatElement Value="1" />
              <BoundPropertyFloatElement Value="1" />
            </BoundPropertyFloatSet>
          </BoundProperties>
        </PanAndZoomShapeEffect>
      </Effects>
      <Transitions>
        <ShapeEffect effectTemplateID="BlurThroughBlackTransitionTemplate" duration="1.5">
          <BoundProperties />
        </ShapeEffect>
      </Transitions>
      <BoundProperties>
        <BoundPropertyInt Name="rotateStepNinety" Value="0" />
      </BoundProperties>
    </ImageClip>
    <ImageClip extentID="139" gapBefore="0" mediaItemID="135" duration="7.896860823809523">
      <Effects>
        <PanAndZoomShapeEffect effectTemplateID="PanAndZoomEffectAutomaticTemplate">
          <BoundProperties>
            <BoundPropertyFloatSet Name="center">
              <BoundPropertyFloatElement Value="-0.5" />
              <BoundPropertyFloatElement Value="-1" />
              <BoundPropertyFloatElement Value="-0.5" />
              <BoundPropertyFloatElement Value="-1" />
            </BoundPropertyFloatSet>
            <BoundPropertyInt Name="effectType" Value="5" />
            <BoundPropertyFloatSet Name="scale">
              <BoundPropertyFloatElement Value="1" />
              <BoundPropertyFloatElement Value="1" />
              <BoundPropertyFloatElement Value="0.85000002384185791" />
              <BoundPropertyFloatElement Value="0.85000002384185791" />
            </BoundPropertyFloatSet>
          </BoundProperties>
        </PanAndZoomShapeEffect>
      </Effects>
      <Transitions>
        <ShapeEffect effectTemplateID="BlurThroughBlackTransitionTemplate" duration="1.5">
          <BoundProperties />
        </ShapeEffect>
      </Transitions>
      <BoundProperties>
        <BoundPropertyInt Name="rotateStepNinety" Value="0" />
      </BoundProperties>
    </ImageClip>
    <ImageClip extentID="140" gapBefore="0" mediaItemID="136" duration="7.896860823809523">
      <Effects>
        <PanAndZoomShapeEffect effectTemplateID="PanAndZoomEffectAutomaticTemplate">
          <BoundProperties>
            <BoundPropertyFloatSet Name="center">
              <BoundPropertyFloatElement Value="-0.5" />
              <BoundPropertyFloatElement Value="-0.5" />
              <BoundPropertyFloatElement Value="-0.5" />
              <BoundPropertyFloatElement Value="-0.5" />
            </BoundPropertyFloatSet>
            <BoundPropertyInt Name="effectType" Value="6" />
            <BoundPropertyFloatSet Name="scale">
              <BoundPropertyFloatElement Value="0.85000002384185791" />
              <BoundPropertyFloatElement Value="0.85000002384185791" />
              <BoundPropertyFloatElement Value="1" />
              <BoundPropertyFloatElement Value="1" />
            </BoundPropertyFloatSet>
          </BoundProperties>
        </PanAndZoomShapeEffect>
      </Effects>
      <Transitions>
        <ShapeEffect effectTemplateID="BlurThroughBlackTransitionTemplate" duration="1.5">
          <BoundProperties />
        </ShapeEffect>
      </Transitions>
      <BoundProperties>
        <BoundPropertyInt Name="rotateStepNinety" Value="0" />
      </BoundProperties>
    </ImageClip>
    <ImageClip extentID="141" gapBefore="0" mediaItemID="137" duration="7.896860823809523">
      <Effects>
        <PanAndZoomShapeEffect effectTemplateID="PanAndZoomEffectAutomaticTemplate">
          <BoundProperties>
            <BoundPropertyFloatSet Name="center">
              <BoundPropertyFloatElement Value="-0.5" />
              <BoundPropertyFloatElement Value="-0.5" />
              <BoundPropertyFloatElement Value="-0.5" />
              <BoundPropertyFloatElement Value="-0.5" />
            </BoundPropertyFloatSet>
            <BoundPropertyInt Name="effectType" Value="6" />
            <BoundPropertyFloatSet Name="scale">
              <BoundPropertyFloatElement Value="0.85000002384185791" />
              <BoundPropertyFloatElement Value="0.85000002384185791" />
              <BoundPropertyFloatElement Value="1" />
              <BoundPropertyFloatElement Value="1" />
            </BoundPropertyFloatSet>
          </BoundProperties>
        </PanAndZoomShapeEffect>
      </Effects>
      <Transitions>
        <ShapeEffect effectTemplateID="BlurThroughBlackTransitionTemplate" duration="1.5">
          <BoundProperties />
        </ShapeEffect>
      </Transitions>
      <BoundProperties>
        <BoundPropertyInt Name="rotateStepNinety" Value="0" />
      </BoundProperties>
    </ImageClip>
    <ImageClip extentID="142" gapBefore="0" mediaItemID="138" duration="7.896860823809523">
      <Effects>
        <PanAndZoomShapeEffect effectTemplateID="PanAndZoomEffectAutomaticTemplate">
          <BoundProperties>
            <BoundPropertyFloatSet Name="center">
              <BoundPropertyFloatElement Value="-0.5" />
              <BoundPropertyFloatElement Value="-1" />
              <BoundPropertyFloatElement Value="-0.5" />
              <BoundPropertyFloatElement Value="0" />
            </BoundPropertyFloatSet>
            <BoundPropertyInt Name="effectType" Value="3" />
            <BoundPropertyFloatSet Name="scale">
              <BoundPropertyFloatElement Value="0.85000002384185791" />
              <BoundPropertyFloatElement Value="0.85000002384185791" />
              <BoundPropertyFloatElement Value="0.85000002384185791" />
              <BoundPropertyFloatElement Value="0.85000002384185791" />
            </BoundPropertyFloatSet>
          </BoundProperties>
        </PanAndZoomShapeEffect>
      </Effects>
      <Transitions>
        <ShapeEffect effectTemplateID="BlurThroughBlackTransitionTemplate" duration="1.5">
          <BoundProperties />
        </ShapeEffect>
      </Transitions>
      <BoundProperties>
        <BoundPropertyInt Name="rotateStepNinety" Value="0" />
      </BoundProperties>
    </ImageClip>
    <ImageClip extentID="143" gapBefore="0" mediaItemID="139" duration="7.896860823809523">
      <Effects>
        <PanAndZoomShapeEffect effectTemplateID="PanAndZoomEffectAutomaticTemplate">
          <BoundProperties>
            <BoundPropertyFloatSet Name="center">
              <BoundPropertyFloatElement Value="-1" />
              <BoundPropertyFloatElement Value="-1" />
              <BoundPropertyFloatElement Value="-1" />
              <BoundPropertyFloatElement Value="-1" />
            </BoundPropertyFloatSet>
            <BoundPropertyInt Name="effectType" Value="5" />
            <BoundPropertyFloatSet Name="scale">
              <BoundPropertyFloatElement Value="1" />
              <BoundPropertyFloatElement Value="1" />
              <BoundPropertyFloatElement Value="0.85000002384185791" />
              <BoundPropertyFloatElement Value="0.85000002384185791" />
            </BoundPropertyFloatSet>
          </BoundProperties>
        </PanAndZoomShapeEffect>
      </Effects>
      <Transitions>
        <ShapeEffect effectTemplateID="BlurThroughBlackTransitionTemplate" duration="1.5">
          <BoundProperties />
        </ShapeEffect>
      </Transitions>
      <BoundProperties>
        <BoundPropertyInt Name="rotateStepNinety" Value="0" />
      </BoundProperties>
    </ImageClip>
    <ImageClip extentID="144" gapBefore="0" mediaItemID="140" duration="7.896860823809523">
      <Effects>
        <PanAndZoomShapeEffect effectTemplateID="PanAndZoomEffectAutomaticTemplate">
          <BoundProperties>
            <BoundPropertyFloatSet Name="center">
              <BoundPropertyFloatElement Value="-1" />
              <BoundPropertyFloatElement Value="-0.5" />
              <BoundPropertyFloatElement Value="0" />
              <BoundPropertyFloatElement Value="-0.5" />
            </BoundPropertyFloatSet>
            <BoundPropertyInt Name="effectType" Value="2" />
            <BoundPropertyFloatSet Name="scale">
              <BoundPropertyFloatElement Value="0.85000002384185791" />
              <BoundPropertyFloatElement Value="0.85000002384185791" />
              <BoundPropertyFloatElement Value="0.85000002384185791" />
              <BoundPropertyFloatElement Value="0.85000002384185791" />
            </BoundPropertyFloatSet>
          </BoundProperties>
        </PanAndZoomShapeEffect>
      </Effects>
      <Transitions>
        <ShapeEffect effectTemplateID="BlurThroughBlackTransitionTemplate" duration="1.5">
          <BoundProperties />
        </ShapeEffect>
      </Transitions>
      <BoundProperties>
        <BoundPropertyInt Name="rotateStepNinety" Value="0" />
      </BoundProperties>
    </ImageClip>
    <ImageClip extentID="145" gapBefore="0" mediaItemID="141" duration="7.896860823809523">
      <Effects>
        <PanAndZoomShapeEffect effectTemplateID="PanAndZoomEffectAutomaticTemplate">
          <BoundProperties>
            <BoundPropertyFloatSet Name="center">
              <BoundPropertyFloatElement Value="-1" />
              <BoundPropertyFloatElement Value="-0.5" />
              <BoundPropertyFloatElement Value="0" />
              <BoundPropertyFloatElement Value="-0.5" />
            </BoundPropertyFloatSet>
            <BoundPropertyInt Name="effectType" Value="2" />
            <BoundPropertyFloatSet Name="scale">
              <BoundPropertyFloatElement Value="0.85000002384185791" />
              <BoundPropertyFloatElement Value="0.85000002384185791" />
              <BoundPropertyFloatElement Value="0.85000002384185791" />
              <BoundPropertyFloatElement Value="0.85000002384185791" />
            </BoundPropertyFloatSet>
          </BoundProperties>
        </PanAndZoomShapeEffect>
      </Effects>
      <Transitions>
        <ShapeEffect effectTemplateID="BlurThroughBlackTransitionTemplate" duration="1.5">
          <BoundProperties />
        </ShapeEffect>
      </Transitions>
      <BoundProperties>
        <BoundPropertyInt Name="rotateStepNinety" Value="0" />
      </BoundProperties>
    </ImageClip>
    <ImageClip extentID="146" gapBefore="0" mediaItemID="142" duration="7.896860823809523">
      <Effects>
        <PanAndZoomShapeEffect effectTemplateID="PanAndZoomEffectAutomaticTemplate">
          <BoundProperties>
            <BoundPropertyFloatSet Name="center">
              <BoundPropertyFloatElement Value="-1" />
              <BoundPropertyFloatElement Value="-0.5" />
              <BoundPropertyFloatElement Value="-1" />
              <BoundPropertyFloatElement Value="-0.5" />
            </BoundPropertyFloatSet>
            <BoundPropertyInt Name="effectType" Value="5" />
            <BoundPropertyFloatSet Name="scale">
              <BoundPropertyFloatElement Value="1" />
              <BoundPropertyFloatElement Value="1" />
              <BoundPropertyFloatElement Value="0.85000002384185791" />
              <BoundPropertyFloatElement Value="0.85000002384185791" />
            </BoundPropertyFloatSet>
          </BoundProperties>
        </PanAndZoomShapeEffect>
      </Effects>
      <Transitions>
        <ShapeEffect effectTemplateID="BlurThroughBlackTransitionTemplate" duration="1.5">
          <BoundProperties />
        </ShapeEffect>
      </Transitions>
      <BoundProperties>
        <BoundPropertyInt Name="rotateStepNinety" Value="0" />
      </BoundProperties>
    </ImageClip>
    <ImageClip extentID="147" gapBefore="0" mediaItemID="143" duration="7.896860823809523">
      <Effects>
        <PanAndZoomShapeEffect effectTemplateID="PanAndZoomEffectAutomaticTemplate">
          <BoundProperties>
            <BoundPropertyFloatSet Name="center">
              <BoundPropertyFloatElement Value="-0.5" />
              <BoundPropertyFloatElement Value="0" />
              <BoundPropertyFloatElement Value="-0.5" />
              <BoundPropertyFloatElement Value="-1" />
            </BoundPropertyFloatSet>
            <BoundPropertyInt Name="effectType" Value="4" />
            <BoundPropertyFloatSet Name="scale">
              <BoundPropertyFloatElement Value="0.85000002384185791" />
              <BoundPropertyFloatElement Value="0.85000002384185791" />
              <BoundPropertyFloatElement Value="0.85000002384185791" />
              <BoundPropertyFloatElement Value="0.85000002384185791" />
            </BoundPropertyFloatSet>
          </BoundProperties>
        </PanAndZoomShapeEffect>
      </Effects>
      <Transitions>
        <ShapeEffect effectTemplateID="BlurThroughBlackTransitionTemplate" duration="1.5">
          <BoundProperties />
        </ShapeEffect>
      </Transitions>
      <BoundProperties>
        <BoundPropertyInt Name="rotateStepNinety" Value="0" />
      </BoundProperties>
    </ImageClip>
    <ImageClip extentID="148" gapBefore="0" mediaItemID="144" duration="7.896860823809523">
      <Effects>
        <PanAndZoomShapeEffect effectTemplateID="PanAndZoomEffectAutomaticTemplate">
          <BoundProperties>
            <BoundPropertyFloatSet Name="center">
              <BoundPropertyFloatElement Value="-0.5" />
              <BoundPropertyFloatElement Value="-1" />
              <BoundPropertyFloatElement Value="-0.5" />
              <BoundPropertyFloatElement Value="-1" />
            </BoundPropertyFloatSet>
            <BoundPropertyInt Name="effectType" Value="6" />
            <BoundPropertyFloatSet Name="scale">
              <BoundPropertyFloatElement Value="0.85000002384185791" />
              <BoundPropertyFloatElement Value="0.85000002384185791" />
              <BoundPropertyFloatElement Value="1" />
              <BoundPropertyFloatElement Value="1" />
            </BoundPropertyFloatSet>
          </BoundProperties>
        </PanAndZoomShapeEffect>
      </Effects>
      <Transitions>
        <ShapeEffect effectTemplateID="BlurThroughBlackTransitionTemplate" duration="1.5">
          <BoundProperties />
        </ShapeEffect>
      </Transitions>
      <BoundProperties>
        <BoundPropertyInt Name="rotateStepNinety" Value="0" />
      </BoundProperties>
    </ImageClip>
    <ImageClip extentID="149" gapBefore="0" mediaItemID="145" duration="7.896860823809523">
      <Effects>
        <PanAndZoomShapeEffect effectTemplateID="PanAndZoomEffectAutomaticTemplate">
          <BoundProperties>
            <BoundPropertyFloatSet Name="center">
              <BoundPropertyFloatElement Value="-1" />
              <BoundPropertyFloatElement Value="-0.5" />
              <BoundPropertyFloatElement Value="0" />
              <BoundPropertyFloatElement Value="-0.5" />
            </BoundPropertyFloatSet>
            <BoundPropertyInt Name="effectType" Value="2" />
            <BoundPropertyFloatSet Name="scale">
              <BoundPropertyFloatElement Value="0.85000002384185791" />
              <BoundPropertyFloatElement Value="0.85000002384185791" />
              <BoundPropertyFloatElement Value="0.85000002384185791" />
              <BoundPropertyFloatElement Value="0.85000002384185791" />
            </BoundPropertyFloatSet>
          </BoundProperties>
        </PanAndZoomShapeEffect>
      </Effects>
      <Transitions>
        <ShapeEffect effectTemplateID="BlurThroughBlackTransitionTemplate" duration="1.5">
          <BoundProperties />
        </ShapeEffect>
      </Transitions>
      <BoundProperties>
        <BoundPropertyInt Name="rotateStepNinety" Value="0" />
      </BoundProperties>
    </ImageClip>
    <ImageClip extentID="150" gapBefore="0" mediaItemID="146" duration="7.896860823809523">
      <Effects>
        <PanAndZoomShapeEffect effectTemplateID="PanAndZoomEffectAutomaticTemplate">
          <BoundProperties>
            <BoundPropertyFloatSet Name="center">
              <BoundPropertyFloatElement Value="-0.5" />
              <BoundPropertyFloatElement Value="-1" />
              <BoundPropertyFloatElement Value="-0.5" />
              <BoundPropertyFloatElement Value="0" />
            </BoundPropertyFloatSet>
            <BoundPropertyInt Name="effectType" Value="3" />
            <BoundPropertyFloatSet Name="scale">
              <BoundPropertyFloatElement Value="0.85000002384185791" />
              <BoundPropertyFloatElement Value="0.85000002384185791" />
              <BoundPropertyFloatElement Value="0.85000002384185791" />
              <BoundPropertyFloatElement Value="0.85000002384185791" />
            </BoundPropertyFloatSet>
          </BoundProperties>
        </PanAndZoomShapeEffect>
      </Effects>
      <Transitions>
        <ShapeEffect effectTemplateID="BlurThroughBlackTransitionTemplate" duration="1.5">
          <BoundProperties />
        </ShapeEffect>
      </Transitions>
      <BoundProperties>
        <BoundPropertyInt Name="rotateStepNinety" Value="0" />
      </BoundProperties>
    </ImageClip>
    <ImageClip extentID="151" gapBefore="0" mediaItemID="147" duration="7.896860823809523">
      <Effects>
        <PanAndZoomShapeEffect effectTemplateID="PanAndZoomEffectAutomaticTemplate">
          <BoundProperties>
            <BoundPropertyFloatSet Name="center">
              <BoundPropertyFloatElement Value="-0.5" />
              <BoundPropertyFloatElement Value="0" />
              <BoundPropertyFloatElement Value="-0.5" />
              <BoundPropertyFloatElement Value="-1" />
            </BoundPropertyFloatSet>
            <BoundPropertyInt Name="effectType" Value="4" />
            <BoundPropertyFloatSet Name="scale">
              <BoundPropertyFloatElement Value="0.85000002384185791" />
              <BoundPropertyFloatElement Value="0.85000002384185791" />
              <BoundPropertyFloatElement Value="0.85000002384185791" />
              <BoundPropertyFloatElement Value="0.85000002384185791" />
            </BoundPropertyFloatSet>
          </BoundProperties>
        </PanAndZoomShapeEffect>
      </Effects>
      <Transitions>
        <ShapeEffect effectTemplateID="BlurThroughBlackTransitionTemplate" duration="1.5">
          <BoundProperties />
        </ShapeEffect>
      </Transitions>
      <BoundProperties>
        <BoundPropertyInt Name="rotateStepNinety" Value="0" />
      </BoundProperties>
    </ImageClip>
    <ImageClip extentID="152" gapBefore="0" mediaItemID="148" duration="7.896860823809523">
      <Effects>
        <PanAndZoomShapeEffect effectTemplateID="PanAndZoomEffectAutomaticTemplate">
          <BoundProperties>
            <BoundPropertyFloatSet Name="center">
              <BoundPropertyFloatElement Value="0" />
              <BoundPropertyFloatElement Value="-0.5" />
              <BoundPropertyFloatElement Value="-1" />
              <BoundPropertyFloatElement Value="-0.5" />
            </BoundPropertyFloatSet>
            <BoundPropertyInt Name="effectType" Value="1" />
            <BoundPropertyFloatSet Name="scale">
              <BoundPropertyFloatElement Value="0.85000002384185791" />
              <BoundPropertyFloatElement Value="0.85000002384185791" />
              <BoundPropertyFloatElement Value="0.85000002384185791" />
              <BoundPropertyFloatElement Value="0.85000002384185791" />
            </BoundPropertyFloatSet>
          </BoundProperties>
        </PanAndZoomShapeEffect>
      </Effects>
      <Transitions>
        <ShapeEffect effectTemplateID="BlurThroughBlackTransitionTemplate" duration="1.5">
          <BoundProperties />
        </ShapeEffect>
      </Transitions>
      <BoundProperties>
        <BoundPropertyInt Name="rotateStepNinety" Value="0" />
      </BoundProperties>
    </ImageClip>
    <ImageClip extentID="153" gapBefore="0" mediaItemID="149" duration="7.896860823809523">
      <Effects>
        <PanAndZoomShapeEffect effectTemplateID="PanAndZoomEffectAutomaticTemplate">
          <BoundProperties>
            <BoundPropertyFloatSet Name="center">
              <BoundPropertyFloatElement Value="-1" />
              <BoundPropertyFloatElement Value="-0.5" />
              <BoundPropertyFloatElement Value="-1" />
              <BoundPropertyFloatElement Value="-0.5" />
            </BoundPropertyFloatSet>
            <BoundPropertyInt Name="effectType" Value="6" />
            <BoundPropertyFloatSet Name="scale">
              <BoundPropertyFloatElement Value="0.85000002384185791" />
              <BoundPropertyFloatElement Value="0.85000002384185791" />
              <BoundPropertyFloatElement Value="1" />
              <BoundPropertyFloatElement Value="1" />
            </BoundPropertyFloatSet>
          </BoundProperties>
        </PanAndZoomShapeEffect>
      </Effects>
      <Transitions>
        <ShapeEffect effectTemplateID="BlurThroughBlackTransitionTemplate" duration="1.5">
          <BoundProperties />
        </ShapeEffect>
      </Transitions>
      <BoundProperties>
        <BoundPropertyInt Name="rotateStepNinety" Value="0" />
      </BoundProperties>
    </ImageClip>
    <ImageClip extentID="154" gapBefore="0" mediaItemID="150" duration="7.896860823809523">
      <Effects>
        <PanAndZoomShapeEffect effectTemplateID="PanAndZoomEffectAutomaticTemplate">
          <BoundProperties>
            <BoundPropertyFloatSet Name="center">
              <BoundPropertyFloatElement Value="-1" />
              <BoundPropertyFloatElement Value="-0.5" />
              <BoundPropertyFloatElement Value="-1" />
              <BoundPropertyFloatElement Value="-0.5" />
            </BoundPropertyFloatSet>
            <BoundPropertyInt Name="effectType" Value="6" />
            <BoundPropertyFloatSet Name="scale">
              <BoundPropertyFloatElement Value="0.85000002384185791" />
              <BoundPropertyFloatElement Value="0.85000002384185791" />
              <BoundPropertyFloatElement Value="1" />
              <BoundPropertyFloatElement Value="1" />
            </BoundPropertyFloatSet>
          </BoundProperties>
        </PanAndZoomShapeEffect>
      </Effects>
      <Transitions>
        <ShapeEffect effectTemplateID="BlurThroughBlackTransitionTemplate" duration="1.5">
          <BoundProperties />
        </ShapeEffect>
      </Transitions>
      <BoundProperties>
        <BoundPropertyInt Name="rotateStepNinety" Value="0" />
      </BoundProperties>
    </ImageClip>
    <ImageClip extentID="155" gapBefore="0" mediaItemID="151" duration="7.896860823809523">
      <Effects>
        <PanAndZoomShapeEffect effectTemplateID="PanAndZoomEffectAutomaticTemplate">
          <BoundProperties>
            <BoundPropertyFloatSet Name="center">
              <BoundPropertyFloatElement Value="-0.5" />
              <BoundPropertyFloatElement Value="-1" />
              <BoundPropertyFloatElement Value="-0.5" />
              <BoundPropertyFloatElement Value="-1" />
            </BoundPropertyFloatSet>
            <BoundPropertyInt Name="effectType" Value="6" />
            <BoundPropertyFloatSet Name="scale">
              <BoundPropertyFloatElement Value="0.85000002384185791" />
              <BoundPropertyFloatElement Value="0.85000002384185791" />
              <BoundPropertyFloatElement Value="1" />
              <BoundPropertyFloatElement Value="1" />
            </BoundPropertyFloatSet>
          </BoundProperties>
        </PanAndZoomShapeEffect>
      </Effects>
      <Transitions>
        <ShapeEffect effectTemplateID="BlurThroughBlackTransitionTemplate" duration="1.5">
          <BoundProperties />
        </ShapeEffect>
      </Transitions>
      <BoundProperties>
        <BoundPropertyInt Name="rotateStepNinety" Value="0" />
      </BoundProperties>
    </ImageClip>
    <ImageClip extentID="156" gapBefore="0" mediaItemID="152" duration="7.896860823809523">
      <Effects>
        <PanAndZoomShapeEffect effectTemplateID="PanAndZoomEffectAutomaticTemplate">
          <BoundProperties>
            <BoundPropertyFloatSet Name="center">
              <BoundPropertyFloatElement Value="-0.5" />
              <BoundPropertyFloatElement Value="-0.5" />
              <BoundPropertyFloatElement Value="-0.5" />
              <BoundPropertyFloatElement Value="-0.5" />
            </BoundPropertyFloatSet>
            <BoundPropertyInt Name="effectType" Value="6" />
            <BoundPropertyFloatSet Name="scale">
              <BoundPropertyFloatElement Value="0.85000002384185791" />
              <BoundPropertyFloatElement Value="0.85000002384185791" />
              <BoundPropertyFloatElement Value="1" />
              <BoundPropertyFloatElement Value="1" />
            </BoundPropertyFloatSet>
          </BoundProperties>
        </PanAndZoomShapeEffect>
      </Effects>
      <Transitions>
        <ShapeEffect effectTemplateID="BlurThroughBlackTransitionTemplate" duration="1.5">
          <BoundProperties />
        </ShapeEffect>
      </Transitions>
      <BoundProperties>
        <BoundPropertyInt Name="rotateStepNinety" Value="0" />
      </BoundProperties>
    </ImageClip>
    <ImageClip extentID="157" gapBefore="0" mediaItemID="153" duration="7.896860823809523">
      <Effects>
        <PanAndZoomShapeEffect effectTemplateID="PanAndZoomEffectAutomaticTemplate">
          <BoundProperties>
            <BoundPropertyFloatSet Name="center">
              <BoundPropertyFloatElement Value="-1" />
              <BoundPropertyFloatElement Value="-0.5" />
              <BoundPropertyFloatElement Value="0" />
              <BoundPropertyFloatElement Value="-0.5" />
            </BoundPropertyFloatSet>
            <BoundPropertyInt Name="effectType" Value="2" />
            <BoundPropertyFloatSet Name="scale">
              <BoundPropertyFloatElement Value="0.85000002384185791" />
              <BoundPropertyFloatElement Value="0.85000002384185791" />
              <BoundPropertyFloatElement Value="0.85000002384185791" />
              <BoundPropertyFloatElement Value="0.85000002384185791" />
            </BoundPropertyFloatSet>
          </BoundProperties>
        </PanAndZoomShapeEffect>
      </Effects>
      <Transitions>
        <ShapeEffect effectTemplateID="BlurThroughBlackTransitionTemplate" duration="1.5">
          <BoundProperties />
        </ShapeEffect>
      </Transitions>
      <BoundProperties>
        <BoundPropertyInt Name="rotateStepNinety" Value="0" />
      </BoundProperties>
    </ImageClip>
    <ImageClip extentID="158" gapBefore="0" mediaItemID="154" duration="7.896860823809523">
      <Effects>
        <PanAndZoomShapeEffect effectTemplateID="PanAndZoomEffectAutomaticTemplate">
          <BoundProperties>
            <BoundPropertyFloatSet Name="center">
              <BoundPropertyFloatElement Value="-0.5" />
              <BoundPropertyFloatElement Value="-1" />
              <BoundPropertyFloatElement Value="-0.5" />
              <BoundPropertyFloatElement Value="-1" />
            </BoundPropertyFloatSet>
            <BoundPropertyInt Name="effectType" Value="5" />
            <BoundPropertyFloatSet Name="scale">
              <BoundPropertyFloatElement Value="1" />
              <BoundPropertyFloatElement Value="1" />
              <BoundPropertyFloatElement Value="0.85000002384185791" />
              <BoundPropertyFloatElement Value="0.85000002384185791" />
            </BoundPropertyFloatSet>
          </BoundProperties>
        </PanAndZoomShapeEffect>
      </Effects>
      <Transitions>
        <ShapeEffect effectTemplateID="BlurThroughBlackTransitionTemplate" duration="1.5">
          <BoundProperties />
        </ShapeEffect>
      </Transitions>
      <BoundProperties>
        <BoundPropertyInt Name="rotateStepNinety" Value="0" />
      </BoundProperties>
    </ImageClip>
    <ImageClip extentID="159" gapBefore="0" mediaItemID="155" duration="7.896860823809523">
      <Effects>
        <PanAndZoomShapeEffect effectTemplateID="PanAndZoomEffectAutomaticTemplate">
          <BoundProperties>
            <BoundPropertyFloatSet Name="center">
              <BoundPropertyFloatElement Value="0" />
              <BoundPropertyFloatElement Value="-0.5" />
              <BoundPropertyFloatElement Value="-1" />
              <BoundPropertyFloatElement Value="-0.5" />
            </BoundPropertyFloatSet>
            <BoundPropertyInt Name="effectType" Value="1" />
            <BoundPropertyFloatSet Name="scale">
              <BoundPropertyFloatElement Value="0.85000002384185791" />
              <BoundPropertyFloatElement Value="0.85000002384185791" />
              <BoundPropertyFloatElement Value="0.85000002384185791" />
              <BoundPropertyFloatElement Value="0.85000002384185791" />
            </BoundPropertyFloatSet>
          </BoundProperties>
        </PanAndZoomShapeEffect>
      </Effects>
      <Transitions>
        <ShapeEffect effectTemplateID="BlurThroughBlackTransitionTemplate" duration="1.5">
          <BoundProperties />
        </ShapeEffect>
      </Transitions>
      <BoundProperties>
        <BoundPropertyInt Name="rotateStepNinety" Value="0" />
      </BoundProperties>
    </ImageClip>
    <ImageClip extentID="160" gapBefore="0" mediaItemID="156" duration="7.896860823809523">
      <Effects>
        <PanAndZoomShapeEffect effectTemplateID="PanAndZoomEffectAutomaticTemplate">
          <BoundProperties>
            <BoundPropertyFloatSet Name="center">
              <BoundPropertyFloatElement Value="-0.5" />
              <BoundPropertyFloatElement Value="-1" />
              <BoundPropertyFloatElement Value="-0.5" />
              <BoundPropertyFloatElement Value="0" />
            </BoundPropertyFloatSet>
            <BoundPropertyInt Name="effectType" Value="3" />
            <BoundPropertyFloatSet Name="scale">
              <BoundPropertyFloatElement Value="0.85000002384185791" />
              <BoundPropertyFloatElement Value="0.85000002384185791" />
              <BoundPropertyFloatElement Value="0.85000002384185791" />
              <BoundPropertyFloatElement Value="0.85000002384185791" />
            </BoundPropertyFloatSet>
          </BoundProperties>
        </PanAndZoomShapeEffect>
      </Effects>
      <Transitions>
        <ShapeEffect effectTemplateID="BlurThroughBlackTransitionTemplate" duration="1.5">
          <BoundProperties />
        </ShapeEffect>
      </Transitions>
      <BoundProperties>
        <BoundPropertyInt Name="rotateStepNinety" Value="0" />
      </BoundProperties>
    </ImageClip>
    <ImageClip extentID="161" gapBefore="0" mediaItemID="157" duration="7.896860823809523">
      <Effects>
        <PanAndZoomShapeEffect effectTemplateID="PanAndZoomEffectAutomaticTemplate">
          <BoundProperties>
            <BoundPropertyFloatSet Name="center">
              <BoundPropertyFloatElement Value="0" />
              <BoundPropertyFloatElement Value="-0.5" />
              <BoundPropertyFloatElement Value="-1" />
              <BoundPropertyFloatElement Value="-0.5" />
            </BoundPropertyFloatSet>
            <BoundPropertyInt Name="effectType" Value="1" />
            <BoundPropertyFloatSet Name="scale">
              <BoundPropertyFloatElement Value="0.85000002384185791" />
              <BoundPropertyFloatElement Value="0.85000002384185791" />
              <BoundPropertyFloatElement Value="0.85000002384185791" />
              <BoundPropertyFloatElement Value="0.85000002384185791" />
            </BoundPropertyFloatSet>
          </BoundProperties>
        </PanAndZoomShapeEffect>
      </Effects>
      <Transitions>
        <ShapeEffect effectTemplateID="BlurThroughBlackTransitionTemplate" duration="1.5">
          <BoundProperties />
        </ShapeEffect>
      </Transitions>
      <BoundProperties>
        <BoundPropertyInt Name="rotateStepNinety" Value="0" />
      </BoundProperties>
    </ImageClip>
    <ImageClip extentID="162" gapBefore="0" mediaItemID="158" duration="7.896860823809523">
      <Effects>
        <PanAndZoomShapeEffect effectTemplateID="PanAndZoomEffectAutomaticTemplate">
          <BoundProperties>
            <BoundPropertyFloatSet Name="center">
              <BoundPropertyFloatElement Value="-0.5" />
              <BoundPropertyFloatElement Value="0" />
              <BoundPropertyFloatElement Value="-0.5" />
              <BoundPropertyFloatElement Value="-1" />
            </BoundPropertyFloatSet>
            <BoundPropertyInt Name="effectType" Value="4" />
            <BoundPropertyFloatSet Name="scale">
              <BoundPropertyFloatElement Value="0.85000002384185791" />
              <BoundPropertyFloatElement Value="0.85000002384185791" />
              <BoundPropertyFloatElement Value="0.85000002384185791" />
              <BoundPropertyFloatElement Value="0.85000002384185791" />
            </BoundPropertyFloatSet>
          </BoundProperties>
        </PanAndZoomShapeEffect>
      </Effects>
      <Transitions>
        <ShapeEffect effectTemplateID="BlurThroughBlackTransitionTemplate" duration="1.5">
          <BoundProperties />
        </ShapeEffect>
      </Transitions>
      <BoundProperties>
        <BoundPropertyInt Name="rotateStepNinety" Value="0" />
      </BoundProperties>
    </ImageClip>
    <ExtentSelector extentID="1" gapBefore="0" primaryTrack="true">
      <Effects />
      <Transitions />
      <BoundProperties />
      <ExtentRefs>
        <ExtentRef id="193" />
        <ExtentRef id="99" />
        <ExtentRef id="27" />
        <ExtentRef id="14" />
        <ExtentRef id="19" />
        <ExtentRef id="51" />
        <ExtentRef id="66" />
        <ExtentRef id="25" />
        <ExtentRef id="9" />
        <ExtentRef id="6" />
        <ExtentRef id="31" />
        <ExtentRef id="13" />
        <ExtentRef id="8" />
        <ExtentRef id="22" />
        <ExtentRef id="11" />
        <ExtentRef id="12" />
        <ExtentRef id="15" />
        <ExtentRef id="33" />
        <ExtentRef id="18" />
        <ExtentRef id="20" />
        <ExtentRef id="7" />
        <ExtentRef id="21" />
        <ExtentRef id="23" />
        <ExtentRef id="181" />
        <ExtentRef id="5" />
        <ExtentRef id="10" />
        <ExtentRef id="26" />
        <ExtentRef id="29" />
        <ExtentRef id="28" />
        <ExtentRef id="30" />
        <ExtentRef id="34" />
        <ExtentRef id="35" />
        <ExtentRef id="36" />
        <ExtentRef id="37" />
        <ExtentRef id="38" />
        <ExtentRef id="39" />
        <ExtentRef id="40" />
        <ExtentRef id="47" />
        <ExtentRef id="41" />
        <ExtentRef id="45" />
        <ExtentRef id="58" />
        <ExtentRef id="16" />
        <ExtentRef id="24" />
        <ExtentRef id="42" />
        <ExtentRef id="55" />
        <ExtentRef id="32" />
        <ExtentRef id="180" />
        <ExtentRef id="183" />
        <ExtentRef id="74" />
        <ExtentRef id="43" />
        <ExtentRef id="46" />
        <ExtentRef id="49" />
        <ExtentRef id="50" />
        <ExtentRef id="53" />
        <ExtentRef id="54" />
        <ExtentRef id="44" />
        <ExtentRef id="56" />
        <ExtentRef id="52" />
        <ExtentRef id="96" />
        <ExtentRef id="57" />
        <ExtentRef id="59" />
        <ExtentRef id="48" />
        <ExtentRef id="182" />
        <ExtentRef id="60" />
        <ExtentRef id="61" />
        <ExtentRef id="68" />
        <ExtentRef id="71" />
        <ExtentRef id="62" />
        <ExtentRef id="63" />
        <ExtentRef id="64" />
        <ExtentRef id="72" />
        <ExtentRef id="65" />
        <ExtentRef id="17" />
        <ExtentRef id="69" />
        <ExtentRef id="70" />
        <ExtentRef id="73" />
        <ExtentRef id="101" />
        <ExtentRef id="75" />
        <ExtentRef id="98" />
        <ExtentRef id="76" />
        <ExtentRef id="87" />
        <ExtentRef id="77" />
        <ExtentRef id="78" />
        <ExtentRef id="79" />
        <ExtentRef id="80" />
        <ExtentRef id="81" />
        <ExtentRef id="82" />
        <ExtentRef id="91" />
        <ExtentRef id="94" />
        <ExtentRef id="83" />
        <ExtentRef id="85" />
        <ExtentRef id="86" />
        <ExtentRef id="88" />
        <ExtentRef id="67" />
        <ExtentRef id="89" />
        <ExtentRef id="90" />
        <ExtentRef id="92" />
        <ExtentRef id="93" />
        <ExtentRef id="95" />
        <ExtentRef id="97" />
        <ExtentRef id="100" />
        <ExtentRef id="84" />
        <ExtentRef id="102" />
        <ExtentRef id="103" />
        <ExtentRef id="104" />
        <ExtentRef id="105" />
        <ExtentRef id="106" />
        <ExtentRef id="107" />
        <ExtentRef id="108" />
        <ExtentRef id="109" />
        <ExtentRef id="110" />
        <ExtentRef id="112" />
        <ExtentRef id="114" />
        <ExtentRef id="118" />
        <ExtentRef id="115" />
        <ExtentRef id="117" />
        <ExtentRef id="130" />
        <ExtentRef id="127" />
        <ExtentRef id="129" />
        <ExtentRef id="119" />
        <ExtentRef id="141" />
        <ExtentRef id="121" />
        <ExtentRef id="113" />
        <ExtentRef id="122" />
        <ExtentRef id="123" />
        <ExtentRef id="125" />
        <ExtentRef id="128" />
        <ExtentRef id="131" />
        <ExtentRef id="132" />
        <ExtentRef id="111" />
        <ExtentRef id="133" />
        <ExtentRef id="134" />
        <ExtentRef id="135" />
        <ExtentRef id="116" />
        <ExtentRef id="136" />
        <ExtentRef id="137" />
        <ExtentRef id="155" />
        <ExtentRef id="120" />
        <ExtentRef id="143" />
        <ExtentRef id="138" />
        <ExtentRef id="139" />
        <ExtentRef id="124" />
        <ExtentRef id="140" />
        <ExtentRef id="150" />
        <ExtentRef id="161" />
        <ExtentRef id="126" />
        <ExtentRef id="160" />
        <ExtentRef id="167" />
        <ExtentRef id="162" />
        <ExtentRef id="144" />
        <ExtentRef id="156" />
        <ExtentRef id="158" />
        <ExtentRef id="145" />
        <ExtentRef id="146" />
        <ExtentRef id="147" />
        <ExtentRef id="153" />
        <ExtentRef id="148" />
        <ExtentRef id="149" />
        <ExtentRef id="151" />
        <ExtentRef id="152" />
        <ExtentRef id="157" />
        <ExtentRef id="159" />
        <ExtentRef id="142" />
        <ExtentRef id="163" />
        <ExtentRef id="154" />
        <ExtentRef id="164" />
        <ExtentRef id="165" />
        <ExtentRef id="166" />
        <ExtentRef id="199" />
        <ExtentRef id="194" />
        <ExtentRef id="195" />
        <ExtentRef id="196" />
      </ExtentRefs>
    </ExtentSelector>
    <ExtentSelector extentID="2" gapBefore="0" primaryTrack="false">
      <Effects />
      <Transitions />
      <BoundProperties />
      <ExtentRefs>
        <ExtentRef id="168" />
        <ExtentRef id="169" />
        <ExtentRef id="178" />
        <ExtentRef id="171" />
        <ExtentRef id="172" />
      </ExtentRefs>
    </ExtentSelector>
    <ExtentSelector extentID="3" gapBefore="0" primaryTrack="false">
      <Effects />
      <Transitions />
      <BoundProperties />
      <ExtentRefs />
    </ExtentSelector>
    <ExtentSelector extentID="4" gapBefore="0" primaryTrack="false">
      <Effects />
      <Transitions />
      <BoundProperties />
      <ExtentRefs>
        <ExtentRef id="197" />
        <ExtentRef id="175" />
        <ExtentRef id="190" />
        <ExtentRef id="191" />
        <ExtentRef id="192" />
      </ExtentRefs>
    </ExtentSelector>
  </Extents>
  <BoundPlaceholders>
    <BoundPlaceholder placeholderID="SingleExtentView" extentID="0" />
    <BoundPlaceholder placeholderID="Main" extentID="1" />
    <BoundPlaceholder placeholderID="SoundTrack" extentID="2" />
    <BoundPlaceholder placeholderID="Text" extentID="4" />
    <BoundPlaceholder placeholderID="Narration" extentID="3" />
  </BoundPlaceholders>
  <BoundProperties>
    <BoundPropertyFloatSet Name="AspectRatio">
      <BoundPropertyFloatElement Value="1.3333332538604736" />
    </BoundPropertyFloatSet>
    <BoundPropertyFloat Name="SoundTrackMix" Value="1" />
  </BoundProperties>
  <ThemeOperationLog themeID="4">
    <MonolithicThemeOperations />
  </ThemeOperationLog>
</Project>